<?xml version="1.0" encoding="UTF-8"?>
<svg version="1.1" xmlns="http://www.w3.org/2000/svg" width="1920" height="481">
<path d="M0 0 C633.6 0 1267.2 0 1920 0 C1920 158.73 1920 317.46 1920 481 C1286.4 481 652.8 481 0 481 C0 322.27 0 163.54 0 0 Z " fill="#FEFEFE" transform="translate(0,0)"/>
<path d="M0 0 C18.15 0 36.3 0 55 0 C55 7.59 55 15.18 55 23 C61.27 23 67.54 23 74 23 C74 53.03 74 83.06 74 114 C85.22 114 96.44 114 108 114 C108 95.19 108 76.38 108 57 C116.91 57 125.82 57 135 57 C135 38.19 135 19.38 135 0 C152.82 0 170.64 0 189 0 C189 7.59 189 15.18 189 23 C195.27 23 201.54 23 208 23 C208 45.44 208 67.88 208 91 C199.09 91 190.18 91 181 91 C181 109.81 181 128.62 181 148 C172.09 148 163.18 148 154 148 C154 155.59 154 163.18 154 171 C156.64 171 159.28 171 162 171 C162 178.59 162 186.18 162 194 C168.27 194 174.54 194 181 194 C181 205.22 181 216.44 181 228 C183.64 228 186.28 228 189 228 C189 235.59 189 243.18 189 251 C194.94 251 200.88 251 207 251 C207 273.44 207 295.88 207 319 C185.88 319 164.76 319 143 319 C143 307.78 143 296.56 143 285 C140.36 285 137.72 285 135 285 C135 266.19 135 247.38 135 228 C126.09 228 117.18 228 108 228 C108 220.41 108 212.82 108 205 C96.45 205 84.9 205 73 205 C73 242.62 73 280.24 73 319 C51.88 319 30.76 319 9 319 C9 307.78 9 296.56 9 285 C6.03 285 3.06 285 0 285 C0 190.95 0 96.9 0 0 Z " fill="#FFD08A" transform="translate(1205,102)"/>
<path d="M0 0 C27.06 0 54.12 0 82 0 C82 7.59 82 15.18 82 23 C87.94 23 93.88 23 100 23 C100 34.22 100 45.44 100 57 C102.97 57 105.94 57 109 57 C109 64.26 109 71.52 109 79 C115.27 79 121.54 79 128 79 C128 90.55 128 102.1 128 114 C130.64 114 133.28 114 136 114 C136 121.59 136 129.18 136 137 C141.94 137 147.88 137 154 137 C154 148.22 154 159.44 154 171 C156.64 171 159.28 171 162 171 C162 178.59 162 186.18 162 194 C168.27 194 174.54 194 181 194 C181 205.22 181 216.44 181 228 C183.64 228 186.28 228 189 228 C189 209.19 189 190.38 189 171 C206.82 171 224.64 171 243 171 C243 208.62 243 246.24 243 285 C213.63 285 184.26 285 154 285 C154 292.59 154 300.18 154 308 C186.01 308 218.02 308 251 308 C251 262.79 251 217.58 251 171 C251.99 171 252.98 171 254 171 C254 217.2 254 263.4 254 311 C220.01 311 186.02 311 151 311 C151 302.42 151 293.84 151 285 C149.68 285 148.36 285 147 285 C147 294.9 147 304.8 147 315 C183.63 315 220.26 315 258 315 C258 267.48 258 219.96 258 171 C259.32 171 260.64 171 262 171 C262 219.84 262 268.68 262 319 C222.73 319 183.46 319 143 319 C143 307.78 143 296.56 143 285 C140.36 285 137.72 285 135 285 C135 277.41 135 269.82 135 262 C128.73 262 122.46 262 116 262 C116 250.78 116 239.56 116 228 C113.36 228 110.72 228 108 228 C108 220.41 108 212.82 108 205 C101.73 205 95.46 205 89 205 C89 193.78 89 182.56 89 171 C86.36 171 83.72 171 81 171 C81 163.41 81 155.82 81 148 C78.69 148 76.38 148 74 148 C74 204.43 74 260.86 74 319 C52.55 319 31.1 319 9 319 C9 307.78 9 296.56 9 285 C6.03 285 3.06 285 0 285 C0 190.95 0 96.9 0 0 Z " fill="#FFE5C5" transform="translate(721,102)"/>
<path d="M0 0 C18.15 0 36.3 0 55 0 C55 7.59 55 15.18 55 23 C61.27 23 67.54 23 74 23 C74 53.03 74 83.06 74 114 C85.22 114 96.44 114 108 114 C108 95.19 108 76.38 108 57 C116.91 57 125.82 57 135 57 C135 38.19 135 19.38 135 0 C152.82 0 170.64 0 189 0 C189 7.59 189 15.18 189 23 C195.27 23 201.54 23 208 23 C208 45.44 208 67.88 208 91 C199.09 91 190.18 91 181 91 C181 109.81 181 128.62 181 148 C172.09 148 163.18 148 154 148 C154 155.59 154 163.18 154 171 C156.64 171 159.28 171 162 171 C162 178.59 162 186.18 162 194 C168.27 194 174.54 194 181 194 C181 205.22 181 216.44 181 228 C183.31 228 185.62 228 188 228 C188 246.81 188 265.62 188 285 C176.78 285 165.56 285 154 285 C154 292.59 154 300.18 154 308 C168.19 308 182.38 308 197 308 C197 292.82 197 277.64 197 262 C194.36 262 191.72 262 189 262 C189 261.01 189 260.02 189 259 C192.63 259 196.26 259 200 259 C200 276.16 200 293.32 200 311 C183.5 311 167 311 150 311 C150 302.42 150 293.84 150 285 C149.01 285 148.02 285 147 285 C147 295.23 147 305.46 147 316 C160.53 316 174.06 316 188 316 C188 316.99 188 317.98 188 319 C173.15 319 158.3 319 143 319 C143 307.78 143 296.56 143 285 C140.36 285 137.72 285 135 285 C135 266.19 135 247.38 135 228 C126.09 228 117.18 228 108 228 C108 220.41 108 212.82 108 205 C96.45 205 84.9 205 73 205 C73 242.62 73 280.24 73 319 C51.88 319 30.76 319 9 319 C9 307.78 9 296.56 9 285 C6.03 285 3.06 285 0 285 C0 190.95 0 96.9 0 0 Z " fill="#FFE5C5" transform="translate(990,102)"/>
<path d="M0 0 C70.95 0 141.9 0 215 0 C215 7.59 215 15.18 215 23 C221.27 23 227.54 23 234 23 C234 45.44 234 67.88 234 91 C207.6 91 181.2 91 154 91 C154 166.24 154 241.48 154 319 C132.55 319 111.1 319 89 319 C89 307.78 89 296.56 89 285 C86.03 285 83.06 285 80 285 C80 220.98 80 156.96 80 91 C56.24 91 32.48 91 8 91 C8 79.78 8 68.56 8 57 C5.36 57 2.72 57 0 57 C0 38.19 0 19.38 0 0 Z " fill="#FEE4C6" transform="translate(1501,102)"/>
<path d="M0 0 C17.82 0 35.64 0 54 0 C54 7.59 54 15.18 54 23 C60.6 23 67.2 23 74 23 C74 120.68 74 218.36 74 319 C52.55 319 31.1 319 9 319 C9 307.78 9 296.56 9 285 C6.03 285 3.06 285 0 285 C0 190.95 0 96.9 0 0 Z " fill="#FEE4C4" transform="translate(1420,102)"/>
<path d="M0 0 C17.82 0 35.64 0 54 0 C54 7.59 54 15.18 54 23 C60.6 23 67.2 23 74 23 C74 120.68 74 218.36 74 319 C52.55 319 31.1 319 9 319 C9 307.78 9 296.56 9 285 C6.03 285 3.06 285 0 285 C0 190.95 0 96.9 0 0 Z " fill="#FEE4C4" transform="translate(641,102)"/>
<path d="M0 0 C17.49 0 34.98 0 53 0 C53 37.62 53 75.24 53 114 C55.97 114 58.94 114 62 114 C62 95.19 62 76.38 62 57 C62.99 57 63.98 57 65 57 C65 75.81 65 94.62 65 114 C66.32 114 67.64 114 69 114 C69 95.19 69 76.38 69 57 C69.99 57 70.98 57 72 57 C72 75.81 72 94.62 72 114 C110.28 114 148.56 114 188 114 C188 121.59 188 129.18 188 137 C194.27 137 200.54 137 207 137 C207 159.44 207 181.88 207 205 C150.24 205 93.48 205 35 205 C35 193.78 35 182.56 35 171 C32.03 171 29.06 171 26 171 C26 163.41 26 155.82 26 148 C20.06 148 14.12 148 8 148 C8 136.78 8 125.56 8 114 C5.36 114 2.72 114 0 114 C0 76.38 0 38.76 0 0 Z " fill="#FEBB59" transform="translate(212,216)"/>
<path d="M0 0 C17.49 0 34.98 0 53 0 C53 18.81 53 37.62 53 57 C55.97 57 58.94 57 62 57 C62 38.19 62 19.38 62 0 C62.99 0 63.98 0 65 0 C65 18.81 65 37.62 65 57 C66.32 57 67.64 57 69 57 C69 38.19 69 19.38 69 0 C69.99 0 70.98 0 72 0 C72 18.81 72 37.62 72 57 C110.28 57 148.56 57 188 57 C188 64.59 188 72.18 188 80 C193.94 80 199.88 80 206 80 C206 102.44 206 124.88 206 148 C140.66 148 75.32 148 8 148 C8 136.78 8 125.56 8 114 C5.36 114 2.72 114 0 114 C0 76.38 0 38.76 0 0 Z " fill="#FF9801" transform="translate(427,273)"/>
<path d="M0 0 C53.46 0 106.92 0 162 0 C162 7.59 162 15.18 162 23 C168.27 23 174.54 23 181 23 C181 45.44 181 67.88 181 91 C136.78 91 92.56 91 47 91 C47 136.21 47 181.42 47 228 C46.67 228 46.34 228 46 228 C46 209.19 46 190.38 46 171 C45.01 171 44.02 171 43 171 C43 189.81 43 208.62 43 228 C41.68 228 40.36 228 39 228 C39 209.19 39 190.38 39 171 C38.01 171 37.02 171 36 171 C36 189.81 36 208.62 36 228 C33.03 228 30.06 228 27 228 C27 190.38 27 152.76 27 114 C9.51 114 -7.98 114 -26 114 C-26 151.62 -26 189.24 -26 228 C-26.33 228 -26.66 228 -27 228 C-27 171.57 -27 115.14 -27 57 C-18.09 57 -9.18 57 0 57 C0 38.19 0 19.38 0 0 Z " fill="#FFE4C5" transform="translate(238,102)"/>
<path d="M0 0 C17.82 0 35.64 0 54 0 C54 56.43 54 112.86 54 171 C42.45 171 30.9 171 19 171 C19 178.59 19 186.18 19 194 C32.86 194 46.72 194 61 194 C61 156.38 61 118.76 61 80 C76.18 80 91.36 80 107 80 C107 72.41 107 64.82 107 57 C124.82 57 142.64 57 161 57 C161 64.59 161 72.18 161 80 C167.27 80 173.54 80 180 80 C180 91.22 180 102.44 180 114 C182.31 114 184.62 114 187 114 C187 132.81 187 151.62 187 171 C175.78 171 164.56 171 153 171 C153 178.59 153 186.18 153 194 C167.19 194 181.38 194 196 194 C196 178.82 196 163.64 196 148 C193.36 148 190.72 148 188 148 C188 147.01 188 146.02 188 145 C191.63 145 195.26 145 199 145 C199 162.16 199 179.32 199 197 C182.5 197 166 197 149 197 C149 188.42 149 179.84 149 171 C148.01 171 147.02 171 146 171 C146 181.23 146 191.46 146 202 C159.53 202 173.06 202 187 202 C187 202.99 187 203.98 187 205 C172.15 205 157.3 205 142 205 C142 193.78 142 182.56 142 171 C139.36 171 136.72 171 134 171 C134 152.19 134 133.38 134 114 C125.09 114 116.18 114 107 114 C107 106.41 107 98.82 107 91 C95.45 91 83.9 91 72 91 C72 128.62 72 166.24 72 205 C50.88 205 29.76 205 8 205 C8 193.78 8 182.56 8 171 C5.36 171 2.72 171 0 171 C0 114.57 0 58.14 0 0 Z " fill="#FFB347" transform="translate(991,216)"/>
<path d="M0 0 C17.49 0 34.98 0 53 0 C53 37.62 53 75.24 53 114 C41.45 114 29.9 114 18 114 C18 121.59 18 129.18 18 137 C32.19 137 46.38 137 61 137 C61 99.38 61 61.76 61 23 C76.18 23 91.36 23 107 23 C107 15.41 107 7.82 107 0 C124.82 0 142.64 0 161 0 C161 7.59 161 15.18 161 23 C167.27 23 173.54 23 180 23 C180 34.22 180 45.44 180 57 C182.64 57 185.28 57 188 57 C188 64.59 188 72.18 188 80 C193.94 80 199.88 80 206 80 C206 102.44 206 124.88 206 148 C184.88 148 163.76 148 142 148 C142 136.78 142 125.56 142 114 C139.36 114 136.72 114 134 114 C134 95.19 134 76.38 134 57 C125.09 57 116.18 57 107 57 C107 49.41 107 41.82 107 34 C95.45 34 83.9 34 72 34 C72 71.62 72 109.24 72 148 C50.88 148 29.76 148 8 148 C8 136.78 8 125.56 8 114 C5.36 114 2.72 114 0 114 C0 76.38 0 38.76 0 0 Z " fill="#FFB347" transform="translate(1206,273)"/>
<path d="M0 0 C17.82 0 35.64 0 54 0 C54 7.59 54 15.18 54 23 C60.27 23 66.54 23 73 23 C73 71.84 73 120.68 73 171 C71.68 171 70.36 171 69 171 C69 218.52 69 266.04 69 315 C32.37 315 -4.26 315 -42 315 C-42 305.1 -42 295.2 -42 285 C-40.68 285 -39.36 285 -38 285 C-38 293.58 -38 302.16 -38 311 C-4.01 311 29.98 311 65 311 C65 264.8 65 218.6 65 171 C64.01 171 63.02 171 62 171 C62 216.21 62 261.42 62 308 C29.99 308 -2.02 308 -35 308 C-35 300.41 -35 292.82 -35 285 C-5.63 285 23.74 285 54 285 C54 247.38 54 209.76 54 171 C36.18 171 18.36 171 0 171 C0 114.57 0 58.14 0 0 Z " fill="#FEE5C7" transform="translate(910,102)"/>
<path d="M0 0 C18.15 0 36.3 0 55 0 C55 7.59 55 15.18 55 23 C61.27 23 67.54 23 74 23 C74 90.65 74 158.3 74 228 C73.67 228 73.34 228 73 228 C73 209.19 73 190.38 73 171 C72.01 171 71.02 171 70 171 C70 189.81 70 208.62 70 228 C68.68 228 67.36 228 66 228 C66 209.19 66 190.38 66 171 C65.01 171 64.02 171 63 171 C63 189.81 63 208.62 63 228 C60.03 228 57.06 228 54 228 C54 209.19 54 190.38 54 171 C36.51 171 19.02 171 1 171 C1 208.62 1 246.24 1 285 C0.67 285 0.34 285 0 285 C0 190.95 0 96.9 0 0 Z " fill="#FFE4C4" transform="translate(426,102)"/>
<path d="M0 0 C17.82 0 35.64 0 54 0 C54 37.62 54 75.24 54 114 C24.63 114 -4.74 114 -35 114 C-35 121.59 -35 129.18 -35 137 C-2.99 137 29.02 137 62 137 C62 91.79 62 46.58 62 0 C62.99 0 63.98 0 65 0 C65 46.2 65 92.4 65 140 C31.01 140 -2.98 140 -38 140 C-38 131.42 -38 122.84 -38 114 C-39.32 114 -40.64 114 -42 114 C-42 123.9 -42 133.8 -42 144 C-5.37 144 31.26 144 69 144 C69 96.48 69 48.96 69 0 C70.32 0 71.64 0 73 0 C73 48.84 73 97.68 73 148 C33.73 148 -5.54 148 -46 148 C-46 136.78 -46 125.56 -46 114 C-48.64 114 -51.28 114 -54 114 C-54 106.41 -54 98.82 -54 91 C-59.94 91 -65.88 91 -72 91 C-72 79.78 -72 68.56 -72 57 C-71.01 57 -70.02 57 -69 57 C-69 66.9 -69 76.8 -69 87 C-64.05 87 -59.1 87 -54 87 C-54 86.01 -54 85.02 -54 84 C-57.63 84 -61.26 84 -65 84 C-65 75.09 -65 66.18 -65 57 C-64.01 57 -63.02 57 -62 57 C-62 64.59 -62 72.18 -62 80 C-59.03 80 -56.06 80 -53 80 C-53 72.41 -53 64.82 -53 57 C-35.51 57 -18.02 57 0 57 C0 38.19 0 19.38 0 0 Z " fill="#FF9800" transform="translate(910,273)"/>
<path d="M0 0 C17.82 0 35.64 0 54 0 C54 7.59 54 15.18 54 23 C60.27 23 66.54 23 73 23 C73 45.44 73 67.88 73 91 C64.09 91 55.18 91 46 91 C46 109.81 46 128.62 46 148 C37.09 148 28.18 148 19 148 C19 155.59 19 163.18 19 171 C12.73 171 6.46 171 0 171 C0 152.19 0 133.38 0 114 C-8.91 114 -17.82 114 -27 114 C-27 95.19 -27 76.38 -27 57 C-18.09 57 -9.18 57 0 57 C0 38.19 0 19.38 0 0 Z " fill="#FFE5C5" transform="translate(1340,102)"/>
<path d="M0 0 C17.82 0 35.64 0 54 0 C54 7.59 54 15.18 54 23 C60.27 23 66.54 23 73 23 C73 45.44 73 67.88 73 91 C64.09 91 55.18 91 46 91 C46 109.81 46 128.62 46 148 C37.09 148 28.18 148 19 148 C19 155.59 19 163.18 19 171 C12.73 171 6.46 171 0 171 C0 152.19 0 133.38 0 114 C-8.91 114 -17.82 114 -27 114 C-27 95.19 -27 76.38 -27 57 C-18.09 57 -9.18 57 0 57 C0 38.19 0 19.38 0 0 Z " fill="#FFE4C5" transform="translate(1125,102)"/>
<path d="M0 0 C17.82 0 35.64 0 54 0 C54 56.43 54 112.86 54 171 C42.45 171 30.9 171 19 171 C19 178.59 19 186.18 19 194 C33.19 194 47.38 194 62 194 C62 148.79 62 103.58 62 57 C62.99 57 63.98 57 65 57 C65 103.2 65 149.4 65 197 C48.5 197 32 197 15 197 C15 188.42 15 179.84 15 171 C14.01 171 13.02 171 12 171 C12 180.9 12 190.8 12 201 C30.81 201 49.62 201 69 201 C69 153.48 69 105.96 69 57 C69.99 57 70.98 57 72 57 C72.85675893 92.35725605 73.09183454 127.69604965 73.0625 163.0625 C73.06164398 164.10186832 73.06078796 165.14123665 73.05990601 166.21210098 C73.04847045 179.14142614 73.02539032 192.07068658 73 205 C51.55 205 30.1 205 8 205 C8 193.78 8 182.56 8 171 C5.36 171 2.72 171 0 171 C0 114.57 0 58.14 0 0 Z " fill="#FFB347" transform="translate(722,216)"/>
<path d="M0 0 C8.58 0 17.16 0 26 0 C26 18.81 26 37.62 26 57 C23.36 57 20.72 57 18 57 C18 64.59 18 72.18 18 80 C76.74 80 135.48 80 196 80 C196 64.82 196 49.64 196 34 C193.36 34 190.72 34 188 34 C188 41.59 188 49.18 188 57 C152.69 57 117.38 57 81 57 C81 38.19 81 19.38 81 0 C116.31 0 151.62 0 188 0 C188 7.59 188 15.18 188 23 C193.94 23 199.88 23 206 23 C206 45.44 206 67.88 206 91 C140.66 91 75.32 91 8 91 C8 79.78 8 68.56 8 57 C5.36 57 2.72 57 0 57 C0 38.19 0 19.38 0 0 Z " fill="#FF9800" transform="translate(427,330)"/>
<path d="M0 0 C17.82 0 35.64 0 54 0 C54 56.43 54 112.86 54 171 C42.45 171 30.9 171 19 171 C19 178.59 19 186.18 19 194 C33.52 194 48.04 194 63 194 C63 167.6 63 141.2 63 114 C63.99 114 64.98 114 66 114 C66 141.39 66 168.78 66 197 C49.5 197 33 197 16 197 C16 188.42 16 179.84 16 171 C14.68 171 13.36 171 12 171 C12 180.9 12 190.8 12 201 C31.14 201 50.28 201 70 201 C70 153.48 70 105.96 70 57 C70.99 57 71.98 57 73 57 C73 105.84 73 154.68 73 205 C51.88 205 30.76 205 9 205 C9 193.78 9 182.56 9 171 C6.03 171 3.06 171 0 171 C0 114.57 0 58.14 0 0 Z " fill="#FFD08A" transform="translate(1420,216)"/>
<path d="M0 0 C17.82 0 35.64 0 54 0 C54 56.43 54 112.86 54 171 C42.45 171 30.9 171 19 171 C19 178.59 19 186.18 19 194 C33.52 194 48.04 194 63 194 C63 167.6 63 141.2 63 114 C63.99 114 64.98 114 66 114 C66 141.39 66 168.78 66 197 C49.5 197 33 197 16 197 C16 188.42 16 179.84 16 171 C14.68 171 13.36 171 12 171 C12 180.9 12 190.8 12 201 C31.14 201 50.28 201 70 201 C70 153.48 70 105.96 70 57 C70.99 57 71.98 57 73 57 C73 105.84 73 154.68 73 205 C51.88 205 30.76 205 9 205 C9 193.78 9 182.56 9 171 C6.03 171 3.06 171 0 171 C0 114.57 0 58.14 0 0 Z " fill="#FFD08A" transform="translate(641,216)"/>
<path d="M0 0 C17.82 0 35.64 0 54 0 C54 7.59 54 15.18 54 23 C59.94 23 65.88 23 72 23 C72 34.22 72 45.44 72 57 C74.64 57 77.28 57 80 57 C80 64.59 80 72.18 80 80 C86.27 80 92.54 80 99 80 C99 91.22 99 102.44 99 114 C84.15 114 69.3 114 54 114 C54 121.59 54 129.18 54 137 C51.03 137 48.06 137 45 137 C45 129.41 45 121.82 45 114 C44.01 114 43.02 114 42 114 C42 122.91 42 131.82 42 141 C45.63 141 49.26 141 53 141 C53 141.99 53 142.98 53 144 C48.05 144 43.1 144 38 144 C38 134.1 38 124.2 38 114 C37.01 114 36.02 114 35 114 C35 125.22 35 136.44 35 148 C34.67 148 34.34 148 34 148 C34 136.78 34 125.56 34 114 C31.36 114 28.72 114 26 114 C26 106.41 26 98.82 26 91 C19.73 91 13.46 91 7 91 C7 79.78 7 68.56 7 57 C4.36 57 1.72 57 -1 57 C-1 49.41 -1 41.82 -1 34 C-3.31 34 -5.62 34 -8 34 C-8 60.4 -8 86.8 -8 114 C-8.33 114 -8.66 114 -9 114 C-9 95.19 -9 76.38 -9 57 C-9.99 57 -10.98 57 -12 57 C-12 104.52 -12 152.04 -12 201 C-30.81 201 -49.62 201 -69 201 C-69 191.1 -69 181.2 -69 171 C-68.01 171 -67.02 171 -66 171 C-66 179.58 -66 188.16 -66 197 C-49.5 197 -33 197 -16 197 C-16 150.8 -16 104.6 -16 57 C-16.99 57 -17.98 57 -19 57 C-19 45.78 -19 34.56 -19 23 C-12.73 23 -6.46 23 0 23 C0 15.41 0 7.82 0 0 Z " fill="#FED08C" transform="translate(803,216)"/>
<path d="M0 0 C18.15 0 36.3 0 55 0 C55 7.59 55 15.18 55 23 C61.27 23 67.54 23 74 23 C74 53.03 74 83.06 74 114 C49.58 114 25.16 114 0 114 C0 76.38 0 38.76 0 0 Z " fill="#FFE5C5" transform="translate(1205,102)"/>
<path d="M0 0 C0.99 0 1.98 0 3 0 C3 18.81 3 37.62 3 57 C4.32 57 5.64 57 7 57 C7 38.19 7 19.38 7 0 C7.99 0 8.98 0 10 0 C10 18.81 10 37.62 10 57 C47.95 57 85.9 57 125 57 C125 75.81 125 94.62 125 114 C81.11 114 37.22 114 -8 114 C-8 95.19 -8 76.38 -8 57 C-5.36 57 -2.72 57 0 57 C0 38.19 0 19.38 0 0 Z " fill="#FF9800" transform="translate(274,273)"/>
<path d="M0 0 C18.15 0 36.3 0 55 0 C55 37.62 55 75.24 55 114 C43.12 114 31.24 114 19 114 C19 121.59 19 129.18 19 137 C33.52 137 48.04 137 63 137 C63 110.6 63 84.2 63 57 C63.99 57 64.98 57 66 57 C66 84.39 66 111.78 66 140 C49.5 140 33 140 16 140 C16 131.42 16 122.84 16 114 C14.68 114 13.36 114 12 114 C12 123.9 12 133.8 12 144 C31.14 144 50.28 144 70 144 C70 96.48 70 48.96 70 0 C70.99 0 71.98 0 73 0 C73 48.84 73 97.68 73 148 C51.88 148 30.76 148 9 148 C9 136.78 9 125.56 9 114 C6.03 114 3.06 114 0 114 C0 76.38 0 38.76 0 0 Z " fill="#FFB44A" transform="translate(1581,273)"/>
<path d="M0 0 C26.4 0 52.8 0 80 0 C80 18.81 80 37.62 80 57 C71.09 57 62.18 57 53 57 C53 64.59 53 72.18 53 80 C37.82 80 22.64 80 7 80 C7 117.62 7 155.24 7 194 C-6.86 194 -20.72 194 -35 194 C-35 186.41 -35 178.82 -35 171 C-23.45 171 -11.9 171 0 171 C0 114.57 0 58.14 0 0 Z " fill="#FFD08A" transform="translate(1045,216)"/>
<path d="M0 0 C17.49 0 34.98 0 53 0 C53 37.62 53 75.24 53 114 C41.45 114 29.9 114 18 114 C18 121.59 18 129.18 18 137 C32.52 137 47.04 137 62 137 C62 110.6 62 84.2 62 57 C62.99 57 63.98 57 65 57 C65 84.39 65 111.78 65 140 C48.5 140 32 140 15 140 C15 131.42 15 122.84 15 114 C13.68 114 12.36 114 11 114 C11 123.9 11 133.8 11 144 C30.14 144 49.28 144 69 144 C69 115.29 69 86.58 69 57 C69.99 57 70.98 57 72 57 C72 87.03 72 117.06 72 148 C50.88 148 29.76 148 8 148 C8 136.78 8 125.56 8 114 C5.36 114 2.72 114 0 114 C0 76.38 0 38.76 0 0 Z " fill="#FFB346" transform="translate(1206,273)"/>
<path d="M0 0 C17.82 0 35.64 0 54 0 C54 56.43 54 112.86 54 171 C53.67 171 53.34 171 53 171 C53 152.19 53 133.38 53 114 C35.51 114 18.02 114 0 114 C0 76.38 0 38.76 0 0 Z " fill="#FFCF89" transform="translate(991,216)"/>
<path d="M0 0 C2.64 0 5.28 0 8 0 C8 15.18 8 30.36 8 46 C-18.73 46 -45.46 46 -73 46 C-73 121.24 -73 196.48 -73 274 C-87.19 274 -101.38 274 -116 274 C-116 266.41 -116 258.82 -116 251 C-104.12 251 -92.24 251 -80 251 C-80 175.76 -80 100.52 -80 23 C-53.6 23 -27.2 23 0 23 C0 15.41 0 7.82 0 0 Z " fill="#FEFEFD" transform="translate(1716,136)"/>
<path d="M0 0 C0.99 0 1.98 0 3 0 C3 46.2 3 92.4 3 140 C-13.5 140 -30 140 -47 140 C-47 131.42 -47 122.84 -47 114 C-47.99 114 -48.98 114 -50 114 C-50 123.9 -50 133.8 -50 144 C-31.19 144 -12.38 144 7 144 C7 96.48 7 48.96 7 0 C7.99 0 8.98 0 10 0 C10.85675893 35.35725605 11.09183454 70.69604965 11.0625 106.0625 C11.06164398 107.10186832 11.06078796 108.14123665 11.05990601 109.21210098 C11.04847045 122.14142614 11.02539032 135.07068658 11 148 C-10.45 148 -31.9 148 -54 148 C-54 136.78 -54 125.56 -54 114 C-56.64 114 -59.28 114 -62 114 C-62 95.19 -62 76.38 -62 57 C-44.18 57 -26.36 57 -8 57 C-8 75.81 -8 94.62 -8 114 C-19.55 114 -31.1 114 -43 114 C-43 121.59 -43 129.18 -43 137 C-28.81 137 -14.62 137 0 137 C0 91.79 0 46.58 0 0 Z " fill="#FE9805" transform="translate(784,273)"/>
<path d="M0 0 C2.64 0 5.28 0 8 0 C8 15.18 8 30.36 8 46 C-36.22 46 -80.44 46 -126 46 C-126 57.22 -126 68.44 -126 80 C-126.06036322 89.41955146 -126.12973701 98.83855575 -126.21875 108.2578125 C-126.2413031 110.76512535 -126.26372026 113.27243944 -126.28601074 115.77975464 C-126.34385487 122.24673718 -126.40349203 128.71370186 -126.46356201 135.18066406 C-126.52501362 141.83267212 -126.58468758 148.48469607 -126.64453125 155.13671875 C-126.76132536 168.09116159 -126.87996146 181.04558683 -127 194 C-129.31 194 -131.62 194 -134 194 C-134 137.57 -134 81.14 -134 23 C-89.78 23 -45.56 23 0 23 C0 15.41 0 7.82 0 0 Z " fill="#FFFEFD" transform="translate(400,136)"/>
<path d="M0 0 C2.64 0 5.28 0 8 0 C8 15.18 8 30.36 8 46 C-50.74 46 -109.48 46 -170 46 C-170 38.41 -170 30.82 -170 23 C-113.9 23 -57.8 23 0 23 C0 15.41 0 7.82 0 0 Z " fill="#FEFDFB" transform="translate(615,364)"/>
<path d="M0 0 C0.99 0 1.98 0 3 0 C3 48.84 3 97.68 3 148 C-18.12 148 -39.24 148 -61 148 C-61 136.78 -61 125.56 -61 114 C-63.64 114 -66.28 114 -69 114 C-69 95.19 -69 76.38 -69 57 C-51.51 57 -34.02 57 -16 57 C-16 75.81 -16 94.62 -16 114 C-27.55 114 -39.1 114 -51 114 C-51 121.59 -51 129.18 -51 137 C-36.48 137 -21.96 137 -7 137 C-7 110.6 -7 84.2 -7 57 C-6.01 57 -5.02 57 -4 57 C-4 84.39 -4 111.78 -4 140 C-20.5 140 -37 140 -54 140 C-54 131.42 -54 122.84 -54 114 C-55.32 114 -56.64 114 -58 114 C-58 123.9 -58 133.8 -58 144 C-38.86 144 -19.72 144 0 144 C0 96.48 0 48.96 0 0 Z " fill="#FF9800" transform="translate(1490,273)"/>
<path d="M0 0 C0.99 0 1.98 0 3 0 C3 48.84 3 97.68 3 148 C-18.12 148 -39.24 148 -61 148 C-61 136.78 -61 125.56 -61 114 C-63.64 114 -66.28 114 -69 114 C-69 95.19 -69 76.38 -69 57 C-51.51 57 -34.02 57 -16 57 C-16 75.81 -16 94.62 -16 114 C-27.55 114 -39.1 114 -51 114 C-51 121.59 -51 129.18 -51 137 C-36.48 137 -21.96 137 -7 137 C-7 110.6 -7 84.2 -7 57 C-6.01 57 -5.02 57 -4 57 C-4 84.39 -4 111.78 -4 140 C-20.5 140 -37 140 -54 140 C-54 131.42 -54 122.84 -54 114 C-55.32 114 -56.64 114 -58 114 C-58 123.9 -58 133.8 -58 144 C-38.86 144 -19.72 144 0 144 C0 96.48 0 48.96 0 0 Z " fill="#FF9800" transform="translate(711,273)"/>
<path d="M0 0 C0.99 0 1.98 0 3 0 C3 7.59 3 15.18 3 23 C5.97 23 8.94 23 12 23 C12 15.41 12 7.82 12 0 C29.49 0 46.98 0 65 0 C65 7.59 65 15.18 65 23 C71.27 23 77.54 23 84 23 C84 34.22 84 45.44 84 57 C69.15 57 54.3 57 39 57 C39 64.59 39 72.18 39 80 C36.03 80 33.06 80 30 80 C30 72.41 30 64.82 30 57 C29.01 57 28.02 57 27 57 C27 65.91 27 74.82 27 84 C30.63 84 34.26 84 38 84 C38 84.99 38 85.98 38 87 C33.05 87 28.1 87 23 87 C23 77.1 23 67.2 23 57 C22.01 57 21.02 57 20 57 C20 68.22 20 79.44 20 91 C19.67 91 19.34 91 19 91 C19 79.78 19 68.56 19 57 C16.69 57 14.38 57 12 57 C12 46.77 12 36.54 12 26 C8.04 26 4.08 26 0 26 C0 17.42 0 8.84 0 0 Z " fill="#FFB348" transform="translate(818,273)"/>
<path d="M0 0 C17.49 0 34.98 0 53 0 C53 18.81 53 37.62 53 57 C41.78 57 30.56 57 19 57 C19 64.59 19 72.18 19 80 C33.19 80 47.38 80 62 80 C62 53.6 62 27.2 62 0 C62.99 0 63.98 0 65 0 C65 27.39 65 54.78 65 83 C48.5 83 32 83 15 83 C15 74.42 15 65.84 15 57 C14.01 57 13.02 57 12 57 C12 66.9 12 76.8 12 87 C30.81 87 49.62 87 69 87 C69 58.29 69 29.58 69 0 C69.99 0 70.98 0 72 0 C72 30.03 72 60.06 72 91 C50.88 91 29.76 91 8 91 C8 79.78 8 68.56 8 57 C5.36 57 2.72 57 0 57 C0 38.19 0 19.38 0 0 Z " fill="#FE9802" transform="translate(991,330)"/>
<path d="M0 0 C0.99 0 1.98 0 3 0 C3 46.2 3 92.4 3 140 C-30.99 140 -64.98 140 -100 140 C-100 131.42 -100 122.84 -100 114 C-101.32 114 -102.64 114 -104 114 C-104 123.9 -104 133.8 -104 144 C-67.37 144 -30.74 144 7 144 C7 96.48 7 48.96 7 0 C8.32 0 9.64 0 11 0 C11 48.84 11 97.68 11 148 C-28.27 148 -67.54 148 -108 148 C-108 136.78 -108 125.56 -108 114 C-110.64 114 -113.28 114 -116 114 C-116 106.41 -116 98.82 -116 91 C-121.94 91 -127.88 91 -134 91 C-134 79.78 -134 68.56 -134 57 C-133.01 57 -132.02 57 -131 57 C-131 66.9 -131 76.8 -131 87 C-126.05 87 -121.1 87 -116 87 C-116 86.01 -116 85.02 -116 84 C-119.63 84 -123.26 84 -127 84 C-127 75.09 -127 66.18 -127 57 C-126.01 57 -125.02 57 -124 57 C-124 64.59 -124 72.18 -124 80 C-121.03 80 -118.06 80 -115 80 C-115 72.41 -115 64.82 -115 57 C-106.09 57 -97.18 57 -88 57 C-88 75.81 -88 94.62 -88 114 C-90.97 114 -93.94 114 -97 114 C-97 121.59 -97 129.18 -97 137 C-64.99 137 -32.98 137 0 137 C0 91.79 0 46.58 0 0 Z " fill="#FE9903" transform="translate(972,273)"/>
<path d="M0 0 C17.49 0 34.98 0 53 0 C53 18.81 53 37.62 53 57 C41.78 57 30.56 57 19 57 C19 64.59 19 72.18 19 80 C33.19 80 47.38 80 62 80 C62 64.82 62 49.64 62 34 C59.36 34 56.72 34 54 34 C54 33.01 54 32.02 54 31 C57.63 31 61.26 31 65 31 C65 48.16 65 65.32 65 83 C48.5 83 32 83 15 83 C15 74.42 15 65.84 15 57 C14.01 57 13.02 57 12 57 C12 67.23 12 77.46 12 88 C25.53 88 39.06 88 53 88 C53 88.99 53 89.98 53 91 C38.15 91 23.3 91 8 91 C8 79.78 8 68.56 8 57 C5.36 57 2.72 57 0 57 C0 38.19 0 19.38 0 0 Z " fill="#FE9802" transform="translate(1125,330)"/>
<path d="M0 0 C2.64 0 5.28 0 8 0 C8 15.18 8 30.36 8 46 C-41.83 46 -91.66 46 -143 46 C-143 38.41 -143 30.82 -143 23 C-95.81 23 -48.62 23 0 23 C0 15.41 0 7.82 0 0 Z " fill="#FEFDFC" transform="translate(400,364)"/>
<path d="M0 0 C1.98 0 3.96 0 6 0 C6 90.09 6 180.18 6 273 C-25.35 273 -56.7 273 -89 273 C-89 265.74 -89 258.48 -89 251 C-59.63 251 -30.26 251 0 251 C0 168.17 0 85.34 0 0 Z " fill="#FFFFFF" transform="translate(965,136)"/>
<path d="M0 0 C9.24 0 18.48 0 28 0 C28 18.81 28 37.62 28 57 C36.58 57 45.16 57 54 57 C54 49.41 54 41.82 54 34 C56.64 34 59.28 34 62 34 C62 49.18 62 64.36 62 80 C47.48 80 32.96 80 18 80 C18 72.41 18 64.82 18 57 C17.34 57 16.68 57 16 57 C16 65.58 16 74.16 16 83 C32.17 83 48.34 83 65 83 C65 65.51 65 48.02 65 30 C61.37 30 57.74 30 54 30 C54 28.68 54 27.36 54 26 C58.95 26 63.9 26 69 26 C69 46.13 69 66.26 69 87 C49.86 87 30.72 87 11 87 C11 77.1 11 67.2 11 57 C7.37 57 3.74 57 0 57 C0 38.19 0 19.38 0 0 Z " fill="#FE9905" transform="translate(1340,330)"/>
<path d="M0 0 C18.15 0 36.3 0 55 0 C55 56.43 55 112.86 55 171 C54.67 171 54.34 171 54 171 C54 133.38 54 95.76 54 57 C36.51 57 19.02 57 1 57 C1 94.62 1 132.24 1 171 C0.67 171 0.34 171 0 171 C0 114.57 0 58.14 0 0 Z " fill="#FFCF89" transform="translate(1205,216)"/>
<path d="M0 0 C17.82 0 35.64 0 54 0 C54 18.81 54 37.62 54 57 C36.51 57 19.02 57 1 57 C1 94.62 1 132.24 1 171 C0.67 171 0.34 171 0 171 C0 114.57 0 58.14 0 0 Z " fill="#FFD08A" transform="translate(426,216)"/>
<path d="M0 0 C8.58 0 17.16 0 26 0 C26 18.81 26 37.62 26 57 C23.36 57 20.72 57 18 57 C18 64.59 18 72.18 18 80 C76.74 80 135.48 80 196 80 C196 72.41 196 64.82 196 57 C196.99 57 197.98 57 199 57 C199 65.58 199 74.16 199 83 C138.28 83 77.56 83 15 83 C15 74.42 15 65.84 15 57 C13.68 57 12.36 57 11 57 C11 66.9 11 76.8 11 87 C74.36 87 137.72 87 203 87 C203 77.1 203 67.2 203 57 C203.99 57 204.98 57 206 57 C206 68.22 206 79.44 206 91 C140.66 91 75.32 91 8 91 C8 79.78 8 68.56 8 57 C5.36 57 2.72 57 0 57 C0 38.19 0 19.38 0 0 Z " fill="#FF9800" transform="translate(427,330)"/>
<path d="M0 0 C17.82 0 35.64 0 54 0 C54 18.81 54 37.62 54 57 C36.18 57 18.36 57 0 57 C0 38.19 0 19.38 0 0 Z " fill="#FFB347" transform="translate(910,273)"/>
<path d="M0 0 C17.49 0 34.98 0 53 0 C53 18.81 53 37.62 53 57 C44.42 57 35.84 57 27 57 C27 75.81 27 94.62 27 114 C26.67 114 26.34 114 26 114 C26 95.19 26 76.38 26 57 C17.42 57 8.84 57 0 57 C0 38.19 0 19.38 0 0 Z " fill="#FFB346" transform="translate(427,273)"/>
<path d="M0 0 C17.82 0 35.64 0 54 0 C54 18.81 54 37.62 54 57 C36.18 57 18.36 57 0 57 C0 38.19 0 19.38 0 0 Z " fill="#FFD08A" transform="translate(910,216)"/>
<path d="M0 0 C17.82 0 35.64 0 54 0 C54 18.81 54 37.62 54 57 C36.18 57 18.36 57 0 57 C0 38.19 0 19.38 0 0 Z " fill="#FFD08A" transform="translate(722,216)"/>
<path d="M0 0 C17.49 0 34.98 0 53 0 C53 18.81 53 37.62 53 57 C35.51 57 18.02 57 0 57 C0 38.19 0 19.38 0 0 Z " fill="#FFB347" transform="translate(1421,273)"/>
<path d="M0 0 C17.49 0 34.98 0 53 0 C53 18.81 53 37.62 53 57 C35.51 57 18.02 57 0 57 C0 38.19 0 19.38 0 0 Z " fill="#FFB347" transform="translate(991,273)"/>
<path d="M0 0 C17.49 0 34.98 0 53 0 C53 18.81 53 37.62 53 57 C35.51 57 18.02 57 0 57 C0 38.19 0 19.38 0 0 Z " fill="#FFB347" transform="translate(642,273)"/>
<path d="M0 0 C17.49 0 34.98 0 53 0 C53 18.81 53 37.62 53 57 C35.51 57 18.02 57 0 57 C0 38.19 0 19.38 0 0 Z " fill="#FFD08A" transform="translate(1582,216)"/>
<path d="M0 0 C8.58 0 17.16 0 26 0 C26 7.59 26 15.18 26 23 C31.94 23 37.88 23 44 23 C44 34.22 44 45.44 44 57 C43.01 57 42.02 57 41 57 C41 66.9 41 76.8 41 87 C-22.36 87 -85.72 87 -151 87 C-151 77.1 -151 67.2 -151 57 C-149.68 57 -148.36 57 -147 57 C-147 65.58 -147 74.16 -147 83 C-86.28 83 -25.56 83 37 83 C37 74.42 37 65.84 37 57 C36.01 57 35.02 57 34 57 C34 49.41 34 41.82 34 34 C31.36 34 28.72 34 26 34 C26 41.59 26 49.18 26 57 C17.42 57 8.84 57 0 57 C0 38.19 0 19.38 0 0 Z " fill="#FF9800" transform="translate(589,330)"/>
<path d="M0 0 C17.49 0 34.98 0 53 0 C53 7.59 53 15.18 53 23 C37.82 23 22.64 23 7 23 C7 60.62 7 98.24 7 137 C-7.19 137 -21.38 137 -36 137 C-36 129.41 -36 121.82 -36 114 C-24.12 114 -12.24 114 0 114 C0 76.38 0 38.76 0 0 Z " fill="#FEFDFC" transform="translate(1260,273)"/>
<path d="M0 0 C17.49 0 34.98 0 53 0 C53 7.59 53 15.18 53 23 C37.82 23 22.64 23 7 23 C7 60.62 7 98.24 7 137 C-6.86 137 -20.72 137 -35 137 C-35 129.41 -35 121.82 -35 114 C-23.45 114 -11.9 114 0 114 C0 76.38 0 38.76 0 0 Z " fill="#FEFEFD" transform="translate(1045,273)"/>
<path d="M0 0 C2.31 0 4.62 0 7 0 C7 90.42 7 180.84 7 274 C-7.19 274 -21.38 274 -36 274 C-36 266.41 -36 258.82 -36 251 C-24.12 251 -12.24 251 0 251 C0 168.17 0 85.34 0 0 Z " fill="#FEFEFD" transform="translate(1475,136)"/>
<path d="M0 0 C2.31 0 4.62 0 7 0 C7 90.42 7 180.84 7 274 C-7.19 274 -21.38 274 -36 274 C-36 266.41 -36 258.82 -36 251 C-24.12 251 -12.24 251 0 251 C0 168.17 0 85.34 0 0 Z " fill="#FEFEFD" transform="translate(696,136)"/>
<path d="M0 0 C0.99 0 1.98 0 3 0 C3 48.84 3 97.68 3 148 C-18.12 148 -39.24 148 -61 148 C-61 136.78 -61 125.56 -61 114 C-63.64 114 -66.28 114 -69 114 C-69 95.19 -69 76.38 -69 57 C-60.42 57 -51.84 57 -43 57 C-43 75.81 -43 94.62 -43 114 C-45.64 114 -48.28 114 -51 114 C-51 121.59 -51 129.18 -51 137 C-36.48 137 -21.96 137 -7 137 C-7 110.6 -7 84.2 -7 57 C-6.01 57 -5.02 57 -4 57 C-4 84.39 -4 111.78 -4 140 C-20.5 140 -37 140 -54 140 C-54 131.42 -54 122.84 -54 114 C-55.32 114 -56.64 114 -58 114 C-58 123.9 -58 133.8 -58 144 C-38.86 144 -19.72 144 0 144 C0 96.48 0 48.96 0 0 Z " fill="#FF9800" transform="translate(1651,273)"/>
<path d="M0 0 C8.25 0 16.5 0 25 0 C25 7.59 25 15.18 25 23 C19.06 23 13.12 23 7 23 C7 79.43 7 135.86 7 194 C-7.19 194 -21.38 194 -36 194 C-36 186.41 -36 178.82 -36 171 C-24.12 171 -12.24 171 0 171 C0 114.57 0 58.14 0 0 Z " fill="#FEFDFB" transform="translate(777,216)"/>
<path d="M0 0 C8.58 0 17.16 0 26 0 C26 18.81 26 37.62 26 57 C23.36 57 20.72 57 18 57 C18 64.59 18 72.18 18 80 C32.52 80 47.04 80 62 80 C62 53.6 62 27.2 62 0 C62.99 0 63.98 0 65 0 C65 27.39 65 54.78 65 83 C48.5 83 32 83 15 83 C15 74.42 15 65.84 15 57 C13.68 57 12.36 57 11 57 C11 66.9 11 76.8 11 87 C30.14 87 49.28 87 69 87 C69 58.29 69 29.58 69 0 C69.99 0 70.98 0 72 0 C72 30.03 72 60.06 72 91 C50.88 91 29.76 91 8 91 C8 79.78 8 68.56 8 57 C5.36 57 2.72 57 0 57 C0 38.19 0 19.38 0 0 Z " fill="#FF9800" transform="translate(1206,330)"/>
<path d="M0 0 C8.58 0 17.16 0 26 0 C26 7.59 26 15.18 26 23 C31.94 23 37.88 23 44 23 C44 45.44 44 67.88 44 91 C22.88 91 1.76 91 -20 91 C-20 79.78 -20 68.56 -20 57 C-19.01 57 -18.02 57 -17 57 C-17 66.9 -17 76.8 -17 87 C2.14 87 21.28 87 41 87 C41 66.87 41 46.74 41 26 C36.05 26 31.1 26 26 26 C26 27.32 26 28.64 26 30 C29.63 30 33.26 30 37 30 C37 47.49 37 64.98 37 83 C20.83 83 4.66 83 -12 83 C-12 74.42 -12 65.84 -12 57 C-11.34 57 -10.68 57 -10 57 C-10 64.59 -10 72.18 -10 80 C4.52 80 19.04 80 34 80 C34 64.82 34 49.64 34 34 C31.36 34 28.72 34 26 34 C26 41.59 26 49.18 26 57 C17.42 57 8.84 57 0 57 C0 38.19 0 19.38 0 0 Z " fill="#FF9800" transform="translate(1368,330)"/>
<path d="M0 0 C2.64 0 5.28 0 8 0 C8 15.18 8 30.36 8 46 C-0.91 46 -9.82 46 -19 46 C-19 64.81 -19 83.62 -19 103 C-27.91 103 -36.82 103 -46 103 C-46 114.22 -46 125.44 -46 137 C-48.31 137 -50.62 137 -53 137 C-53 118.19 -53 99.38 -53 80 C-44.42 80 -35.84 80 -27 80 C-27 61.19 -27 42.38 -27 23 C-18.09 23 -9.18 23 0 23 C0 15.41 0 7.82 0 0 Z " fill="#FFFDFC" transform="translate(1179,136)"/>
<path d="M0 0 C0.33 0 0.66 0 1 0 C1 7.59 1 15.18 1 23 C7.27 23 13.54 23 20 23 C20 45.44 20 67.88 20 91 C13.4 91 6.8 91 0 91 C0 90.01 0 89.02 0 88 C-13.53 88 -27.06 88 -41 88 C-41 77.77 -41 67.54 -41 57 C-40.01 57 -39.02 57 -38 57 C-38 65.58 -38 74.16 -38 83 C-21.5 83 -5 83 12 83 C12 65.84 12 48.68 12 31 C8.37 31 4.74 31 1 31 C1 31.99 1 32.98 1 34 C3.64 34 6.28 34 9 34 C9 49.18 9 64.36 9 80 C-5.19 80 -19.38 80 -34 80 C-34 72.41 -34 64.82 -34 57 C-22.78 57 -11.56 57 0 57 C0 38.19 0 19.38 0 0 Z " fill="#FEFDFB" transform="translate(1178,330)"/>
<path d="M0 0 C2.31 0 4.62 0 7 0 C7 14.85 7 29.7 7 45 C-1.58 45 -10.16 45 -19 45 C-19 64.14 -19 83.28 -19 103 C-27.91 103 -36.82 103 -46 103 C-46 114.22 -46 125.44 -46 137 C-48.31 137 -50.62 137 -53 137 C-53 118.19 -53 99.38 -53 80 C-44.42 80 -35.84 80 -27 80 C-27 61.19 -27 42.38 -27 23 C-18.09 23 -9.18 23 0 23 C0 15.41 0 7.82 0 0 Z " fill="#FFFEFC" transform="translate(1394,136)"/>
<path d="M0 0 C8.91 0 17.82 0 27 0 C27 7.59 27 15.18 27 23 C32.94 23 38.88 23 45 23 C45 34.22 45 45.44 45 57 C30.15 57 15.3 57 0 57 C0 38.19 0 19.38 0 0 Z " fill="#FFD08C" transform="translate(830,216)"/>
<path d="M0 0 C8.58 0 17.16 0 26 0 C26 7.59 26 15.18 26 23 C32.27 23 38.54 23 45 23 C45 34.22 45 45.44 45 57 C30.15 57 15.3 57 0 57 C0 38.19 0 19.38 0 0 Z " fill="#FFB347" transform="translate(1341,273)"/>
<path d="M0 0 C8.58 0 17.16 0 26 0 C26 7.59 26 15.18 26 23 C32.27 23 38.54 23 45 23 C45 34.22 45 45.44 45 57 C30.15 57 15.3 57 0 57 C0 38.19 0 19.38 0 0 Z " fill="#FFB347" transform="translate(1126,273)"/>
<path d="M0 0 C8.91 0 17.82 0 27 0 C27 26.4 27 52.8 27 80 C24.03 80 21.06 80 18 80 C18 72.41 18 64.82 18 57 C17.34 57 16.68 57 16 57 C16 65.58 16 74.16 16 83 C19.63 83 23.26 83 27 83 C27 84.32 27 85.64 27 87 C21.72 87 16.44 87 11 87 C11 77.1 11 67.2 11 57 C7.37 57 3.74 57 0 57 C0 38.19 0 19.38 0 0 Z " fill="#FFB348" transform="translate(212,273)"/>
<path d="M0 0 C0.99 0 1.98 0 3 0 C3 18.81 3 37.62 3 57 C4.32 57 5.64 57 7 57 C7 38.19 7 19.38 7 0 C7.99 0 8.98 0 10 0 C10 18.81 10 37.62 10 57 C12.97 57 15.94 57 19 57 C19 75.81 19 94.62 19 114 C10.09 114 1.18 114 -8 114 C-8 95.19 -8 76.38 -8 57 C-5.36 57 -2.72 57 0 57 C0 38.19 0 19.38 0 0 Z " fill="#FF9801" transform="translate(274,273)"/>
<path d="M0 0 C8.91 0 17.82 0 27 0 C27 37.62 27 75.24 27 114 C26.67 114 26.34 114 26 114 C26 95.19 26 76.38 26 57 C17.42 57 8.84 57 0 57 C0 38.19 0 19.38 0 0 Z " fill="#FFB44A" transform="translate(1609,273)"/>
<path d="M0 0 C8.91 0 17.82 0 27 0 C27 18.81 27 37.62 27 57 C18.09 57 9.18 57 0 57 C0 38.19 0 19.38 0 0 Z " fill="#FF9801" transform="translate(454,330)"/>
<path d="M0 0 C8.58 0 17.16 0 26 0 C26 18.81 26 37.62 26 57 C17.42 57 8.84 57 0 57 C0 38.19 0 19.38 0 0 Z " fill="#FF9800" transform="translate(1609,330)"/>
<path d="M0 0 C8.58 0 17.16 0 26 0 C26 18.81 26 37.62 26 57 C17.42 57 8.84 57 0 57 C0 38.19 0 19.38 0 0 Z " fill="#FF9800" transform="translate(1233,330)"/>
<path d="M0 0 C8.58 0 17.16 0 26 0 C26 18.81 26 37.62 26 57 C17.42 57 8.84 57 0 57 C0 38.19 0 19.38 0 0 Z " fill="#FF9800" transform="translate(750,330)"/>
<path d="M0 0 C8.58 0 17.16 0 26 0 C26 18.81 26 37.62 26 57 C17.42 57 8.84 57 0 57 C0 38.19 0 19.38 0 0 Z " fill="#FFB347" transform="translate(239,273)"/>
<path d="M0 0 C20.13 0 40.26 0 61 0 C61 7.59 61 15.18 61 23 C40.87 23 20.74 23 0 23 C0 15.41 0 7.82 0 0 Z " fill="#FFFEFD" transform="translate(1520,159)"/>
<path d="M0 0 C2.31 0 4.62 0 7 0 C7 64.02 7 128.04 7 194 C4.69 194 2.38 194 0 194 C0 129.98 0 65.96 0 0 Z " fill="#FFFFFF" transform="translate(481,136)"/>
<path d="M0 0 C4.95 0 9.9 0 15 0 C15 95.37 15 190.74 15 289 C-21.63 289 -58.26 289 -96 289 C-96 279.1 -96 269.2 -96 259 C-94.68 259 -93.36 259 -92 259 C-92 267.91 -92 276.82 -92 286 C-57.68 286 -23.36 286 12 286 C12 192.94 12 99.88 12 4 C8.04 4 4.08 4 0 4 C0 2.68 0 1.36 0 0 Z " fill="#FEFBF7" transform="translate(964,128)"/>
<path d="M0 0 C4.62 0 9.24 0 14 0 C14 19.8 14 39.6 14 60 C-12.73 60 -39.46 60 -67 60 C-67 135.24 -67 210.48 -67 288 C-85.81 288 -104.62 288 -124 288 C-124 278.1 -124 268.2 -124 258 C-122.68 258 -121.36 258 -120 258 C-120 266.58 -120 275.16 -120 284 C-103.17 284 -86.34 284 -69 284 C-69 209.09 -69 134.18 -69 57 C-42.6 57 -16.2 57 11 57 C11 39.18 11 21.36 11 3 C7.37 3 3.74 3 0 3 C0 2.01 0 1.02 0 0 Z " fill="#FEFAF7" transform="translate(1717,129)"/>
<path d="M0 0 C4.62 0 9.24 0 14 0 C14 95.04 14 190.08 14 288 C-4.81 288 -23.62 288 -43 288 C-43 278.1 -43 268.2 -43 258 C-41.68 258 -40.36 258 -39 258 C-39 266.58 -39 275.16 -39 284 C-22.5 284 -6 284 11 284 C11 191.27 11 98.54 11 3 C7.37 3 3.74 3 0 3 C0 2.01 0 1.02 0 0 Z " fill="#FEF7EF" transform="translate(1475,129)"/>
<path d="M0 0 C4.62 0 9.24 0 14 0 C14 95.04 14 190.08 14 288 C-4.81 288 -23.62 288 -43 288 C-43 278.1 -43 268.2 -43 258 C-41.68 258 -40.36 258 -39 258 C-39 266.58 -39 275.16 -39 284 C-22.5 284 -6 284 11 284 C11 191.27 11 98.54 11 3 C7.37 3 3.74 3 0 3 C0 2.01 0 1.02 0 0 Z " fill="#FEF7EF" transform="translate(696,129)"/>
<path d="M0 0 C2.64 0 5.28 0 8 0 C8 15.18 8 30.36 8 46 C-6.19 46 -20.38 46 -35 46 C-35 38.41 -35 30.82 -35 23 C-23.45 23 -11.9 23 0 23 C0 15.41 0 7.82 0 0 Z " fill="#FEFCF9" transform="translate(1394,364)"/>
<path d="M0 0 C4.95 0 9.9 0 15 0 C15 20.13 15 40.26 15 61 C-48.36 61 -111.72 61 -177 61 C-177 51.1 -177 41.2 -177 31 C-175.68 31 -174.36 31 -173 31 C-173 39.58 -173 48.16 -173 57 C-112.28 57 -51.56 57 11 57 C11 39.51 11 22.02 11 4 C7.37 4 3.74 4 0 4 C0 2.68 0 1.36 0 0 Z " fill="#FEEFE0" transform="translate(615,356)"/>
<path d="M0 0 C1.32 0 2.64 0 4 0 C4 48.84 4 97.68 4 148 C-34.94 148 -73.88 148 -114 148 C-114 136.78 -114 125.56 -114 114 C-113.01 114 -112.02 114 -111 114 C-111 123.9 -111 133.8 -111 144 C-74.37 144 -37.74 144 0 144 C0 96.48 0 48.96 0 0 Z " fill="#F57C00" transform="translate(979,273)"/>
<path d="M0 0 C0.33 0 0.66 0 1 0 C1 7.59 1 15.18 1 23 C7.27 23 13.54 23 20 23 C20 45.44 20 67.88 20 91 C13.4 91 6.8 91 0 91 C0 90.01 0 89.02 0 88 C-13.53 88 -27.06 88 -41 88 C-41 77.77 -41 67.54 -41 57 C-40.01 57 -39.02 57 -38 57 C-38 65.58 -38 74.16 -38 83 C-21.5 83 -5 83 12 83 C12 65.84 12 48.68 12 31 C8.37 31 4.74 31 1 31 C1 39.58 1 48.16 1 57 C0.67 57 0.34 57 0 57 C0 38.19 0 19.38 0 0 Z " fill="#FAA23C" transform="translate(1178,330)"/>
<path d="M0 0 C4.95 0 9.9 0 15 0 C15 19.8 15 39.6 15 60 C-29.55 60 -74.1 60 -120 60 C-120 106.53 -120 153.06 -120 201 C-120.66 201 -121.32 201 -122 201 C-122 153.48 -122 105.96 -122 57 C-77.78 57 -33.56 57 12 57 C12 39.18 12 21.36 12 3 C8.04 3 4.08 3 0 3 C0 2.01 0 1.02 0 0 Z " fill="#FFFEFD" transform="translate(400,129)"/>
<path d="M0 0 C13.86 0 27.72 0 42 0 C42 1.32 42 2.64 42 4 C29.13 4 16.26 4 3 4 C3 41.62 3 79.24 3 118 C-15.81 118 -34.62 118 -54 118 C-54 108.1 -54 98.2 -54 88 C-52.68 88 -51.36 88 -50 88 C-50 96.58 -50 105.16 -50 114 C-33.5 114 -17 114 0 114 C0 76.38 0 38.76 0 0 Z " fill="#FEF4E9" transform="translate(1271,299)"/>
<path d="M0 0 C4.95 0 9.9 0 15 0 C15 19.8 15 39.6 15 60 C-39.45 60 -93.9 60 -150 60 C-150 50.1 -150 40.2 -150 30 C-148.68 30 -147.36 30 -146 30 C-146 38.91 -146 47.82 -146 57 C-93.86 57 -41.72 57 12 57 C12 39.18 12 21.36 12 3 C8.04 3 4.08 3 0 3 C0 2.01 0 1.02 0 0 Z " fill="#FEFBF8" transform="translate(400,357)"/>
<path d="M0 0 C13.86 0 27.72 0 42 0 C42 1.32 42 2.64 42 4 C29.13 4 16.26 4 3 4 C3 41.62 3 79.24 3 118 C-15.48 118 -33.96 118 -53 118 C-53 108.1 -53 98.2 -53 88 C-52.01 88 -51.02 88 -50 88 C-50 96.58 -50 105.16 -50 114 C-33.5 114 -17 114 0 114 C0 76.38 0 38.76 0 0 Z " fill="#FEF6EC" transform="translate(1056,299)"/>
<path d="M0 0 C4.62 0 9.24 0 14 0 C14 0.99 14 1.98 14 3 C10.37 3 6.74 3 3 3 C3 59.43 3 115.86 3 174 C-15.81 174 -34.62 174 -54 174 C-54 164.1 -54 154.2 -54 144 C-53.01 144 -52.02 144 -51 144 C-51 152.91 -51 161.82 -51 171 C-34.17 171 -17.34 171 0 171 C0 114.57 0 58.14 0 0 Z " fill="#FEFDFA" transform="translate(788,243)"/>
<path d="M0 0 C0.99 0 1.98 0 3 0 C3 46.2 3 92.4 3 140 C-30.99 140 -64.98 140 -100 140 C-100 131.42 -100 122.84 -100 114 C-99.01 114 -98.02 114 -97 114 C-97 121.59 -97 129.18 -97 137 C-64.99 137 -32.98 137 0 137 C0 91.79 0 46.58 0 0 Z " fill="#F57D02" transform="translate(972,273)"/>
<path d="M0 0 C0.99 0 1.98 0 3 0 C3 48.84 3 97.68 3 148 C-18.12 148 -39.24 148 -61 148 C-61 136.78 -61 125.56 -61 114 C-60.01 114 -59.02 114 -58 114 C-58 123.9 -58 133.8 -58 144 C-38.86 144 -19.72 144 0 144 C0 96.48 0 48.96 0 0 Z " fill="#F57C01" transform="translate(1651,273)"/>
<path d="M0 0 C0.99 0 1.98 0 3 0 C3 48.84 3 97.68 3 148 C-18.12 148 -39.24 148 -61 148 C-61 136.78 -61 125.56 -61 114 C-60.01 114 -59.02 114 -58 114 C-58 123.9 -58 133.8 -58 144 C-38.86 144 -19.72 144 0 144 C0 96.48 0 48.96 0 0 Z " fill="#F58716" transform="translate(1490,273)"/>
<path d="M0 0 C0.99 0 1.98 0 3 0 C3 48.84 3 97.68 3 148 C-18.12 148 -39.24 148 -61 148 C-61 136.78 -61 125.56 -61 114 C-60.01 114 -59.02 114 -58 114 C-58 123.9 -58 133.8 -58 144 C-38.86 144 -19.72 144 0 144 C0 96.48 0 48.96 0 0 Z " fill="#F58716" transform="translate(711,273)"/>
<path d="M0 0 C0.33 0 0.66 0 1 0 C1 18.81 1 37.62 1 57 C0.67 57 0.34 57 0 57 C0 49.41 0 41.82 0 34 C-11.55 34 -23.1 34 -35 34 C-35 41.59 -35 49.18 -35 57 C-35.99 57 -36.98 57 -38 57 C-38 85.71 -38 114.42 -38 144 C-38.33 144 -38.66 144 -39 144 C-39 106.38 -39 68.76 -39 30 C-26.13 30 -13.26 30 0 30 C0 28.68 0 27.36 0 26 C-13.86 26 -27.72 26 -42 26 C-42 36.23 -42 46.46 -42 57 C-42.99 57 -43.98 57 -45 57 C-45 83.4 -45 109.8 -45 137 C-45.33 137 -45.66 137 -46 137 C-46 99.38 -46 61.76 -46 23 C-30.82 23 -15.64 23 0 23 C0 15.41 0 7.82 0 0 Z " fill="#FEBE66" transform="translate(1313,273)"/>
<path d="M0 0 C0.33 0 0.66 0 1 0 C1 18.81 1 37.62 1 57 C0.67 57 0.34 57 0 57 C0 49.41 0 41.82 0 34 C-11.55 34 -23.1 34 -35 34 C-35 41.59 -35 49.18 -35 57 C-35.99 57 -36.98 57 -38 57 C-38 85.71 -38 114.42 -38 144 C-38.33 144 -38.66 144 -39 144 C-39 106.38 -39 68.76 -39 30 C-26.13 30 -13.26 30 0 30 C0 28.68 0 27.36 0 26 C-13.86 26 -27.72 26 -42 26 C-42 36.23 -42 46.46 -42 57 C-42.99 57 -43.98 57 -45 57 C-45 83.4 -45 109.8 -45 137 C-45.33 137 -45.66 137 -46 137 C-46 99.38 -46 61.76 -46 23 C-30.82 23 -15.64 23 0 23 C0 15.41 0 7.82 0 0 Z " fill="#FEBF66" transform="translate(1098,273)"/>
<path d="M0 0 C3.63 0 7.26 0 11 0 C11 17.16 11 34.32 11 52 C-40.81 52 -92.62 52 -146 52 C-146 43.42 -146 34.84 -146 26 C-145.01 26 -144.02 26 -143 26 C-143 33.59 -143 41.18 -143 49 C-93.17 49 -43.34 49 8 49 C8 33.82 8 18.64 8 3 C5.36 3 2.72 3 0 3 C0 2.01 0 1.02 0 0 Z " fill="#F57C01" transform="translate(400,361)"/>
<path d="M0 0 C0.33 0 0.66 0 1 0 C1 7.59 1 15.18 1 23 C7.27 23 13.54 23 20 23 C20 34.22 20 45.44 20 57 C13.4 57 6.8 57 0 57 C0 38.19 0 19.38 0 0 Z " fill="#FFC471" transform="translate(1366,273)"/>
<path d="M0 0 C0.33 0 0.66 0 1 0 C1 7.59 1 15.18 1 23 C7.27 23 13.54 23 20 23 C20 34.22 20 45.44 20 57 C13.4 57 6.8 57 0 57 C0 38.19 0 19.38 0 0 Z " fill="#FFC16A" transform="translate(1151,273)"/>
<path d="M0 0 C0.99 0 1.98 0 3 0 C3 7.59 3 15.18 3 23 C61.74 23 120.48 23 181 23 C181 15.41 181 7.82 181 0 C181.99 0 182.98 0 184 0 C184 8.58 184 17.16 184 26 C123.28 26 62.56 26 0 26 C0 17.42 0 8.84 0 0 Z " fill="#F57C01" transform="translate(442,387)"/>
<path d="M0 0 C4.62 0 9.24 0 14 0 C14 66.33 14 132.66 14 201 C13.01 201 12.02 201 11 201 C11 135.66 11 70.32 11 3 C7.37 3 3.74 3 0 3 C0 2.01 0 1.02 0 0 Z " fill="#FFFBF6" transform="translate(481,129)"/>
<path d="M0 0 C4.95 0 9.9 0 15 0 C15 19.8 15 39.6 15 60 C6.09 60 -2.82 60 -12 60 C-12 78.81 -12 97.62 -12 117 C-20.91 117 -29.82 117 -39 117 C-39 125.91 -39 134.82 -39 144 C-39.99 144 -40.98 144 -42 144 C-42 134.1 -42 124.2 -42 114 C-33.09 114 -24.18 114 -15 114 C-15 95.19 -15 76.38 -15 57 C-6.09 57 2.82 57 12 57 C12 39.18 12 21.36 12 3 C8.04 3 4.08 3 0 3 C0 2.01 0 1.02 0 0 Z " fill="#FFFDFB" transform="translate(1179,129)"/>
<path d="M0 0 C0.99 0 1.98 0 3 0 C3 30.03 3 60.06 3 91 C-18.12 91 -39.24 91 -61 91 C-61 79.78 -61 68.56 -61 57 C-60.01 57 -59.02 57 -58 57 C-58 66.9 -58 76.8 -58 87 C-38.86 87 -19.72 87 0 87 C0 58.29 0 29.58 0 0 Z " fill="#F57C01" transform="translate(1275,330)"/>
<path d="M0 0 C0.99 0 1.98 0 3 0 C3 30.03 3 60.06 3 91 C-18.12 91 -39.24 91 -61 91 C-61 79.78 -61 68.56 -61 57 C-60.01 57 -59.02 57 -58 57 C-58 66.9 -58 76.8 -58 87 C-38.86 87 -19.72 87 0 87 C0 58.29 0 29.58 0 0 Z " fill="#F57C01" transform="translate(1060,330)"/>
<path d="M0 0 C4.95 0 9.9 0 15 0 C15 20.13 15 40.26 15 61 C-3.81 61 -22.62 61 -42 61 C-42 51.1 -42 41.2 -42 31 C-41.01 31 -40.02 31 -39 31 C-39 39.58 -39 48.16 -39 57 C-22.5 57 -6 57 11 57 C11 39.51 11 22.02 11 4 C7.37 4 3.74 4 0 4 C0 2.68 0 1.36 0 0 Z " fill="#FEF1E3" transform="translate(1394,356)"/>
<path d="M0 0 C4.62 0 9.24 0 14 0 C14 19.8 14 39.6 14 60 C5.42 60 -3.16 60 -12 60 C-12 78.81 -12 97.62 -12 117 C-20.91 117 -29.82 117 -39 117 C-39 125.91 -39 134.82 -39 144 C-39.99 144 -40.98 144 -42 144 C-42 134.1 -42 124.2 -42 114 C-33.09 114 -24.18 114 -15 114 C-15 95.19 -15 76.38 -15 57 C-6.09 57 2.82 57 12 57 C12 39.18 12 21.36 12 3 C8.04 3 4.08 3 0 3 C0 2.01 0 1.02 0 0 Z " fill="#FFFDFC" transform="translate(1394,129)"/>
<path d="M0 0 C2.31 0 4.62 0 7 0 C7 26.4 7 52.8 7 80 C4.69 80 2.38 80 0 80 C0 53.6 0 27.2 0 0 Z " fill="#FFFFFF" transform="translate(1260,136)"/>
<path d="M0 0 C2.31 0 4.62 0 7 0 C7 26.4 7 52.8 7 80 C4.69 80 2.38 80 0 80 C0 53.6 0 27.2 0 0 Z " fill="#FFFFFF" transform="translate(1045,136)"/>
<path d="M0 0 C0.33 0 0.66 0 1 0 C1 7.59 1 15.18 1 23 C7.27 23 13.54 23 20 23 C20 45.44 20 67.88 20 91 C19.67 91 19.34 91 19 91 C19 79.78 19 68.56 19 57 C18.34 57 17.68 57 17 57 C17 66.9 17 76.8 17 87 C16.67 87 16.34 87 16 87 C16 67.2 16 47.4 16 27 C11.05 27 6.1 27 1 27 C1 27.99 1 28.98 1 30 C4.96 30 8.92 30 13 30 C13 47.82 13 65.64 13 84 C-39.14 84 -91.28 84 -145 84 C-145 83.67 -145 83.34 -145 83 C-93.19 83 -41.38 83 12 83 C12 65.84 12 48.68 12 31 C8.37 31 4.74 31 1 31 C1 39.58 1 48.16 1 57 C0.67 57 0.34 57 0 57 C0 38.19 0 19.38 0 0 Z " fill="#FCAF4B" transform="translate(399,330)"/>
<path d="M0 0 C0.66 0 1.32 0 2 0 C2 11.22 2 22.44 2 34 C-48.16 34 -98.32 34 -150 34 C-150 33.01 -150 32.02 -150 31 C-100.83 30.67 -51.66 30.34 -1 30 C-0.67 20.1 -0.34 10.2 0 0 Z " fill="#F57C00" transform="translate(416,387)"/>
<path d="M0 0 C5.28 0 10.56 0 16 0 C16 10.23 16 20.46 16 31 C10.72 31 5.44 31 0 31 C0 20.77 0 10.54 0 0 Z " fill="#FFC26C" transform="translate(883,299)"/>
<path d="M0 0 C0.99 0 1.98 0 3 0 C3 37.62 3 75.24 3 114 C2.01 114 1.02 114 0 114 C0 140.4 0 166.8 0 194 C-0.33 194 -0.66 194 -1 194 C-1.02380674 177.12185176 -1.04120536 160.24370931 -1.05181217 143.36554813 C-1.0568772 135.52128077 -1.06374949 127.67702418 -1.07543945 119.83276367 C-1.13382114 79.87518048 -0.89327955 39.94952075 0 0 Z " fill="#FEBB5E" transform="translate(1644,216)"/>
<path d="M0 0 C0.99 0 1.98 0 3 0 C3 37.62 3 75.24 3 114 C2.01 114 1.02 114 0 114 C0 140.4 0 166.8 0 194 C-0.33 194 -0.66 194 -1 194 C-1.02380674 177.12185176 -1.04120536 160.24370931 -1.05181217 143.36554813 C-1.0568772 135.52128077 -1.06374949 127.67702418 -1.07543945 119.83276367 C-1.13382114 79.87518048 -0.89327955 39.94952075 0 0 Z " fill="#FEBB5E" transform="translate(1483,216)"/>
<path d="M0 0 C0.99 0 1.98 0 3 0 C3 37.62 3 75.24 3 114 C2.01 114 1.02 114 0 114 C0 140.4 0 166.8 0 194 C-0.33 194 -0.66 194 -1 194 C-1.02380674 177.12185176 -1.04120536 160.24370931 -1.05181217 143.36554813 C-1.0568772 135.52128077 -1.06374949 127.67702418 -1.07543945 119.83276367 C-1.13382114 79.87518048 -0.89327955 39.94952075 0 0 Z " fill="#FEBB5E" transform="translate(704,216)"/>
<path d="M0 0 C1.32 0 2.64 0 4 0 C4 65.34 4 130.68 4 198 C-30.32 198 -64.64 198 -100 198 C-100 197.67 -100 197.34 -100 197 C-66.01 197 -32.02 197 3 197 C3 150.8 3 104.6 3 57 C2.01 57 1.02 57 0 57 C0 38.19 0 19.38 0 0 Z " fill="#FDCC8A" transform="translate(972,216)"/>
<path d="M0 0 C0.99 0 1.98 0 3 0 C3 11.22 3 22.44 3 34 C-38.25 34 -79.5 34 -122 34 C-122 33.01 -122 32.02 -122 31 C-81.74 31 -41.48 31 0 31 C0 20.77 0 10.54 0 0 Z " fill="#F57C01" transform="translate(630,387)"/>
<path d="M0 0 C21.78 0 43.56 0 66 0 C66 0.33 66 0.66 66 1 C44.55 1 23.1 1 1 1 C1 9.58 1 18.16 1 27 C1.99 27 2.98 27 4 27 C4 45.81 4 64.62 4 84 C3.01 84 2.02 84 1 84 C1 131.52 1 179.04 1 228 C0.67 228 0.34 228 0 228 C0 152.76 0 77.52 0 0 Z " fill="#FEDFB3" transform="translate(1650,189)"/>
<path d="M0 0 C0.99 0 1.98 0 3 0 C3.85675893 35.35725605 4.09183454 70.69604965 4.0625 106.0625 C4.06164398 107.10186832 4.06078796 108.14123665 4.05990601 109.21210098 C4.04847046 122.14141775 4.02832905 135.0707096 4 148 C3.67 148 3.34 148 3 148 C3 136.78 3 125.56 3 114 C2.34 114 1.68 114 1 114 C1 123.9 1 133.8 1 144 C0.67 144 0.34 144 0 144 C0 96.48 0 48.96 0 0 Z " fill="#FDA021" transform="translate(791,273)"/>
<path d="M0 0 C0.99 0 1.98 0 3 0 C3 27.39 3 54.78 3 83 C-13.5 83 -30 83 -47 83 C-47 74.42 -47 65.84 -47 57 C-46.01 57 -45.02 57 -44 57 C-44 64.59 -44 72.18 -44 80 C-29.48 80 -14.96 80 0 80 C0 53.6 0 27.2 0 0 Z " fill="#F57D03" transform="translate(1644,330)"/>
<path d="M0 0 C0.99 0 1.98 0 3 0 C3 27.39 3 54.78 3 83 C-13.5 83 -30 83 -47 83 C-47 74.42 -47 65.84 -47 57 C-46.01 57 -45.02 57 -44 57 C-44 64.59 -44 72.18 -44 80 C-29.48 80 -14.96 80 0 80 C0 53.6 0 27.2 0 0 Z " fill="#F57D03" transform="translate(1483,330)"/>
<path d="M0 0 C0.99 0 1.98 0 3 0 C3 27.39 3 54.78 3 83 C-13.5 83 -30 83 -47 83 C-47 74.42 -47 65.84 -47 57 C-46.01 57 -45.02 57 -44 57 C-44 64.59 -44 72.18 -44 80 C-29.48 80 -14.96 80 0 80 C0 53.6 0 27.2 0 0 Z " fill="#F57D03" transform="translate(1268,330)"/>
<path d="M0 0 C4.95 0 9.9 0 15 0 C15 19.8 15 39.6 15 60 C-3.81 60 -22.62 60 -42 60 C-42 50.1 -42 40.2 -42 30 C-41.01 30 -40.02 30 -39 30 C-39 38.91 -39 47.82 -39 57 C-22.17 57 -5.34 57 12 57 C12 39.18 12 21.36 12 3 C8.04 3 4.08 3 0 3 C0 2.01 0 1.02 0 0 Z " fill="#FEFDFC" transform="translate(1179,357)"/>
<path d="M0 0 C0.99 0 1.98 0 3 0 C3 27.39 3 54.78 3 83 C-13.5 83 -30 83 -47 83 C-47 74.42 -47 65.84 -47 57 C-46.01 57 -45.02 57 -44 57 C-44 64.59 -44 72.18 -44 80 C-29.48 80 -14.96 80 0 80 C0 53.6 0 27.2 0 0 Z " fill="#F57D03" transform="translate(704,330)"/>
<path d="M0 0 C0.99 0 1.98 0 3 0 C3 9.9 3 19.8 3 30 C22.14 30 41.28 30 61 30 C61 20.1 61 10.2 61 0 C61.99 0 62.98 0 64 0 C64 11.22 64 22.44 64 34 C42.88 34 21.76 34 0 34 C0 22.78 0 11.56 0 0 Z " fill="#F57C01" transform="translate(1348,387)"/>
<path d="M0 0 C0.99 0 1.98 0 3 0 C3 27.39 3 54.78 3 83 C-13.17 83 -29.34 83 -46 83 C-46 74.42 -46 65.84 -46 57 C-45.34 57 -44.68 57 -44 57 C-44 64.59 -44 72.18 -44 80 C-29.48 80 -14.96 80 0 80 C0 53.6 0 27.2 0 0 Z " fill="#F57D02" transform="translate(1053,330)"/>
<path d="M0 0 C4.62 0 9.24 0 14 0 C14 9.9 14 19.8 14 30 C9.38 30 4.76 30 0 30 C0 20.1 0 10.2 0 0 Z " fill="#FFD393" transform="translate(857,243)"/>
<path d="M0 0 C0.66 0 1.32 0 2 0 C2 9.9 2 19.8 2 30 C21.47 30 40.94 30 61 30 C61 20.1 61 10.2 61 0 C61.66 0 62.32 0 63 0 C63 11.22 63 22.44 63 34 C42.21 34 21.42 34 0 34 C0 22.78 0 11.56 0 0 Z " fill="#F57C00" transform="translate(731,387)"/>
<path d="M0 0 C1.32 0 2.64 0 4 0 C4 18.81 4 37.62 4 57 C3.01 57 2.02 57 1 57 C1 104.52 1 152.04 1 201 C0.67 201 0.34 201 0 201 C0 134.67 0 68.34 0 0 Z " fill="#FED9A6" transform="translate(1489,216)"/>
<path d="M0 0 C1.32 0 2.64 0 4 0 C4 18.81 4 37.62 4 57 C3.01 57 2.02 57 1 57 C1 104.52 1 152.04 1 201 C0.67 201 0.34 201 0 201 C0 134.67 0 68.34 0 0 Z " fill="#FED9A6" transform="translate(710,216)"/>
<path d="M0 0 C0.33 0 0.66 0 1 0 C1 26.4 1 52.8 1 80 C1.99 80 2.98 80 4 80 C4 98.81 4 117.62 4 137 C3.01 137 2.02 137 1 137 C1 155.81 1 174.62 1 194 C0.67 194 0.34 194 0 194 C0 129.98 0 65.96 0 0 Z " fill="#FFDEB2" transform="translate(488,136)"/>
<path d="M0 0 C3.63 0 7.26 0 11 0 C11 17.16 11 34.32 11 52 C-5.17 52 -21.34 52 -38 52 C-38 43.42 -38 34.84 -38 26 C-37.34 26 -36.68 26 -36 26 C-36 33.59 -36 41.18 -36 49 C-21.48 49 -6.96 49 8 49 C8 33.82 8 18.64 8 3 C5.36 3 2.72 3 0 3 C0 2.01 0 1.02 0 0 Z " fill="#F57F05" transform="translate(1179,361)"/>
<path d="M0 0 C63.36 0 126.72 0 192 0 C192 0.33 192 0.66 192 1 C151.74 1 111.48 1 70 1 C70 1.99 70 2.98 70 4 C51.85 4 33.7 4 15 4 C15 3.01 15 2.02 15 1 C10.05 1 5.1 1 0 1 C0 0.67 0 0.34 0 0 Z " fill="#F7A148" transform="translate(438,417)"/>
<path d="M0 0 C0.99 0 1.98 0 3 0 C3 37.62 3 75.24 3 114 C2.01 114 1.02 114 0 114 C0 76.38 0 38.76 0 0 Z " fill="#FF9903" transform="translate(1651,273)"/>
<path d="M0 0 C0.99 0 1.98 0 3 0 C3 37.62 3 75.24 3 114 C2.01 114 1.02 114 0 114 C0 76.38 0 38.76 0 0 Z " fill="#FF9903" transform="translate(1490,273)"/>
<path d="M0 0 C0.99 0 1.98 0 3 0 C3 37.62 3 75.24 3 114 C2.01 114 1.02 114 0 114 C0 76.38 0 38.76 0 0 Z " fill="#FF9A07" transform="translate(972,273)"/>
<path d="M0 0 C0.99 0 1.98 0 3 0 C3 37.62 3 75.24 3 114 C2.01 114 1.02 114 0 114 C0 76.38 0 38.76 0 0 Z " fill="#FF9A07" transform="translate(784,273)"/>
<path d="M0 0 C0.99 0 1.98 0 3 0 C3 37.62 3 75.24 3 114 C2.01 114 1.02 114 0 114 C0 76.38 0 38.76 0 0 Z " fill="#FF9903" transform="translate(711,273)"/>
<path d="M0 0 C1.32 0 2.64 0 4 0 C4 11.22 4 22.44 4 34 C-4.91 34 -13.82 34 -23 34 C-23 41.59 -23 49.18 -23 57 C-24.32 57 -25.64 57 -27 57 C-27 48.09 -27 39.18 -27 30 C-18.09 30 -9.18 30 0 30 C0 20.1 0 10.2 0 0 Z " fill="#FFD392" transform="translate(1382,216)"/>
<path d="M0 0 C1.32 0 2.64 0 4 0 C4 8.91 4 17.82 4 27 C-4.91 27 -13.82 27 -23 27 C-23 36.9 -23 46.8 -23 57 C-24.32 57 -25.64 57 -27 57 C-27 45.78 -27 34.56 -27 23 C-18.09 23 -9.18 23 0 23 C0 15.41 0 7.82 0 0 Z " fill="#FFD79D" transform="translate(1375,216)"/>
<path d="M0 0 C1.32 0 2.64 0 4 0 C4 11.22 4 22.44 4 34 C-4.91 34 -13.82 34 -23 34 C-23 41.59 -23 49.18 -23 57 C-24.32 57 -25.64 57 -27 57 C-27 48.09 -27 39.18 -27 30 C-18.09 30 -9.18 30 0 30 C0 20.1 0 10.2 0 0 Z " fill="#FFD392" transform="translate(1167,216)"/>
<path d="M0 0 C1.32 0 2.64 0 4 0 C4 48.84 4 97.68 4 148 C3.67 148 3.34 148 3 148 C3 117.97 3 87.94 3 57 C2.01 57 1.02 57 0 57 C0 38.19 0 19.38 0 0 Z " fill="#FEB552" transform="translate(979,273)"/>
<path d="M0 0 C0.99 0 1.98 0 3 0 C3 9.9 3 19.8 3 30 C7.95 30 12.9 30 18 30 C18 29.01 18 28.02 18 27 C14.37 27 10.74 27 7 27 C7 18.09 7 9.18 7 0 C7.99 0 8.98 0 10 0 C10 7.59 10 15.18 10 23 C12.97 23 15.94 23 19 23 C19 34.22 19 45.44 19 57 C18.67 57 18.34 57 18 57 C18 49.41 18 41.82 18 34 C12.06 34 6.12 34 0 34 C0 22.78 0 11.56 0 0 Z " fill="#FFA41E" transform="translate(838,330)"/>
<path d="M0 0 C4.62 0 9.24 0 14 0 C14 28.71 14 57.42 14 87 C13.01 87 12.02 87 11 87 C11 59.28 11 31.56 11 3 C7.37 3 3.74 3 0 3 C0 2.01 0 1.02 0 0 Z " fill="#FFFCF8" transform="translate(1260,129)"/>
<path d="M0 0 C4.62 0 9.24 0 14 0 C14 28.71 14 57.42 14 87 C13.01 87 12.02 87 11 87 C11 59.28 11 31.56 11 3 C7.37 3 3.74 3 0 3 C0 2.01 0 1.02 0 0 Z " fill="#FFFCF8" transform="translate(1045,129)"/>
<path d="M0 0 C1.32 0 2.64 0 4 0 C4 18.81 4 37.62 4 57 C3.01 57 2.02 57 1 57 C1 75.81 1 94.62 1 114 C0.67 114 0.34 114 0 114 C0 76.38 0 38.76 0 0 Z " fill="#FFD69A" transform="translate(273,216)"/>
<path d="M0 0 C0.99 0 1.98 0 3 0 C3 8.91 3 17.82 3 27 C24.45 27 45.9 27 68 27 C68 27.99 68 28.98 68 30 C45.56 30 23.12 30 0 30 C0 20.1 0 10.2 0 0 Z " fill="#FFFFFF" transform="translate(1513,159)"/>
<path d="M0 0 C0.99 0 1.98 0 3 0 C3 8.58 3 17.16 3 26 C-5.58 26 -14.16 26 -23 26 C-23 36.23 -23 46.46 -23 57 C-24.32 57 -25.64 57 -27 57 C-27 45.78 -27 34.56 -27 23 C-18.09 23 -9.18 23 0 23 C0 15.41 0 7.82 0 0 Z " fill="#FFD18E" transform="translate(1160,216)"/>
<path d="M0 0 C0.66 0 1.32 0 2 0 C2 7.59 2 15.18 2 23 C16.52 23 31.04 23 46 23 C46 15.41 46 7.82 46 0 C46.99 0 47.98 0 49 0 C49 8.58 49 17.16 49 26 C32.83 26 16.66 26 0 26 C0 17.42 0 8.84 0 0 Z " fill="#F57C01" transform="translate(1356,387)"/>
<path d="M0 0 C0.66 0 1.32 0 2 0 C2 7.59 2 15.18 2 23 C16.52 23 31.04 23 46 23 C46 15.41 46 7.82 46 0 C46.99 0 47.98 0 49 0 C49 8.58 49 17.16 49 26 C32.83 26 16.66 26 0 26 C0 17.42 0 8.84 0 0 Z " fill="#F57D02" transform="translate(738,387)"/>
<path d="M0 0 C0.99 0 1.98 0 3 0 C3 9.9 3 19.8 3 30 C39.63 30 76.26 30 114 30 C114 30.33 114 30.66 114 31 C82.65 31 51.3 31 19 31 C19 31.99 19 32.98 19 34 C12.73 34 6.46 34 0 34 C0 22.78 0 11.56 0 0 Z " fill="#F68D21" transform="translate(865,387)"/>
<path d="M0 0 C1.32 0 2.64 0 4 0 C4 18.81 4 37.62 4 57 C2.68 57 1.36 57 0 57 C0 38.19 0 19.38 0 0 Z " fill="#FFD393" transform="translate(979,216)"/>
<path d="M0 0 C0.99 0 1.98 0 3 0 C3 9.9 3 19.8 3 30 C22.14 30 41.28 30 61 30 C61 30.33 61 30.66 61 31 C47.47 31 33.94 31 20 31 C20 31.99 20 32.98 20 34 C13.4 34 6.8 34 0 34 C0 22.78 0 11.56 0 0 Z " fill="#F58817" transform="translate(1348,387)"/>
<path d="M0 0 C0.99 0 1.98 0 3 0 C3 9.9 3 19.8 3 30 C22.14 30 41.28 30 61 30 C61 30.33 61 30.66 61 31 C47.14 31 33.28 31 19 31 C19 31.99 19 32.98 19 34 C12.73 34 6.46 34 0 34 C0 22.78 0 11.56 0 0 Z " fill="#F58716" transform="translate(1590,387)"/>
<path d="M0 0 C0.99 0 1.98 0 3 0 C3 9.9 3 19.8 3 30 C22.14 30 41.28 30 61 30 C61 30.33 61 30.66 61 31 C47.14 31 33.28 31 19 31 C19 31.99 19 32.98 19 34 C12.73 34 6.46 34 0 34 C0 22.78 0 11.56 0 0 Z " fill="#F58716" transform="translate(1214,387)"/>
<path d="M0 0 C0.99 0 1.98 0 3 0 C3 9.9 3 19.8 3 30 C22.14 30 41.28 30 61 30 C61 30.33 61 30.66 61 31 C47.14 31 33.28 31 19 31 C19 31.99 19 32.98 19 34 C12.73 34 6.46 34 0 34 C0 22.78 0 11.56 0 0 Z " fill="#F58817" transform="translate(999,387)"/>
<path d="M0 0 C3.63 0 7.26 0 11 0 C11 17.16 11 34.32 11 52 C7.04 52 3.08 52 -1 52 C-1 51.01 -1 50.02 -1 49 C1.97 49 4.94 49 8 49 C8 33.82 8 18.64 8 3 C5.36 3 2.72 3 0 3 C0 2.01 0 1.02 0 0 Z " fill="#F57F05" transform="translate(400,361)"/>
<path d="M0 0 C0.99 0 1.98 0 3 0 C3 18.81 3 37.62 3 57 C2.34 57 1.68 57 1 57 C1 66.9 1 76.8 1 87 C0.67 87 0.34 87 0 87 C0 58.29 0 29.58 0 0 Z " fill="#FD9C13" transform="translate(979,330)"/>
<path d="M0 0 C0.66 0 1.32 0 2 0 C2.33 9.9 2.66 19.8 3 30 C23.295 30.495 23.295 30.495 44 31 C44 31.99 44 32.98 44 34 C29.48 34 14.96 34 0 34 C0 22.78 0 11.56 0 0 Z " fill="#F57C00" transform="translate(1134,387)"/>
<path d="M0 0 C0.99 0 1.98 0 3 0 C3 9.9 3 19.8 3 30 C8.28 30 13.56 30 19 30 C19 38.91 19 47.82 19 57 C18.67 57 18.34 57 18 57 C18 49.41 18 41.82 18 34 C12.06 34 6.12 34 0 34 C0 22.78 0 11.56 0 0 Z " fill="#FFA116" transform="translate(220,330)"/>
<path d="M0 0 C2.64 0 5.28 0 8 0 C8 7.59 8 15.18 8 23 C5.36 23 2.72 23 0 23 C0 15.41 0 7.82 0 0 Z " fill="#FFFCF8" transform="translate(1367,307)"/>
<path d="M0 0 C2.64 0 5.28 0 8 0 C8 7.59 8 15.18 8 23 C5.36 23 2.72 23 0 23 C0 15.41 0 7.82 0 0 Z " fill="#FFFBF6" transform="translate(1152,307)"/>
<path d="M0 0 C2.64 0 5.28 0 8 0 C8 7.59 8 15.18 8 23 C5.36 23 2.72 23 0 23 C0 15.41 0 7.82 0 0 Z " fill="#FFFAF4" transform="translate(883,307)"/>
<path d="M0 0 C12.54 0 25.08 0 38 0 C38 0.99 38 1.98 38 3 C26.45 3 14.9 3 3 3 C3 10.59 3 18.18 3 26 C2.01 26 1.02 26 0 26 C0 17.42 0 8.84 0 0 Z " fill="#FFB348" transform="translate(1060,304)"/>
<path d="M0 0 C12.21 0 24.42 0 37 0 C37 0.99 37 1.98 37 3 C25.78 3 14.56 3 3 3 C3 10.59 3 18.18 3 26 C2.01 26 1.02 26 0 26 C0 17.42 0 8.84 0 0 Z " fill="#FFB347" transform="translate(1275,304)"/>
<path d="M0 0 C0.66 0 1.32 0 2 0 C2 9.9 2 19.8 2 30 C21.14 30 40.28 30 60 30 C60 30.33 60 30.66 60 31 C46.47 31 32.94 31 19 31 C19 31.99 19 32.98 19 34 C12.73 34 6.46 34 0 34 C0 22.78 0 11.56 0 0 Z " fill="#F68818" transform="translate(731,387)"/>
<path d="M0 0 C0.99 0 1.98 0 3 0 C3 18.81 3 37.62 3 57 C2.01 57 1.02 57 0 57 C0 38.19 0 19.38 0 0 Z " fill="#FF9A07" transform="translate(1644,330)"/>
<path d="M0 0 C0.99 0 1.98 0 3 0 C3 18.81 3 37.62 3 57 C2.01 57 1.02 57 0 57 C0 38.19 0 19.38 0 0 Z " fill="#FF9A07" transform="translate(1483,330)"/>
<path d="M0 0 C0.99 0 1.98 0 3 0 C3 18.81 3 37.62 3 57 C2.01 57 1.02 57 0 57 C0 38.19 0 19.38 0 0 Z " fill="#FF9903" transform="translate(1275,330)"/>
<path d="M0 0 C0.99 0 1.98 0 3 0 C3 18.81 3 37.62 3 57 C2.01 57 1.02 57 0 57 C0 38.19 0 19.38 0 0 Z " fill="#FF9A07" transform="translate(1268,330)"/>
<path d="M0 0 C0.99 0 1.98 0 3 0 C3 18.81 3 37.62 3 57 C2.01 57 1.02 57 0 57 C0 38.19 0 19.38 0 0 Z " fill="#FF9903" transform="translate(1060,330)"/>
<path d="M0 0 C0.99 0 1.98 0 3 0 C3 18.81 3 37.62 3 57 C2.01 57 1.02 57 0 57 C0 38.19 0 19.38 0 0 Z " fill="#FF9A07" transform="translate(1053,330)"/>
<path d="M0 0 C0.99 0 1.98 0 3 0 C3 18.81 3 37.62 3 57 C2.01 57 1.02 57 0 57 C0 38.19 0 19.38 0 0 Z " fill="#FF9A07" transform="translate(704,330)"/>
<path d="M0 0 C0.99 0 1.98 0 3 0 C3 18.81 3 37.62 3 57 C2.01 57 1.02 57 0 57 C0 38.19 0 19.38 0 0 Z " fill="#FFB449" transform="translate(1651,273)"/>
<path d="M0 0 C0.99 0 1.98 0 3 0 C3 18.81 3 37.62 3 57 C2.01 57 1.02 57 0 57 C0 38.19 0 19.38 0 0 Z " fill="#FFB449" transform="translate(1490,273)"/>
<path d="M0 0 C0.99 0 1.98 0 3 0 C3 18.81 3 37.62 3 57 C2.01 57 1.02 57 0 57 C0 38.19 0 19.38 0 0 Z " fill="#FFB44B" transform="translate(972,273)"/>
<path d="M0 0 C0.99 0 1.98 0 3 0 C3 18.81 3 37.62 3 57 C2.01 57 1.02 57 0 57 C0 38.19 0 19.38 0 0 Z " fill="#FFB650" transform="translate(791,273)"/>
<path d="M0 0 C0.99 0 1.98 0 3 0 C3 18.81 3 37.62 3 57 C2.01 57 1.02 57 0 57 C0 38.19 0 19.38 0 0 Z " fill="#FFB44B" transform="translate(784,273)"/>
<path d="M0 0 C0.99 0 1.98 0 3 0 C3 18.81 3 37.62 3 57 C2.01 57 1.02 57 0 57 C0 38.19 0 19.38 0 0 Z " fill="#FFB449" transform="translate(711,273)"/>
<path d="M0 0 C0.99 0 1.98 0 3 0 C3 18.81 3 37.62 3 57 C2.01 57 1.02 57 0 57 C0 38.19 0 19.38 0 0 Z " fill="#FFB449" transform="translate(496,273)"/>
<path d="M0 0 C0.99 0 1.98 0 3 0 C3 18.81 3 37.62 3 57 C2.01 57 1.02 57 0 57 C0 38.19 0 19.38 0 0 Z " fill="#FFB44B" transform="translate(489,273)"/>
<path d="M0 0 C0.99 0 1.98 0 3 0 C3 18.81 3 37.62 3 57 C2.01 57 1.02 57 0 57 C0 38.19 0 19.38 0 0 Z " fill="#FFB449" transform="translate(281,273)"/>
<path d="M0 0 C0.99 0 1.98 0 3 0 C3 18.81 3 37.62 3 57 C2.01 57 1.02 57 0 57 C0 38.19 0 19.38 0 0 Z " fill="#FFB449" transform="translate(274,273)"/>
<path d="M0 0 C0.99 0 1.98 0 3 0 C3 18.81 3 37.62 3 57 C2.01 57 1.02 57 0 57 C0 38.19 0 19.38 0 0 Z " fill="#FFD08B" transform="translate(1651,216)"/>
<path d="M0 0 C0.99 0 1.98 0 3 0 C3 18.81 3 37.62 3 57 C2.01 57 1.02 57 0 57 C0 38.19 0 19.38 0 0 Z " fill="#FFD18C" transform="translate(1644,216)"/>
<path d="M0 0 C0.99 0 1.98 0 3 0 C3 18.81 3 37.62 3 57 C2.01 57 1.02 57 0 57 C0 38.19 0 19.38 0 0 Z " fill="#FFD08B" transform="translate(1490,216)"/>
<path d="M0 0 C0.99 0 1.98 0 3 0 C3 18.81 3 37.62 3 57 C2.01 57 1.02 57 0 57 C0 38.19 0 19.38 0 0 Z " fill="#FFD18C" transform="translate(1483,216)"/>
<path d="M0 0 C0.99 0 1.98 0 3 0 C3 18.81 3 37.62 3 57 C2.01 57 1.02 57 0 57 C0 38.19 0 19.38 0 0 Z " fill="#FFD08B" transform="translate(711,216)"/>
<path d="M0 0 C0.99 0 1.98 0 3 0 C3 18.81 3 37.62 3 57 C2.01 57 1.02 57 0 57 C0 38.19 0 19.38 0 0 Z " fill="#FFD18C" transform="translate(704,216)"/>
<path d="M0 0 C0.99 0 1.98 0 3 0 C3 18.81 3 37.62 3 57 C2.01 57 1.02 57 0 57 C0 38.19 0 19.38 0 0 Z " fill="#FFD08B" transform="translate(496,216)"/>
<path d="M0 0 C0.99 0 1.98 0 3 0 C3 18.81 3 37.62 3 57 C2.01 57 1.02 57 0 57 C0 38.19 0 19.38 0 0 Z " fill="#FFD18C" transform="translate(489,216)"/>
<path d="M0 0 C0.99 0 1.98 0 3 0 C3 18.81 3 37.62 3 57 C2.01 57 1.02 57 0 57 C0 38.19 0 19.38 0 0 Z " fill="#FFD08B" transform="translate(281,216)"/>
<path d="M0 0 C4.95 0 9.9 0 15 0 C15 10.23 15 20.46 15 31 C13.68 31 12.36 31 11 31 C11 22.09 11 13.18 11 4 C7.37 4 3.74 4 0 4 C0 2.68 0 1.36 0 0 Z " fill="#FFF8F1" transform="translate(803,128)"/>
<path d="M0 0 C2.31 0 4.62 0 7 0 C7 7.59 7 15.18 7 23 C4.69 23 2.38 23 0 23 C0 15.41 0 7.82 0 0 Z " fill="#FFFEFD" transform="translate(849,330)"/>
<path d="M0 0 C2.31 0 4.62 0 7 0 C7 7.59 7 15.18 7 23 C4.69 23 2.38 23 0 23 C0 15.41 0 7.82 0 0 Z " fill="#FFFEFD" transform="translate(231,330)"/>
<path d="M0 0 C2.31 0 4.62 0 7 0 C7 7.59 7 15.18 7 23 C4.69 23 2.38 23 0 23 C0 15.41 0 7.82 0 0 Z " fill="#FFFEFD" transform="translate(822,273)"/>
<path d="M0 0 C2.31 0 4.62 0 7 0 C7 7.59 7 15.18 7 23 C4.69 23 2.38 23 0 23 C0 15.41 0 7.82 0 0 Z " fill="#FFFFFF" transform="translate(857,250)"/>
<path d="M0 0 C2.31 0 4.62 0 7 0 C7 7.59 7 15.18 7 23 C4.69 23 2.38 23 0 23 C0 15.41 0 7.82 0 0 Z " fill="#FFFFFF" transform="translate(830,193)"/>
<path d="M0 0 C2.31 0 4.62 0 7 0 C7 7.59 7 15.18 7 23 C4.69 23 2.38 23 0 23 C0 15.41 0 7.82 0 0 Z " fill="#FFFEFD" transform="translate(803,136)"/>
<path d="M0 0 C17.49 0 34.98 0 53 0 C53 0.99 53 1.98 53 3 C35.51 3 18.02 3 0 3 C0 2.01 0 1.02 0 0 Z " fill="#F57C00" transform="translate(454,418)"/>
<path d="M0 0 C0.66 0 1.32 0 2 0 C2 7.59 2 15.18 2 23 C13.55 23 25.1 23 37 23 C37 23.99 37 24.98 37 26 C24.79 26 12.58 26 0 26 C0 17.42 0 8.84 0 0 Z " fill="#F57C00" transform="translate(1141,387)"/>
<path d="M0 0 C1.32 0 2.64 0 4 0 C4 8.91 4 17.82 4 27 C7.63 27 11.26 27 15 27 C15 27.99 15 28.98 15 30 C10.05 30 5.1 30 0 30 C0 20.1 0 10.2 0 0 Z " fill="#FFF4E4" transform="translate(841,330)"/>
<path d="M0 0 C6.27 0 12.54 0 19 0 C19 11.22 19 22.44 19 34 C18.01 34 17.02 34 16 34 C16 23.77 16 13.54 16 3 C10.72 3 5.44 3 0 3 C0 2.01 0 1.02 0 0 Z " fill="#FFB650" transform="translate(1367,296)"/>
<path d="M0 0 C0.99 0 1.98 0 3 0 C3 11.22 3 22.44 3 34 C-2.94 34 -8.88 34 -15 34 C-15 33.01 -15 32.02 -15 31 C-10.05 31 -5.1 31 0 31 C0 20.77 0 10.54 0 0 Z " fill="#F57D02" transform="translate(1490,387)"/>
<path d="M0 0 C0.99 0 1.98 0 3 0 C3 11.22 3 22.44 3 34 C-2.94 34 -8.88 34 -15 34 C-15 33.01 -15 32.02 -15 31 C-10.05 31 -5.1 31 0 31 C0 20.77 0 10.54 0 0 Z " fill="#F57D02" transform="translate(711,387)"/>
<path d="M0 0 C0.99 0 1.98 0 3 0 C3 10.23 3 20.46 3 31 C7.95 31 12.9 31 18 31 C18 31.99 18 32.98 18 34 C12.06 34 6.12 34 0 34 C0 22.78 0 11.56 0 0 Z " fill="#F57D02" transform="translate(435,387)"/>
<path d="M0 0 C0.99 0 1.98 0 3 0 C3 10.23 3 20.46 3 31 C7.95 31 12.9 31 18 31 C18 31.99 18 32.98 18 34 C12.06 34 6.12 34 0 34 C0 22.78 0 11.56 0 0 Z " fill="#F57D02" transform="translate(247,387)"/>
<path d="M0 0 C0.99 0 1.98 0 3 0 C3 10.23 3 20.46 3 31 C7.95 31 12.9 31 18 31 C18 31.99 18 32.98 18 34 C12.06 34 6.12 34 0 34 C0 22.78 0 11.56 0 0 Z " fill="#FF9802" transform="translate(838,330)"/>
<path d="M0 0 C5.94 0 11.88 0 18 0 C18 11.22 18 22.44 18 34 C17.01 34 16.02 34 15 34 C15 23.77 15 13.54 15 3 C10.05 3 5.1 3 0 3 C0 2.01 0 1.02 0 0 Z " fill="#FFB650" transform="translate(1153,296)"/>
<path d="M0 0 C0.99 0 1.98 0 3 0 C3 10.23 3 20.46 3 31 C7.95 31 12.9 31 18 31 C18 31.99 18 32.98 18 34 C12.06 34 6.12 34 0 34 C0 22.78 0 11.56 0 0 Z " fill="#FFB348" transform="translate(811,273)"/>
<path d="M0 0 C5.94 0 11.88 0 18 0 C18 0.99 18 1.98 18 3 C13.05 3 8.1 3 3 3 C3 13.23 3 23.46 3 34 C2.01 34 1.02 34 0 34 C0 22.78 0 11.56 0 0 Z " fill="#FFD08B" transform="translate(1348,239)"/>
<path d="M0 0 C0.33 1.32 0.66 2.64 1 4 C4.63 4 8.26 4 12 4 C12 12.91 12 21.82 12 31 C11.01 31 10.02 31 9 31 C9 23.41 9 15.82 9 8 C6.36 8 3.72 8 1 8 C1 15.59 1 23.18 1 31 C0.67 31 0.34 31 0 31 C0 20.77 0 10.54 0 0 Z " fill="#FF9E10" transform="translate(1393,356)"/>
<path d="M0 0 C0.33 1.32 0.66 2.64 1 4 C4.63 4 8.26 4 12 4 C12 12.91 12 21.82 12 31 C11.01 31 10.02 31 9 31 C9 23.41 9 15.82 9 8 C6.36 8 3.72 8 1 8 C1 15.59 1 23.18 1 31 C0.67 31 0.34 31 0 31 C0 20.77 0 10.54 0 0 Z " fill="#FF9E10" transform="translate(614,356)"/>
<path d="M0 0 C4.95 0 9.9 0 15 0 C15 9.9 15 19.8 15 30 C14.01 30 13.02 30 12 30 C12 21.09 12 12.18 12 3 C8.04 3 4.08 3 0 3 C0 2.01 0 1.02 0 0 Z " fill="#FFFCFA" transform="translate(1367,300)"/>
<path d="M0 0 C4.95 0 9.9 0 15 0 C15 9.9 15 19.8 15 30 C14.01 30 13.02 30 12 30 C12 21.09 12 12.18 12 3 C8.04 3 4.08 3 0 3 C0 2.01 0 1.02 0 0 Z " fill="#FFFCF9" transform="translate(1152,300)"/>
<path d="M0 0 C0.99 0 1.98 0 3 0 C3 8.91 3 17.82 3 27 C6.63 27 10.26 27 14 27 C14 27.99 14 28.98 14 30 C9.38 30 4.76 30 0 30 C0 20.1 0 10.2 0 0 Z " fill="#FFFDFA" transform="translate(224,330)"/>
<path d="M0 0 C4.62 0 9.24 0 14 0 C14 9.9 14 19.8 14 30 C13.01 30 12.02 30 11 30 C11 21.09 11 12.18 11 3 C7.37 3 3.74 3 0 3 C0 2.01 0 1.02 0 0 Z " fill="#FFFBF7" transform="translate(884,300)"/>
<path d="M0 0 C4.62 0 9.24 0 14 0 C14 9.9 14 19.8 14 30 C13.01 30 12.02 30 11 30 C11 21.09 11 12.18 11 3 C7.37 3 3.74 3 0 3 C0 2.01 0 1.02 0 0 Z " fill="#FFFCF7" transform="translate(857,243)"/>
<path d="M0 0 C5.94 0 11.88 0 18 0 C18 11.22 18 22.44 18 34 C17.34 34 16.68 34 16 34 C16 23.77 16 13.54 16 3 C10.72 3 5.44 3 0 3 C0 2.01 0 1.02 0 0 Z " fill="#FF9800" transform="translate(1179,353)"/>
<path d="M0 0 C3.63 0 7.26 0 11 0 C11 8.58 11 17.16 11 26 C10.01 26 9.02 26 8 26 C8 18.41 8 10.82 8 3 C5.36 3 2.72 3 0 3 C0 2.01 0 1.02 0 0 Z " fill="#FF9905" transform="translate(1179,361)"/>
<path d="M0 0 C3.63 0 7.26 0 11 0 C11 8.58 11 17.16 11 26 C10.01 26 9.02 26 8 26 C8 18.41 8 10.82 8 3 C5.36 3 2.72 3 0 3 C0 2.01 0 1.02 0 0 Z " fill="#FF9905" transform="translate(400,361)"/>
<path d="M0 0 C3.63 0 7.26 0 11 0 C11 8.58 11 17.16 11 26 C10.01 26 9.02 26 8 26 C8 18.41 8 10.82 8 3 C5.36 3 2.72 3 0 3 C0 2.01 0 1.02 0 0 Z " fill="#FFB44A" transform="translate(1367,304)"/>
<path d="M0 0 C3.3 0 6.6 0 10 0 C10 8.58 10 17.16 10 26 C9.01 26 8.02 26 7 26 C7 18.41 7 10.82 7 3 C4.69 3 2.38 3 0 3 C0 2.01 0 1.02 0 0 Z " fill="#FFB44A" transform="translate(1153,304)"/>
<path d="M0 0 C0.66 0 1.32 0 2 0 C2.33 8.58 2.66 17.16 3 26 C6.63 26.33 10.26 26.66 14 27 C14 27.99 14 28.98 14 30 C9.38 30 4.76 30 0 30 C0 20.1 0 10.2 0 0 Z " fill="#FFFEFE" transform="translate(815,273)"/>
<path d="M0 0 C4.62 0 9.24 0 14 0 C14 9.9 14 19.8 14 30 C13.34 30 12.68 30 12 30 C12 21.09 12 12.18 12 3 C8.04 3 4.08 3 0 3 C0 2.01 0 1.02 0 0 Z " fill="#FFFFFF" transform="translate(830,186)"/>
<path d="M0 0 C8.58 0 17.16 0 26 0 C26 0.99 26 1.98 26 3 C17.42 3 8.84 3 0 3 C0 2.01 0 1.02 0 0 Z " fill="#F57C00" transform="translate(1448,418)"/>
<path d="M0 0 C8.58 0 17.16 0 26 0 C26 0.99 26 1.98 26 3 C17.42 3 8.84 3 0 3 C0 2.01 0 1.02 0 0 Z " fill="#F57C00" transform="translate(669,418)"/>
</svg>
