<?xml version="1.0" encoding="UTF-8"?>
<svg version="1.1" xmlns="http://www.w3.org/2000/svg" width="1920" height="800">
<path d="M0 0 C633.6 0 1267.2 0 1920 0 C1920 264 1920 528 1920 800 C1286.4 800 652.8 800 0 800 C0 536 0 272 0 0 Z " fill="#0D1117" transform="translate(0,0)"/>
<path d="M0 0 C62.04 0 124.08 0 188 0 C188 8.58 188 17.16 188 26 C195.26 26 202.52 26 210 26 C210 52.07 210 78.14 210 105 C158.52 105 107.04 105 54 105 C54 157.8 54 210.6 54 265 C98.22 265.33 142.44 265.66 188 266 C188 274.58 188 283.16 188 292 C195.26 292 202.52 292 210 292 C210 318.07 210 344.14 210 371 C143.67 371 77.34 371 9 371 C9 358.13 9 345.26 9 332 C6.03 332 3.06 332 0 332 C0 323.09 0 314.18 0 305 C-7.26 305 -14.52 305 -22 305 C-22 292.13 -22 279.26 -22 266 C-20.35 266 -18.7 266 -17 266 C-17 277.55 -17 289.1 -17 301 C-11.39 301 -5.78 301 0 301 C0 299.68 0 298.36 0 297 C-4.29 297 -8.58 297 -13 297 C-13 286.77 -13 276.54 -13 266 C-11.35 266 -9.7 266 -8 266 C-8 274.58 -8 283.16 -8 292 C-5.36 292 -2.72 292 0 292 C0 283.42 0 274.84 0 266 C20.295 265.505 20.295 265.505 41 265 C41 207.91 41 150.82 41 92 C92.48 92 143.96 92 197 92 C197 74.51 197 57.02 197 39 C194.03 39 191.06 39 188 39 C188 47.91 188 56.82 188 66 C136.52 66 85.04 66 32 66 C32 87.78 32 109.56 32 132 C11.21 132 -9.58 132 -31 132 C-31 110.22 -31 88.44 -31 66 C-20.77 66 -10.54 66 0 66 C0 44.22 0 22.44 0 0 Z " fill="#8EAD40" transform="translate(120,238)"/>
<path d="M0 0 C20.79 0 41.58 0 63 0 C63 8.58 63 17.16 63 26 C69.86612807 25.96041531 69.86612807 25.96041531 76.73217773 25.90991211 C78.00750366 25.90616577 78.00750366 25.90616577 79.30859375 25.90234375 C80.62041626 25.89448853 80.62041626 25.89448853 81.95874023 25.88647461 C84 26 84 26 85 27 C85.09803082 30.05927044 85.12990898 33.09597888 85.12025452 36.15565491 C85.12110894 37.12839479 85.12196337 38.10113468 85.12284368 39.10335153 C85.12450144 42.38931316 85.11897229 45.67522465 85.11352539 48.96118164 C85.11324356 51.3061269 85.11340118 53.65107225 85.1139679 55.99601746 C85.11425602 62.38419193 85.10835693 68.7723478 85.10139394 75.16051793 C85.09579345 81.15351187 85.09477212 87.1465058 85.09374207 93.13950186 C85.09155123 105.01300802 85.08489031 116.88650733 85.07543945 128.76000977 C85.06626614 140.29679328 85.05919637 151.83357492 85.05493164 163.37036133 C85.05466364 164.08825905 85.05439565 164.80615677 85.05411953 165.54580897 C85.05180681 171.79008778 85.04965395 178.03436664 85.04751682 184.27864552 C85.03810029 211.18577013 85.01818185 238.09287658 85 265 C129.22 265.33 173.44 265.66 219 266 C219 274.58 219 283.16 219 292 C226.26 292 233.52 292 241 292 C241 318.07 241 344.14 241 371 C164.44 371 87.88 371 9 371 C9 358.13 9 345.26 9 332 C6.03 332 3.06 332 0 332 C0 310.22 0 288.44 0 266 C35.145 265.505 35.145 265.505 71 265 C71 190.42 71 115.84 71 39 C68.36 39 65.72 39 63 39 C63 69.69 63 100.38 63 132 C42.21 132 21.42 132 0 132 C0 88.44 0 44.88 0 0 Z " fill="#C0F94C" transform="translate(339,238)"/>
<path d="M0 0 C71.94 0 143.88 0 218 0 C218 8.58 218 17.16 218 26 C225.26 26 232.52 26 240 26 C240 52.07 240 78.14 240 105 C208.98 105 177.96 105 146 105 C146 192.78 146 280.56 146 371 C120.92 371 95.84 371 70 371 C70 358.13 70 345.26 70 332 C67.03 332 64.06 332 61 332 C61 310.22 61 288.44 61 266 C82.12 266 103.24 266 125 266 C125 287.78 125 309.56 125 332 C111.47 332 97.94 332 84 332 C84 340.58 84 349.16 84 358 C100.17 358 116.34 358 133 358 C133 270.22 133 182.44 133 92 C163.69 92 194.38 92 226 92 C226 74.51 226 57.02 226 39 C223.36 39 220.72 39 218 39 C218 47.91 218 56.82 218 66 C187.31 66 156.62 66 125 66 C125 87.78 125 109.56 125 132 C103.88 132 82.76 132 61 132 C61 123.09 61 114.18 61 105 C33.61 105 6.22 105 -22 105 C-22 92.13 -22 79.26 -22 66 C-21.01 66 -20.02 66 -19 66 C-19 77.55 -19 89.1 -19 101 C7.4 101 33.8 101 61 101 C61 99.68 61 98.36 61 97 C36.25 97 11.5 97 -14 97 C-14 86.77 -14 76.54 -14 66 C-12.68 66 -11.36 66 -10 66 C-10 74.58 -10 83.16 -10 92 C13.43 92 36.86 92 61 92 C61 83.42 61 74.84 61 66 C40.87 66 20.74 66 0 66 C0 44.22 0 22.44 0 0 Z " fill="#8DAC40" transform="translate(1619,238)"/>
<path d="M0 0 C20.79 0 41.58 0 63 0 C63 8.91 63 17.82 63 27 C70.26 27 77.52 27 85 27 C85 140.52 85 254.04 85 371 C59.92 371 34.84 371 9 371 C9 358.13 9 345.26 9 332 C6.03 332 3.06 332 0 332 C0 222.44 0 112.88 0 0 Z " fill="#111618" transform="translate(588,238)"/>
<path d="M0 0 C20.79 0 41.58 0 63 0 C63 8.91 63 17.82 63 27 C70.26 27 77.52 27 85 27 C85 140.52 85 254.04 85 371 C39.46 371 -6.08 371 -53 371 C-53 358.13 -53 345.26 -53 332 C-55.97 332 -58.94 332 -62 332 C-62 323.09 -62 314.18 -62 305 C-69.26 305 -76.52 305 -84 305 C-84 292.13 -84 279.26 -84 266 C-82.35 266 -80.7 266 -79 266 C-79 277.55 -79 289.1 -79 301 C-73.39 301 -67.78 301 -62 301 C-62 299.68 -62 298.36 -62 297 C-66.62 297 -71.24 297 -76 297 C-76 286.77 -76 276.54 -76 266 C-74.35 266 -72.7 266 -71 266 C-71 274.58 -71 283.16 -71 292 C-68.03 292 -65.06 292 -62 292 C-62 283.42 -62 274.84 -62 266 C-20.42 266 21.16 266 64 266 C64 287.78 64 309.56 64 332 C30.01 332 -3.98 332 -39 332 C-39 340.58 -39 349.16 -39 358 C-2.37 358 34.26 358 72 358 C72 252.73 72 147.46 72 39 C69.03 39 66.06 39 63 39 C63 69.69 63 100.38 63 132 C42.21 132 21.42 132 0 132 C0 88.44 0 44.88 0 0 Z " fill="#8BA93F" transform="translate(900,238)"/>
<path d="M0 0 C51.81 0 103.62 0 157 0 C157 21.78 157 43.56 157 66 C159.64 66 162.28 66 165 66 C165 52.8 165 39.6 165 26 C175.23 26 185.46 26 196 26 C196 17.42 196 8.84 196 0 C197.65 0 199.3 0 201 0 C201 10.23 201 20.46 201 31 C190.77 31 180.54 31 170 31 C170 42.55 170 54.1 170 66 C171.32 66 172.64 66 174 66 C174 55.77 174 45.54 174 35 C184.23 35 194.46 35 205 35 C205 23.45 205 11.9 205 0 C206.65 0 208.3 0 210 0 C210 12.87 210 25.74 210 39 C199.77 39 189.54 39 179 39 C179 47.91 179 56.82 179 66 C181.97 66 184.94 66 188 66 C188 74.58 188 83.16 188 92 C195.26 92 202.52 92 210 92 C210 105.2 210 118.4 210 132 C208.35 132 206.7 132 205 132 C205 120.45 205 108.9 205 97 C199.39 97 193.78 97 188 97 C188 98.32 188 99.64 188 101 C192.29 101 196.58 101 201 101 C201 111.23 201 121.46 201 132 C199.35 132 197.7 132 196 132 C196 123.09 196 114.18 196 105 C193.36 105 190.72 105 188 105 C188 113.91 188 122.82 188 132 C167.21 132 146.42 132 125 132 C125 123.09 125 114.18 125 105 C111.8 105 98.6 105 85 105 C85 113.91 85 122.82 85 132 C83.35 132 81.7 132 80 132 C80 121.77 80 111.54 80 101 C94.85 101 109.7 101 125 101 C125 99.68 125 98.36 125 97 C108.83 97 92.66 97 76 97 C76 108.55 76 120.1 76 132 C74.35 132 72.7 132 71 132 C71 118.8 71 105.6 71 92 C88.49 92 105.98 92 124 92 C124 83.42 124 74.84 124 66 C103.87 66 83.74 66 63 66 C63 87.78 63 109.56 63 132 C42.21 132 21.42 132 0 132 C0 88.44 0 44.88 0 0 Z " fill="#AEDF4A" transform="translate(994,371)"/>
<path d="M0 0 C51.48 0 102.96 0 156 0 C156 21.78 156 43.56 156 66 C158.97 66 161.94 66 165 66 C165 52.8 165 39.6 165 26 C175.23 26 185.46 26 196 26 C196 17.42 196 8.84 196 0 C197.65 0 199.3 0 201 0 C201 10.23 201 20.46 201 31 C190.77 31 180.54 31 170 31 C170 42.55 170 54.1 170 66 C170.99 66 171.98 66 173 66 C173 55.77 173 45.54 173 35 C183.23 35 193.46 35 204 35 C204 23.45 204 11.9 204 0 C205.65 0 207.3 0 209 0 C209 12.87 209 25.74 209 39 C198.77 39 188.54 39 178 39 C178 47.91 178 56.82 178 66 C180.97 66 183.94 66 187 66 C187 74.91 187 83.82 187 93 C194.26 93 201.52 93 209 93 C209 105.87 209 118.74 209 132 C207.35 132 205.7 132 204 132 C204 120.45 204 108.9 204 97 C198.72 97 193.44 97 188 97 C188 97.99 188 98.98 188 100 C192.29 100 196.58 100 201 100 C201 110.56 201 121.12 201 132 C199.35 132 197.7 132 196 132 C196 123.09 196 114.18 196 105 C193.36 105 190.72 105 188 105 C188 113.91 188 122.82 188 132 C166.88 132 145.76 132 124 132 C124 123.09 124 114.18 124 105 C111.13 105 98.26 105 85 105 C85 113.91 85 122.82 85 132 C83.35 132 81.7 132 80 132 C80 121.77 80 111.54 80 101 C94.52 101 109.04 101 124 101 C124 99.68 124 98.36 124 97 C108.16 97 92.32 97 76 97 C76 108.55 76 120.1 76 132 C74.35 132 72.7 132 71 132 C71 118.8 71 105.6 71 92 C88.49 92 105.98 92 124 92 C124 83.42 124 74.84 124 66 C103.87 66 83.74 66 63 66 C63 87.78 63 109.56 63 132 C42.21 132 21.42 132 0 132 C0 88.44 0 44.88 0 0 Z " fill="#AEE04A" transform="translate(1244,371)"/>
<path d="M0 0 C20.79 0 41.58 0 63 0 C63 8.58 63 17.16 63 26 C70.26 26 77.52 26 85 26 C85 139.85 85 253.7 85 371 C59.92 371 34.84 371 9 371 C9 358.13 9 345.26 9 332 C6.03 332 3.06 332 0 332 C0 310.22 0 288.44 0 266 C20.79 266 41.58 266 63 266 C63 287.78 63 309.56 63 332 C49.8 332 36.6 332 23 332 C23 340.58 23 349.16 23 358 C39.17 358 55.34 358 72 358 C72 252.73 72 147.46 72 39 C69.03 39 66.06 39 63 39 C63 69.69 63 100.38 63 132 C42.21 132 21.42 132 0 132 C0 88.44 0 44.88 0 0 Z " fill="#8BAA40" transform="translate(1493,238)"/>
<path d="M0 0 C31.02 0 62.04 0 94 0 C94 8.58 94 17.16 94 26 C101.26 26 108.52 26 116 26 C116 39.2 116 52.4 116 66 C119.3 66 122.6 66 126 66 C126 74.58 126 83.16 126 92 C132.93 92 139.86 92 147 92 C147 105.2 147 118.4 147 132 C145.35 132 143.7 132 142 132 C142 120.45 142 108.9 142 97 C136.39 97 130.78 97 125 97 C125 98.32 125 99.64 125 101 C129.62 101 134.24 101 139 101 C139 111.23 139 121.46 139 132 C137.35 132 135.7 132 134 132 C134 123.09 134 114.18 134 105 C131.03 105 128.06 105 125 105 C125 113.91 125 122.82 125 132 C83.75 132 42.5 132 0 132 C0 88.44 0 44.88 0 0 Z " fill="#9EC747" transform="translate(682,238)"/>
<path d="M0 0 C21.12 0 42.24 0 64 0 C64 8.58 64 17.16 64 26 C71.26 26 78.52 26 86 26 C86 39.2 86 52.4 86 66 C88.97 66 91.94 66 95 66 C95 74.58 95 83.16 95 92 C102.26 92 109.52 92 117 92 C117 105.2 117 118.4 117 132 C115.35 132 113.7 132 112 132 C112 120.45 112 108.9 112 97 C106.39 97 100.78 97 95 97 C95 98.32 95 99.64 95 101 C99.29 101 103.58 101 108 101 C108 111.23 108 121.46 108 132 C106.35 132 104.7 132 103 132 C103 123.09 103 114.18 103 105 C100.36 105 97.72 105 95 105 C95 113.91 95 122.82 95 132 C74.21 132 53.42 132 32 132 C32 123.09 32 114.18 32 105 C24.74 105 17.48 105 10 105 C10 92.13 10 79.26 10 66 C7.03 66 4.06 66 1 66 C1 57.09 1 48.18 1 39 C-1.97 39 -4.94 39 -8 39 C-8 69.69 -8 100.38 -8 132 C-9.65 132 -11.3 132 -13 132 C-13 99.99 -13 67.98 -13 35 C-8.38 35 -3.76 35 1 35 C1 33.68 1 32.36 1 31 C-4.94 31 -10.88 31 -17 31 C-17 64.33 -17 97.66 -17 132 C-18.65 132 -20.3 132 -22 132 C-22.0231205 118.32697438 -22.04091359 104.65395336 -22.05181217 90.98091221 C-22.05704164 84.63269424 -22.06414044 78.2844896 -22.07543945 71.9362793 C-22.08626606 65.81551418 -22.09227635 59.69476191 -22.09487724 53.57398796 C-22.0967319 51.23309057 -22.10035329 48.89219391 -22.10573006 46.55130196 C-22.11293748 43.28491798 -22.11399107 40.01858785 -22.11352539 36.75219727 C-22.11712067 35.773965 -22.12071594 34.79573273 -22.12442017 33.78785706 C-22.1230455 32.90299622 -22.12167084 32.01813538 -22.12025452 31.10646057 C-22.12117631 30.33307626 -22.1220981 29.55969194 -22.12304783 28.76287174 C-22 27 -22 27 -21 26 C-19.43827255 25.91314397 -17.87270656 25.89297781 -16.30859375 25.90234375 C-15.45837646 25.90484131 -14.60815918 25.90733887 -13.73217773 25.90991211 C-12.64493408 25.91901611 -11.55769043 25.92812012 -10.4375 25.9375 C-6.993125 25.958125 -3.54875 25.97875 0 26 C0 17.42 0 8.84 0 0 Z " fill="#A9D949" transform="translate(775,371)"/>
<path d="M0 0 C1.65 0 3.3 0 5 0 C5 11.55 5 23.1 5 35 C10.61 35 16.22 35 22 35 C22 33.68 22 32.36 22 31 C17.71 31 13.42 31 9 31 C9 20.77 9 10.54 9 0 C10.65 0 12.3 0 14 0 C14 8.58 14 17.16 14 26 C16.64 26 19.28 26 22 26 C22 17.42 22 8.84 22 0 C32.56 0 43.12 0 54 0 C54 21.78 54 43.56 54 66 C105.15 66 156.3 66 209 66 C209 44.22 209 22.44 209 0 C209.33 0 209.66 0 210 0 C210 8.58 210 17.16 210 26 C217.26 26 224.52 26 232 26 C232 52.07 232 78.14 232 105 C165.67 105 99.34 105 31 105 C31 92.13 31 79.26 31 66 C28.03 66 25.06 66 22 66 C22 57.09 22 48.18 22 39 C14.74 39 7.48 39 0 39 C0 26.13 0 13.26 0 0 Z " fill="#B8F04A" transform="translate(98,504)"/>
<path d="M0 0 C1.65 0 3.3 0 5 0 C5 11.55 5 23.1 5 35 C10.61 35 16.22 35 22 35 C22 33.68 22 32.36 22 31 C17.38 31 12.76 31 8 31 C8 20.77 8 10.54 8 0 C9.65 0 11.3 0 13 0 C13 8.58 13 17.16 13 26 C15.97 26 18.94 26 22 26 C22 17.42 22 8.84 22 0 C63.58 0 105.16 0 148 0 C148 21.78 148 43.56 148 66 C114.01 66 80.02 66 45 66 C45 74.58 45 83.16 45 92 C81.63 92 118.26 92 156 92 C156 61.64 156 31.28 156 0 C157.65 0 159.3 0 161 0 C161 32.01 161 64.02 161 97 C121.07 97 81.14 97 40 97 C40 86.77 40 76.54 40 66 C38.68 66 37.36 66 36 66 C36 77.55 36 89.1 36 101 C78.57 101 121.14 101 165 101 C165 67.67 165 34.34 165 0 C166.32 0 167.64 0 169 0 C169 34.65 169 69.3 169 105 C123.46 105 77.92 105 31 105 C31 92.13 31 79.26 31 66 C28.03 66 25.06 66 22 66 C22 57.09 22 48.18 22 39 C14.74 39 7.48 39 0 39 C0 26.13 0 13.26 0 0 Z " fill="#BFF84C" transform="translate(816,504)"/>
<path d="M0 0 C51.15 0 102.3 0 155 0 C155 21.78 155 43.56 155 66 C103.85 66 52.7 66 0 66 C0 44.22 0 22.44 0 0 Z " fill="#BFF94C" transform="translate(152,504)"/>
<path d="M0 0 C20.79 0 41.58 0 63 0 C63 8.58 63 17.16 63 26 C70.26 26 77.52 26 85 26 C85 52.07 85 78.14 85 105 C74.77 105 64.54 105 54 105 C54 113.91 54 122.82 54 132 C52.35 132 50.7 132 49 132 C49 121.77 49 111.54 49 101 C59.23 101 69.46 101 80 101 C80 77.9 80 54.8 80 31 C74.39 31 68.78 31 63 31 C63 32.32 63 33.64 63 35 C67.29 35 71.58 35 76 35 C76 55.46 76 75.92 76 97 C65.77 97 55.54 97 45 97 C45 108.55 45 120.1 45 132 C43.35 132 41.7 132 40 132 C40 118.8 40 105.6 40 92 C50.23 92 60.46 92 71 92 C71 74.51 71 57.02 71 39 C68.36 39 65.72 39 63 39 C63 47.91 63 56.82 63 66 C52.77 66 42.54 66 32 66 C32 87.78 32 109.56 32 132 C11.21 132 -9.58 132 -31 132 C-31 110.22 -31 88.44 -31 66 C-20.77 66 -10.54 66 0 66 C0 44.22 0 22.44 0 0 Z " fill="#8DAC40" transform="translate(1150,238)"/>
<path d="M0 0 C20.46 0 40.92 0 62 0 C62 8.91 62 17.82 62 27 C69.59 27 77.18 27 85 27 C85 52.74 85 78.48 85 105 C74.44 105 63.88 105 53 105 C53 113.91 53 122.82 53 132 C51.35 132 49.7 132 48 132 C48 121.77 48 111.54 48 101 C58.56 101 69.12 101 80 101 C80 77.9 80 54.8 80 31 C74.06 31 68.12 31 62 31 C62 32.32 62 33.64 62 35 C66.62 35 71.24 35 76 35 C76 55.46 76 75.92 76 97 C65.77 97 55.54 97 45 97 C45 108.55 45 120.1 45 132 C43.35 132 41.7 132 40 132 C40 118.8 40 105.6 40 92 C50.23 92 60.46 92 71 92 C71 74.51 71 57.02 71 39 C68.03 39 65.06 39 62 39 C62 47.91 62 56.82 62 66 C52.1 66 42.2 66 32 66 C32 87.78 32 109.56 32 132 C10.88 132 -10.24 132 -32 132 C-32 110.22 -32 88.44 -32 66 C-21.44 66 -10.88 66 0 66 C0 44.22 0 22.44 0 0 Z " fill="#8DAC40" transform="translate(1400,238)"/>
<path d="M0 0 C20.79 0 41.58 0 63 0 C63 8.91 63 17.82 63 27 C70.26 27 77.52 27 85 27 C85 61.65 85 96.3 85 132 C83.35 132 81.7 132 80 132 C80 98.67 80 65.34 80 31 C74.39 31 68.78 31 63 31 C63 32.32 63 33.64 63 35 C67.62 35 72.24 35 77 35 C77 67.01 77 99.02 77 132 C75.35 132 73.7 132 72 132 C72 101.31 72 70.62 72 39 C69.03 39 66.06 39 63 39 C63 69.69 63 100.38 63 132 C42.21 132 21.42 132 0 132 C0 88.44 0 44.88 0 0 Z " fill="#8BA93F" transform="translate(588,238)"/>
<path d="M0 0 C20.46 0 40.92 0 62 0 C62 8.91 62 17.82 62 27 C69.59 27 77.18 27 85 27 C85 61.65 85 96.3 85 132 C83.35 132 81.7 132 80 132 C80 98.67 80 65.34 80 31 C74.06 31 68.12 31 62 31 C62 32.32 62 33.64 62 35 C66.62 35 71.24 35 76 35 C76 67.01 76 99.02 76 132 C74.35 132 72.7 132 71 132 C71 101.31 71 70.62 71 39 C68.36 39 65.72 39 63 39 C63 69.69 63 100.38 63 132 C42.21 132 21.42 132 0 132 C0 88.44 0 44.88 0 0 Z " fill="#8BA93F" transform="translate(1244,238)"/>
<path d="M0 0 C20.79 0 41.58 0 63 0 C63 8.58 63 17.16 63 26 C70.26 26 77.52 26 85 26 C85 60.98 85 95.96 85 132 C83.35 132 81.7 132 80 132 C80 98.67 80 65.34 80 31 C74.39 31 68.78 31 63 31 C63 32.32 63 33.64 63 35 C67.29 35 71.58 35 76 35 C76 67.01 76 99.02 76 132 C74.68 132 73.36 132 72 132 C72 101.31 72 70.62 72 39 C69.03 39 66.06 39 63 39 C63 69.69 63 100.38 63 132 C42.21 132 21.42 132 0 132 C0 88.44 0 44.88 0 0 Z " fill="#8CAB40" transform="translate(994,238)"/>
<path d="M0 0 C20.79 0 41.58 0 63 0 C63 43.56 63 87.12 63 132 C42.21 132 21.42 132 0 132 C0 88.44 0 44.88 0 0 Z " fill="#B2E64B" transform="translate(1680,371)"/>
<path d="M0 0 C20.79 0 41.58 0 63 0 C63 43.56 63 87.12 63 132 C42.21 132 21.42 132 0 132 C0 88.44 0 44.88 0 0 Z " fill="#ACDC4A" transform="translate(1493,371)"/>
<path d="M0 0 C20.79 0 41.58 0 63 0 C63 43.56 63 87.12 63 132 C42.21 132 21.42 132 0 132 C0 88.44 0 44.88 0 0 Z " fill="#B2E64B" transform="translate(900,371)"/>
<path d="M0 0 C20.79 0 41.58 0 63 0 C63 43.56 63 87.12 63 132 C42.21 132 21.42 132 0 132 C0 88.44 0 44.88 0 0 Z " fill="#ACDD4A" transform="translate(682,371)"/>
<path d="M0 0 C20.79 0 41.58 0 63 0 C63 43.56 63 87.12 63 132 C42.21 132 21.42 132 0 132 C0 88.44 0 44.88 0 0 Z " fill="#B2E64B" transform="translate(588,371)"/>
<path d="M0 0 C20.79 0 41.58 0 63 0 C63 43.56 63 87.12 63 132 C42.21 132 21.42 132 0 132 C0 88.44 0 44.88 0 0 Z " fill="#ADDE4A" transform="translate(339,371)"/>
<path d="M0 0 C20.79 0 41.58 0 63 0 C63 43.56 63 87.12 63 132 C42.21 132 21.42 132 0 132 C0 88.44 0 44.88 0 0 Z " fill="#ACDD4A" transform="translate(89,371)"/>
<path d="M0 0 C21.12 0 42.24 0 64 0 C64 8.58 64 17.16 64 26 C71.26 26 78.52 26 86 26 C86 52.07 86 78.14 86 105 C60.92 105 35.84 105 10 105 C10 92.13 10 79.26 10 66 C6.7 66 3.4 66 0 66 C0 44.22 0 22.44 0 0 Z " fill="#BBF44B" transform="translate(1399,504)"/>
<path d="M0 0 C20.79 0 41.58 0 63 0 C63 8.58 63 17.16 63 26 C70.26 26 77.52 26 85 26 C85 52.07 85 78.14 85 105 C59.92 105 34.84 105 9 105 C9 92.13 9 79.26 9 66 C6.03 66 3.06 66 0 66 C0 44.22 0 22.44 0 0 Z " fill="#BBF34B" transform="translate(1150,504)"/>
<path d="M0 0 C10.23 0 20.46 0 31 0 C31 8.58 31 17.16 31 26 C38.26 26 45.52 26 53 26 C53 52.07 53 78.14 53 105 C1.52 105 -49.96 105 -103 105 C-102.98839844 116.53839844 -102.97679687 128.07679688 -102.96484375 139.96484375 C-102.95973737 147.25195335 -102.95488237 154.53906166 -102.95117188 161.82617188 C-102.94522847 173.40584758 -102.93822566 184.98551603 -102.92456055 196.56518555 C-102.91461491 204.99700331 -102.90814686 213.42881521 -102.90591151 221.86063868 C-102.90460419 226.32807392 -102.90151705 230.7954924 -102.89426994 235.26292229 C-102.88751162 239.4628416 -102.88538265 243.66273713 -102.88689232 247.86266136 C-102.88661591 249.40868509 -102.88460967 250.95470956 -102.88079453 252.50072861 C-102.8758602 254.60235776 -102.87700072 256.70389572 -102.87974548 258.80552673 C-102.87882369 259.98449996 -102.8779019 261.16347319 -102.87695217 262.37817287 C-103 265 -103 265 -104 266 C-108.43291584 266.1453415 -111.67322878 266.08169281 -116 265 C-116 207.91 -116 150.82 -116 92 C-64.52 92 -13.04 92 40 92 C40 74.51 40 57.02 40 39 C37.03 39 34.06 39 31 39 C31 47.91 31 56.82 31 66 C20.77 66 10.54 66 0 66 C0 44.22 0 22.44 0 0 Z " fill="#8FAE41" transform="translate(277,238)"/>
<path d="M0 0 C31.02 0 62.04 0 94 0 C94 8.58 94 17.16 94 26 C101.26 26 108.52 26 116 26 C116 39.2 116 52.4 116 66 C78.05 66 40.1 66 1 66 C1 87.78 1 109.56 1 132 C0.67 132 0.34 132 0 132 C0 88.44 0 44.88 0 0 Z " fill="#8EAD40" transform="translate(682,238)"/>
<path d="M0 0 C10.56 0 21.12 0 32 0 C32 21.78 32 43.56 32 66 C41.9 66 51.8 66 62 66 C62 87.78 62 109.56 62 132 C41.54 132 21.08 132 0 132 C0 88.44 0 44.88 0 0 Z " fill="#8EAD40" transform="translate(339,238)"/>
<path d="M0 0 C21.12 0 42.24 0 64 0 C64 21.78 64 43.56 64 66 C50.47 66 36.94 66 23 66 C23 74.58 23 83.16 23 92 C39.17 92 55.34 92 72 92 C72 61.64 72 31.28 72 0 C73.65 0 75.3 0 77 0 C77 32.01 77 64.02 77 97 C57.53 97 38.06 97 18 97 C18 86.77 18 76.54 18 66 C17.01 66 16.02 66 15 66 C15 77.22 15 88.44 15 100 C36.45 100 57.9 100 80 100 C80 67 80 34 80 0 C81.65 0 83.3 0 85 0 C85 34.65 85 69.3 85 105 C59.92 105 34.84 105 9 105 C9 92.13 9 79.26 9 66 C6.03 66 3.06 66 0 66 C0 44.22 0 22.44 0 0 Z " fill="#B7EF4A" transform="translate(1680,504)"/>
<path d="M0 0 C21.12 0 42.24 0 64 0 C64 21.78 64 43.56 64 66 C50.47 66 36.94 66 23 66 C23 74.58 23 83.16 23 92 C39.17 92 55.34 92 72 92 C72 61.64 72 31.28 72 0 C73.65 0 75.3 0 77 0 C77 32.01 77 64.02 77 97 C57.53 97 38.06 97 18 97 C18 86.77 18 76.54 18 66 C17.01 66 16.02 66 15 66 C15 77.22 15 88.44 15 100 C36.45 100 57.9 100 80 100 C80 67 80 34 80 0 C81.65 0 83.3 0 85 0 C85 34.65 85 69.3 85 105 C59.92 105 34.84 105 9 105 C9 92.13 9 79.26 9 66 C6.03 66 3.06 66 0 66 C0 44.22 0 22.44 0 0 Z " fill="#B7EF4A" transform="translate(588,504)"/>
<path d="M0 0 C21.12 0 42.24 0 64 0 C64 21.78 64 43.56 64 66 C50.47 66 36.94 66 23 66 C23 74.58 23 83.16 23 92 C39.17 92 55.34 92 72 92 C72 61.64 72 31.28 72 0 C73.65 0 75.3 0 77 0 C77 32.01 77 64.02 77 97 C57.53 97 38.06 97 18 97 C18 86.77 18 76.54 18 66 C16.68 66 15.36 66 14 66 C14 77.55 14 89.1 14 101 C36.11 101 58.22 101 81 101 C81 67.67 81 34.34 81 0 C82.65 0 84.3 0 86 0 C86 34.65 86 69.3 86 105 C60.92 105 35.84 105 10 105 C10 92.13 10 79.26 10 66 C6.7 66 3.4 66 0 66 C0 44.22 0 22.44 0 0 Z " fill="#BEF74C" transform="translate(1243,504)"/>
<path d="M0 0 C20.79 0 41.58 0 63 0 C63 21.78 63 43.56 63 66 C49.8 66 36.6 66 23 66 C23 74.58 23 83.16 23 92 C39.17 92 55.34 92 72 92 C72 61.64 72 31.28 72 0 C73.65 0 75.3 0 77 0 C77 32.01 77 64.02 77 97 C57.53 97 38.06 97 18 97 C18 86.77 18 76.54 18 66 C16.68 66 15.36 66 14 66 C14 77.55 14 89.1 14 101 C35.78 101 57.56 101 80 101 C80 67.67 80 34.34 80 0 C81.65 0 83.3 0 85 0 C85 34.65 85 69.3 85 105 C59.92 105 34.84 105 9 105 C9 92.13 9 79.26 9 66 C6.03 66 3.06 66 0 66 C0 44.22 0 22.44 0 0 Z " fill="#BBF44B" transform="translate(1493,504)"/>
<path d="M0 0 C20.79 0 41.58 0 63 0 C63 21.78 63 43.56 63 66 C49.8 66 36.6 66 23 66 C23 74.58 23 83.16 23 92 C38.84 92 54.68 92 71 92 C71 61.64 71 31.28 71 0 C72.65 0 74.3 0 76 0 C76 32.01 76 64.02 76 97 C56.86 97 37.72 97 18 97 C18 86.77 18 76.54 18 66 C16.68 66 15.36 66 14 66 C14 77.55 14 89.1 14 101 C35.78 101 57.56 101 80 101 C80 67.67 80 34.34 80 0 C81.65 0 83.3 0 85 0 C85 34.65 85 69.3 85 105 C59.92 105 34.84 105 9 105 C9 92.13 9 79.26 9 66 C6.03 66 3.06 66 0 66 C0 44.22 0 22.44 0 0 Z " fill="#BBF44B" transform="translate(994,504)"/>
<path d="M0 0 C20.79 0 41.58 0 63 0 C63 21.78 63 43.56 63 66 C49.8 66 36.6 66 23 66 C23 74.58 23 83.16 23 92 C38.84 92 54.68 92 71 92 C71 61.64 71 31.28 71 0 C72.65 0 74.3 0 76 0 C76 32.01 76 64.02 76 97 C56.86 97 37.72 97 18 97 C18 86.77 18 76.54 18 66 C16.68 66 15.36 66 14 66 C14 77.55 14 89.1 14 101 C35.78 101 57.56 101 80 101 C80 67.67 80 34.34 80 0 C81.65 0 83.3 0 85 0 C85 34.65 85 69.3 85 105 C59.92 105 34.84 105 9 105 C9 92.13 9 79.26 9 66 C6.03 66 3.06 66 0 66 C0 44.22 0 22.44 0 0 Z " fill="#BFF84C" transform="translate(682,504)"/>
<path d="M0 0 C10.23 0 20.46 0 31 0 C31 8.58 31 17.16 31 26 C37.86612807 25.96041531 37.86612807 25.96041531 44.73217773 25.90991211 C46.00750366 25.90616577 46.00750366 25.90616577 47.30859375 25.90234375 C48.62041626 25.89448853 48.62041626 25.89448853 49.95874023 25.88647461 C52 26 52 26 53 27 C53.09803082 30.05927044 53.12990898 33.09597888 53.12025452 36.15565491 C53.12110894 37.12839479 53.12196337 38.10113468 53.12284368 39.10335153 C53.12450144 42.38931316 53.11897229 45.67522465 53.11352539 48.96118164 C53.11324356 51.3061269 53.11340118 53.65107225 53.1139679 55.99601746 C53.11425602 62.38419193 53.10835693 68.7723478 53.10139394 75.16051793 C53.09579345 81.15351187 53.09477212 87.1465058 53.09374207 93.13950186 C53.09155123 105.01300802 53.08489031 116.88650733 53.07543945 128.76000977 C53.06626614 140.29679327 53.05918491 151.83357492 53.05493164 163.37036133 C53.05466892 164.08100355 53.05440619 164.79164578 53.05413551 165.52382261 C53.05283051 169.08876093 53.05156679 172.65369925 53.05032361 176.21863759 C53.03995002 205.8124296 53.02225674 235.40621448 53 265 C48.68839387 267.15580306 43.49072469 266.12268117 39 265 C39 190.42 39 115.84 39 39 C36.36 39 33.72 39 31 39 C31 69.69 31 100.38 31 132 C30.67 132 30.34 132 30 132 C30 110.22 30 88.44 30 66 C20.1 66 10.2 66 0 66 C0 44.22 0 22.44 0 0 Z " fill="#89A73F" transform="translate(371,238)"/>
<path d="M0 0 C2.64 0 5.28 0 8 0 C8 17.49 8 34.98 8 53 C-59.32 53 -126.64 53 -196 53 C-196 44.42 -196 35.84 -196 27 C-131.32 27 -66.64 27 0 27 C0 18.09 0 9.18 0 0 Z " fill="#0D1117" transform="translate(558,543)"/>
<path d="M0 0 C10.56 0 21.12 0 32 0 C32 8.58 32 17.16 32 26 C39.26 26 46.52 26 54 26 C54 52.07 54 78.14 54 105 C53.67 105 53.34 105 53 105 C53 79.26 53 53.52 53 27 C46.07 27 39.14 27 32 27 C32 27.99 32 28.98 32 30 C37.61 30 43.22 30 49 30 C49 53.43 49 76.86 49 101 C-24.26 101 -97.52 101 -173 101 C-173 89.45 -173 77.9 -173 66 C-171.68 66 -170.36 66 -169 66 C-169 75.9 -169 85.8 -169 96 C-164.71 96 -160.42 96 -156 96 C-156 95.01 -156 94.02 -156 93 C-158.97 93 -161.94 93 -165 93 C-165 84.09 -165 75.18 -165 66 C-164.67 66 -164.34 66 -164 66 C-164 74.58 -164 83.16 -164 92 C-96.68 92 -29.36 92 40 92 C40 74.51 40 57.02 40 39 C37.36 39 34.72 39 32 39 C32 47.91 32 56.82 32 66 C21.44 66 10.88 66 0 66 C0 44.22 0 22.44 0 0 Z " fill="#BBF44B" transform="translate(526,504)"/>
<path d="M0 0 C2.97 0 5.94 0 9 0 C9 17.49 9 34.98 9 53 C-48.42 53 -105.84 53 -165 53 C-165 44.42 -165 35.84 -165 27 C-110.55 27 -56.1 27 0 27 C0 18.09 0 9.18 0 0 Z " fill="#0D1217" transform="translate(308,543)"/>
<path d="M0 0 C0.99 0 1.98 0 3 0 C3 11.55 3 23.1 3 35 C29.73 35 56.46 35 84 35 C84 23.45 84 11.9 84 0 C104.46 0 124.92 0 146 0 C146 21.78 146 43.56 146 66 C125.21 66 104.42 66 83 66 C83 57.09 83 48.18 83 39 C55.61 39 28.22 39 0 39 C0 26.13 0 13.26 0 0 Z " fill="#9EC747" transform="translate(1597,304)"/>
<path d="M0 0 C10.56 0 21.12 0 32 0 C32 21.78 32 43.56 32 66 C52.13 66 72.26 66 93 66 C93 74.58 93 83.16 93 92 C69.57 92 46.14 92 22 92 C22 83.42 22 74.84 22 66 C20.68 66 19.36 66 18 66 C18 76.23 18 86.46 18 97 C42.75 97 67.5 97 93 97 C93 98.32 93 99.64 93 101 C66.6 101 40.2 101 13 101 C13 89.45 13 77.9 13 66 C12.01 66 11.02 66 10 66 C10 78.87 10 91.74 10 105 C9.67 105 9.34 105 9 105 C9 92.13 9 79.26 9 66 C6.03 66 3.06 66 0 66 C0 44.22 0 22.44 0 0 Z " fill="#8CAB40" transform="translate(1587,238)"/>
<path d="M0 0 C20.79 0 41.58 0 63 0 C63 21.78 63 43.56 63 66 C42.21 66 21.42 66 0 66 C0 44.22 0 22.44 0 0 Z " fill="#9EC647" transform="translate(1368,304)"/>
<path d="M0 0 C20.46 0 40.92 0 62 0 C62 21.78 62 43.56 62 66 C41.54 66 21.08 66 0 66 C0 44.22 0 22.44 0 0 Z " fill="#B8EE4B" transform="translate(1244,437)"/>
<path d="M0 0 C20.46 0 40.92 0 62 0 C62 21.78 62 43.56 62 66 C41.54 66 21.08 66 0 66 C0 44.22 0 22.44 0 0 Z " fill="#9EC747" transform="translate(1494,304)"/>
<path d="M0 0 C20.46 0 40.92 0 62 0 C62 21.78 62 43.56 62 66 C41.54 66 21.08 66 0 66 C0 44.22 0 22.44 0 0 Z " fill="#9EC747" transform="translate(1244,304)"/>
<path d="M0 0 C20.46 0 40.92 0 62 0 C62 21.78 62 43.56 62 66 C41.54 66 21.08 66 0 66 C0 44.22 0 22.44 0 0 Z " fill="#9EC747" transform="translate(901,304)"/>
<path d="M0 0 C20.46 0 40.92 0 62 0 C62 21.78 62 43.56 62 66 C41.54 66 21.08 66 0 66 C0 44.22 0 22.44 0 0 Z " fill="#9EC747" transform="translate(589,304)"/>
<path d="M0 0 C20.46 0 40.92 0 62 0 C62 21.78 62 43.56 62 66 C41.54 66 21.08 66 0 66 C0 44.22 0 22.44 0 0 Z " fill="#9EC747" transform="translate(89,304)"/>
<path d="M0 0 C20.13 0 40.26 0 61 0 C61 21.78 61 43.56 61 66 C40.87 66 20.74 66 0 66 C0 44.22 0 22.44 0 0 Z " fill="#B8EE4B" transform="translate(1494,437)"/>
<path d="M0 0 C20.13 0 40.26 0 61 0 C61 21.78 61 43.56 61 66 C40.87 66 20.74 66 0 66 C0 44.22 0 22.44 0 0 Z " fill="#B8EE4B" transform="translate(683,437)"/>
<path d="M0 0 C20.13 0 40.26 0 61 0 C61 21.78 61 43.56 61 66 C40.87 66 20.74 66 0 66 C0 44.22 0 22.44 0 0 Z " fill="#9EC747" transform="translate(995,304)"/>
<path d="M0 0 C10.23 0 20.46 0 31 0 C31 8.58 31 17.16 31 26 C38.26 26 45.52 26 53 26 C53 52.07 53 78.14 53 105 C42.77 105 32.54 105 22 105 C22 113.91 22 122.82 22 132 C20.35 132 18.7 132 17 132 C17 121.77 17 111.54 17 101 C27.23 101 37.46 101 48 101 C48 77.9 48 54.8 48 31 C42.39 31 36.78 31 31 31 C31 32.32 31 33.64 31 35 C35.29 35 39.58 35 44 35 C44 55.46 44 75.92 44 97 C33.77 97 23.54 97 13 97 C13 108.55 13 120.1 13 132 C11.35 132 9.7 132 8 132 C8 118.8 8 105.6 8 92 C18.23 92 28.46 92 39 92 C39 74.51 39 57.02 39 39 C36.36 39 33.72 39 31 39 C31 47.91 31 56.82 31 66 C20.77 66 10.54 66 0 66 C0 44.22 0 22.44 0 0 Z " fill="#8CAA40" transform="translate(1182,238)"/>
<path d="M0 0 C5.61 0 11.22 0 17 0 C17 33.33 17 66.66 17 101 C18.65 101.33 20.3 101.66 22 102 C22 145.56 22 189.12 22 234 C20.68 234.33 19.36 234.66 18 235 C18 268.33 18 301.66 18 336 C-24.57 336 -67.14 336 -111 336 C-111 324.45 -111 312.9 -111 301 C-109.68 301 -108.36 301 -107 301 C-107 311.23 -107 321.46 -107 332 C-67.07 332 -27.14 332 14 332 C14 299.99 14 267.98 14 235 C12.35 234.67 10.7 234.34 9 234 C9 190.44 9 146.88 9 102 C10.65 101.67 12.3 101.34 14 101 C14 68.99 14 36.98 14 4 C9.38 4 4.76 4 0 4 C0 2.68 0 1.36 0 0 Z " fill="#1A221A" transform="translate(963,269)"/>
<path d="M0 0 C5.61 0 11.22 0 17 0 C17 23.1 17 46.2 17 70 C-14.02 70 -45.04 70 -77 70 C-77 80.23 -77 90.46 -77 101 C-75.35 101.33 -73.7 101.66 -72 102 C-72 145.56 -72 189.12 -72 234 C-73.65 234.33 -75.3 234.66 -77 235 C-77 268 -77 301 -77 335 C-98.45 335 -119.9 335 -142 335 C-142 323.78 -142 312.56 -142 301 C-141.01 301 -140.02 301 -139 301 C-139 311.23 -139 321.46 -139 332 C-119.53 332 -100.06 332 -80 332 C-80.33 299.99 -80.66 267.98 -81 235 C-82.32 234.67 -83.64 234.34 -85 234 C-85 190.44 -85 146.88 -85 102 C-83.02 101.505 -83.02 101.505 -81 101 C-80.67 89.45 -80.34 77.9 -80 66 C-49.31 66 -18.62 66 13 66 C13 45.54 13 25.08 13 4 C8.71 4 4.42 4 0 4 C0 2.68 0 1.36 0 0 Z " fill="#121718" transform="translate(1837,269)"/>
<path d="M0 0 C10.23 0 20.46 0 31 0 C31 8.58 31 17.16 31 26 C38.26 26 45.52 26 53 26 C53 52.07 53 78.14 53 105 C35.51 105 18.02 105 0 105 C0 103.68 0 102.36 0 101 C15.84 101 31.68 101 48 101 C48 77.9 48 54.8 48 31 C42.39 31 36.78 31 31 31 C31 32.32 31 33.64 31 35 C34.96 35 38.92 35 43 35 C43 55.13 43 75.26 43 96 C28.81 96 14.62 96 0 96 C0 95.01 0 94.02 0 93 C13.2 93 26.4 93 40 93 C40 75.18 40 57.36 40 39 C37.03 39 34.06 39 31 39 C31 47.91 31 56.82 31 66 C20.77 66 10.54 66 0 66 C0 44.22 0 22.44 0 0 Z " fill="#BEF74C" transform="translate(1182,504)"/>
<path d="M0 0 C10.23 0 20.46 0 31 0 C31 8.58 31 17.16 31 26 C38.26 26 45.52 26 53 26 C53 39.2 53 52.4 53 66 C35.51 66 18.02 66 0 66 C0 44.22 0 22.44 0 0 Z " fill="#8FAE41" transform="translate(745,238)"/>
<path d="M0 0 C5.61 0 11.22 0 17 0 C17 33.33 17 66.66 17 101 C18.65 101.33 20.3 101.66 22 102 C22 145.56 22 189.12 22 234 C20.35 234.33 18.7 234.66 17 235 C17 268.33 17 301.66 17 336 C-4.78 336 -26.56 336 -49 336 C-49 324.45 -49 312.9 -49 301 C-47.68 301 -46.36 301 -45 301 C-45 311.23 -45 321.46 -45 332 C-25.53 332 -6.06 332 14 332 C14 299.99 14 267.98 14 235 C12.35 234.67 10.7 234.34 9 234 C9 190.44 9 146.88 9 102 C11.475 101.505 11.475 101.505 14 101 C14 68.99 14 36.98 14 4 C9.38 4 4.76 4 0 4 C0 2.68 0 1.36 0 0 Z " fill="#121818" transform="translate(1556,269)"/>
<path d="M0 0 C9.9 0 19.8 0 30 0 C30 21.78 30 43.56 30 66 C19.77 66 9.54 66 -1 66 C-1 57.09 -1 48.18 -1 39 C-13.87 39 -26.74 39 -40 39 C-40 47.91 -40 56.82 -40 66 C-41.65 66 -43.3 66 -45 66 C-45 55.77 -45 45.54 -45 35 C-30.48 35 -15.96 35 -1 35 C-1 33.68 -1 32.36 -1 31 C-16.84 31 -32.68 31 -49 31 C-49 42.55 -49 54.1 -49 66 C-50.65 66 -52.3 66 -54 66 C-54 52.8 -54 39.6 -54 26 C-36.18 26 -18.36 26 0 26 C0 17.42 0 8.84 0 0 Z " fill="#B8EE4B" transform="translate(1369,437)"/>
<path d="M0 0 C5.61 0 11.22 0 17 0 C17 23.1 17 46.2 17 70 C-34.48 70 -85.96 70 -139 70 C-139 80.23 -139 90.46 -139 101 C-137.35 101.33 -135.7 101.66 -134 102 C-133.97667144 119.19338969 -133.95902104 136.38677447 -133.94818783 153.58017635 C-133.94302478 161.562815 -133.93598191 169.54544383 -133.92456055 177.52807617 C-133.91461398 184.48323799 -133.90814664 191.43839269 -133.90591151 198.39356142 C-133.90460435 202.07851927 -133.90151821 205.76345678 -133.89426994 209.44840813 C-133.8862566 213.55537708 -133.88600884 217.66231037 -133.88647461 221.76928711 C-133.88287933 222.99998932 -133.87928406 224.23069153 -133.87557983 225.49868774 C-133.8769545 226.61073074 -133.87832916 227.72277374 -133.87974548 228.86851501 C-133.87882369 229.84100661 -133.8779019 230.81349821 -133.87695217 231.81545925 C-134 234 -134 234 -135 235 C-139.43291584 235.1453415 -142.67322878 235.08169281 -147 234 C-147 190.44 -147 146.88 -147 102 C-145.02 101.505 -145.02 101.505 -143 101 C-142.67 89.45 -142.34 77.9 -142 66 C-90.52 66 -39.04 66 14 66 C14 45.54 14 25.08 14 4 C9.38 4 4.76 4 0 4 C0 2.68 0 1.36 0 0 Z " fill="#111718" transform="translate(308,269)"/>
<path d="M0 0 C9.9 0 19.8 0 30 0 C30 21.78 30 43.56 30 66 C19.77 66 9.54 66 -1 66 C-1 57.09 -1 48.18 -1 39 C-14.2 39 -27.4 39 -41 39 C-41 47.91 -41 56.82 -41 66 C-42.65 66 -44.3 66 -46 66 C-46 55.77 -46 45.54 -46 35 C-31.15 35 -16.3 35 -1 35 C-1 33.68 -1 32.36 -1 31 C-17.17 31 -33.34 31 -50 31 C-50 42.55 -50 54.1 -50 66 C-51.32 66 -52.64 66 -54 66 C-54 53.13 -54 40.26 -54 27 C-36.18 27 -18.36 27 0 27 C0 18.09 0 9.18 0 0 Z " fill="#B8EE4B" transform="translate(1120,437)"/>
<path d="M0 0 C10.23 0 20.46 0 31 0 C31 8.58 31 17.16 31 26 C38.26 26 45.52 26 53 26 C53 39.2 53 52.4 53 66 C51.35 66 49.7 66 48 66 C48 54.45 48 42.9 48 31 C42.39 31 36.78 31 31 31 C31 32.32 31 33.64 31 35 C35.29 35 39.58 35 44 35 C44 45.23 44 55.46 44 66 C42.35 66 40.7 66 39 66 C39 57.09 39 48.18 39 39 C36.36 39 33.72 39 31 39 C31 47.91 31 56.82 31 66 C20.77 66 10.54 66 0 66 C0 44.22 0 22.44 0 0 Z " fill="#B9EF4C" transform="translate(839,437)"/>
<path d="M0 0 C0.99 0 1.98 0 3 0 C3 11.55 3 23.1 3 35 C8.94 35 14.88 35 21 35 C21 33.68 21 32.36 21 31 C16.71 31 12.42 31 8 31 C8 20.77 8 10.54 8 0 C8.99 0 9.98 0 11 0 C11 8.91 11 17.82 11 27 C14.63 27 18.26 27 22 27 C22 18.09 22 9.18 22 0 C31.9 0 41.8 0 52 0 C52 21.78 52 43.56 52 66 C41.77 66 31.54 66 21 66 C21 57.09 21 48.18 21 39 C14.07 39 7.14 39 0 39 C0 26.13 0 13.26 0 0 Z " fill="#B8EE4B" transform="translate(786,437)"/>
<path d="M0 0 C5.61 0 11.22 0 17 0 C17 33.33 17 66.66 17 101 C18.65 101.33 20.3 101.66 22 102 C22 145.56 22 189.12 22 234 C17.68839387 236.15580306 12.49072469 235.12268117 8 234 C8 190.44 8 146.88 8 102 C9.98 101.505 9.98 101.505 12 101 C12.33 68.99 12.66 36.98 13 4 C8.71 4 4.42 4 0 4 C0 2.68 0 1.36 0 0 Z " fill="#1E271C" transform="translate(402,269)"/>
<path d="M0 0 C10.23 0 20.46 0 31 0 C31 21.78 31 43.56 31 66 C21.1 66 11.2 66 1 66 C1 87.78 1 109.56 1 132 C0.67 132 0.34 132 0 132 C0 88.44 0 44.88 0 0 Z " fill="#ABDB4A" transform="translate(1680,371)"/>
<path d="M0 0 C10.23 0 20.46 0 31 0 C31 21.78 31 43.56 31 66 C21.1 66 11.2 66 1 66 C1 87.78 1 109.56 1 132 C0.67 132 0.34 132 0 132 C0 88.44 0 44.88 0 0 Z " fill="#ABDB4A" transform="translate(900,371)"/>
<path d="M0 0 C10.23 0 20.46 0 31 0 C31 21.78 31 43.56 31 66 C21.1 66 11.2 66 1 66 C1 87.78 1 109.56 1 132 C0.67 132 0.34 132 0 132 C0 88.44 0 44.88 0 0 Z " fill="#ABDB4A" transform="translate(588,371)"/>
<path d="M0 0 C10.23 0 20.46 0 31 0 C31 43.56 31 87.12 31 132 C30.67 132 30.34 132 30 132 C30 110.22 30 88.44 30 66 C20.1 66 10.2 66 0 66 C0 44.22 0 22.44 0 0 Z " fill="#ACDD4A" transform="translate(371,371)"/>
<path d="M0 0 C10.23 0 20.46 0 31 0 C31 43.56 31 87.12 31 132 C30.67 132 30.34 132 30 132 C30 110.22 30 88.44 30 66 C20.1 66 10.2 66 0 66 C0 44.22 0 22.44 0 0 Z " fill="#ADDD4A" transform="translate(121,371)"/>
<path d="M0 0 C10.23 0 20.46 0 31 0 C31 21.78 31 43.56 31 66 C20.77 66 10.54 66 0 66 C0 44.22 0 22.44 0 0 Z " fill="#9EC747" transform="translate(1119,304)"/>
<path d="M0 0 C10.23 0 20.46 0 31 0 C31 21.78 31 43.56 31 66 C20.77 66 10.54 66 0 66 C0 44.22 0 22.44 0 0 Z " fill="#9EC747" transform="translate(339,304)"/>
<path d="M0 0 C5.61 0 11.22 0 17 0 C17 33.33 17 66.66 17 101 C18.65 101.33 20.3 101.66 22 102 C22 145.56 22 189.12 22 234 C20.35 234.33 18.7 234.66 17 235 C17 268 17 301 17 335 C-4.45 335 -25.9 335 -48 335 C-48 323.78 -48 312.56 -48 301 C-47.01 301 -46.02 301 -45 301 C-45 311.23 -45 321.46 -45 332 C-25.53 332 -6.06 332 14 332 C14 299.99 14 267.98 14 235 C13.34 234.67 12.68 234.34 12 234 C12.66 234 13.32 234 14 234 C14 190.44 14 146.88 14 102 C13.01 101.505 13.01 101.505 12 101 C12.66 101 13.32 101 14 101 C14 68.99 14 36.98 14 4 C9.38 4 4.76 4 0 4 C0 2.68 0 1.36 0 0 Z " fill="#0E1217" transform="translate(651,269)"/>
<path d="M0 0 C9.9 0 19.8 0 30 0 C30 21.78 30 43.56 30 66 C20.1 66 10.2 66 0 66 C0 44.22 0 22.44 0 0 Z " fill="#B9EF4C" transform="translate(1681,437)"/>
<path d="M0 0 C9.9 0 19.8 0 30 0 C30 21.78 30 43.56 30 66 C20.1 66 10.2 66 0 66 C0 44.22 0 22.44 0 0 Z " fill="#B9EF4C" transform="translate(1026,437)"/>
<path d="M0 0 C9.9 0 19.8 0 30 0 C30 21.78 30 43.56 30 66 C20.1 66 10.2 66 0 66 C0 44.22 0 22.44 0 0 Z " fill="#B9EF4C" transform="translate(995,437)"/>
<path d="M0 0 C9.9 0 19.8 0 30 0 C30 21.78 30 43.56 30 66 C20.1 66 10.2 66 0 66 C0 44.22 0 22.44 0 0 Z " fill="#B9EF4C" transform="translate(901,437)"/>
<path d="M0 0 C9.9 0 19.8 0 30 0 C30 21.78 30 43.56 30 66 C20.1 66 10.2 66 0 66 C0 44.22 0 22.44 0 0 Z " fill="#B9EF4C" transform="translate(589,437)"/>
<path d="M0 0 C9.9 0 19.8 0 30 0 C30 21.78 30 43.56 30 66 C20.1 66 10.2 66 0 66 C0 44.22 0 22.44 0 0 Z " fill="#B9EF4C" transform="translate(371,437)"/>
<path d="M0 0 C9.9 0 19.8 0 30 0 C30 21.78 30 43.56 30 66 C20.1 66 10.2 66 0 66 C0 44.22 0 22.44 0 0 Z " fill="#B9EF4C" transform="translate(340,437)"/>
<path d="M0 0 C9.9 0 19.8 0 30 0 C30 21.78 30 43.56 30 66 C20.1 66 10.2 66 0 66 C0 44.22 0 22.44 0 0 Z " fill="#B9EF4C" transform="translate(121,437)"/>
<path d="M0 0 C9.9 0 19.8 0 30 0 C30 21.78 30 43.56 30 66 C20.1 66 10.2 66 0 66 C0 44.22 0 22.44 0 0 Z " fill="#B9EF4C" transform="translate(90,437)"/>
<path d="M0 0 C9.9 0 19.8 0 30 0 C30 21.78 30 43.56 30 66 C20.1 66 10.2 66 0 66 C0 44.22 0 22.44 0 0 Z " fill="#9FC848" transform="translate(1151,304)"/>
<path d="M0 0 C9.9 0 19.8 0 30 0 C30 21.78 30 43.56 30 66 C20.1 66 10.2 66 0 66 C0 44.22 0 22.44 0 0 Z " fill="#9FC848" transform="translate(371,304)"/>
<path d="M0 0 C23.43 0 46.86 0 71 0 C71 8.58 71 17.16 71 26 C47.57 26 24.14 26 0 26 C0 17.42 0 8.84 0 0 Z " fill="#0D1117" transform="translate(1609,304)"/>
<path d="M0 0 C2.64 0 5.28 0 8 0 C8 17.49 8 34.98 8 53 C-8.17 53 -24.34 53 -41 53 C-41 44.42 -41 35.84 -41 27 C-27.47 27 -13.94 27 0 27 C0 18.09 0 9.18 0 0 Z " fill="#0D1217" transform="translate(1463,543)"/>
<path d="M0 0 C2.64 0 5.28 0 8 0 C8 17.49 8 34.98 8 53 C-7.84 53 -23.68 53 -40 53 C-40 44.42 -40 35.84 -40 27 C-26.8 27 -13.6 27 0 27 C0 18.09 0 9.18 0 0 Z " fill="#0D1217" transform="translate(1213,543)"/>
<path d="M0 0 C5.61 0 11.22 0 17 0 C17 33.33 17 66.66 17 101 C18.485 101.495 18.485 101.495 20 102 C13.4 102 6.8 102 0 102 C0 70.98 0 39.96 0 8 C2.97 8 5.94 8 9 8 C9 38.69 9 69.38 9 101 C10.32 101 11.64 101 13 101 C13 68.99 13 36.98 13 4 C8.71 4 4.42 4 0 4 C0 2.68 0 1.36 0 0 Z " fill="#171D1A" transform="translate(1057,269)"/>
<path d="M0 0 C5.61 0 11.22 0 17 0 C17 23.1 17 46.2 17 70 C-56.26 70 -129.52 70 -205 70 C-205 58.45 -205 46.9 -205 35 C-204.01 35 -203.02 35 -202 35 C-202 45.23 -202 55.46 -202 66 C-131.05 66 -60.1 66 13 66 C13 45.54 13 25.08 13 4 C8.71 4 4.42 4 0 4 C0 2.68 0 1.36 0 0 Z " fill="#1F281C" transform="translate(558,535)"/>
<path d="M0 0 C5.94 0 11.88 0 18 0 C18 1.32 18 2.64 18 4 C13.38 4 8.76 4 4 4 C4 36.01 4 68.02 4 101 C5.485 101.495 5.485 101.495 7 102 C6.01 102 5.02 102 4 102 C4 135.33 4 168.66 4 203 C-17.78 203 -39.56 203 -62 203 C-62 191.45 -62 179.9 -62 168 C-60.68 168 -59.36 168 -58 168 C-58 178.23 -58 188.46 -58 199 C-38.86 199 -19.72 199 0 199 C0 133.33 0 67.66 0 0 Z " fill="#242F1E" transform="translate(758,402)"/>
<path d="M0 0 C5.28 0 10.56 0 16 0 C16 23.1 16 46.2 16 70 C-47.03 70 -110.06 70 -175 70 C-175 58.45 -175 46.9 -175 35 C-173.68 35 -172.36 35 -171 35 C-171 45.23 -171 55.46 -171 66 C-110.28 66 -49.56 66 13 66 C13 45.21 13 24.42 13 3 C8.71 3 4.42 3 0 3 C0 2.01 0 1.02 0 0 Z " fill="#1B241B" transform="translate(309,535)"/>
<path d="M0 0 C15.84 0 31.68 0 48 0 C48 1.32 48 2.64 48 4 C33.48 4 18.96 4 4 4 C4 14.23 4 24.46 4 35 C5.485 35.495 5.485 35.495 7 36 C6.01 36 5.02 36 4 36 C4 69.33 4 102.66 4 137 C-18.11 137 -40.22 137 -63 137 C-63 125.45 -63 113.9 -63 102 C-61.68 102 -60.36 102 -59 102 C-59 112.23 -59 122.46 -59 133 C-39.53 133 -20.06 133 0 133 C0 89.11 0 45.22 0 0 Z " fill="#242F1E" transform="translate(1320,468)"/>
<path d="M0 0 C16.17 0 32.34 0 49 0 C49 1.32 49 2.64 49 4 C34.15 4 19.3 4 4 4 C4 14.23 4 24.46 4 35 C5.485 35.495 5.485 35.495 7 36 C6.01 36 5.02 36 4 36 C4 69.33 4 102.66 4 137 C-17.78 137 -39.56 137 -62 137 C-62 125.45 -62 113.9 -62 102 C-60.68 102 -59.36 102 -58 102 C-58 112.23 -58 122.46 -58 133 C-38.86 133 -19.72 133 0 133 C0 89.11 0 45.22 0 0 Z " fill="#242F1E" transform="translate(1070,468)"/>
<path d="M0 0 C1.65 0 3.3 0 5 0 C5 32.01 5 64.02 5 97 C-34.93 97 -74.86 97 -116 97 C-116 86.77 -116 76.54 -116 66 C-115.67 66 -115.34 66 -115 66 C-115 75.9 -115 85.8 -115 96 C-111.04 96 -107.08 96 -103 96 C-103 95.01 -103 94.02 -103 93 C-105.97 93 -108.94 93 -112 93 C-112 84.09 -112 75.18 -112 66 C-111.67 66 -111.34 66 -111 66 C-111 74.58 -111 83.16 -111 92 C-74.37 92 -37.74 92 0 92 C0 61.64 0 31.28 0 0 Z " fill="#9DCB41" transform="translate(972,504)"/>
<path d="M0 0 C0.33 0 0.66 0 1 0 C1 20.46 1 40.92 1 62 C-69.95 62 -140.9 62 -214 62 C-214 51.77 -214 41.54 -214 31 C-213.67 31 -213.34 31 -213 31 C-213 40.9 -213 50.8 -213 61 C-208.71 61 -204.42 61 -200 61 C-200 60.01 -200 59.02 -200 58 C-202.97 58 -205.94 58 -209 58 C-209 49.09 -209 40.18 -209 31 C-208.67 31 -208.34 31 -208 31 C-208 39.58 -208 48.16 -208 57 C-140.68 57 -73.36 57 -4 57 C-4 39.51 -4 22.02 -4 4 C-3.67 4 -3.34 4 -3 4 C-3 21.82 -3 39.64 -3 58 C-16.2 58 -29.4 58 -43 58 C-43 58.99 -43 59.98 -43 61 C-28.81 61 -14.62 61 0 61 C0 40.87 0 20.74 0 0 Z " fill="#9AC640" transform="translate(570,539)"/>
<path d="M0 0 C6.93 0 13.86 0 21 0 C21.14786744 4.8400183 21.29160016 9.67991845 21.42724609 14.52026367 C21.47375213 16.14532204 21.5220757 17.77033007 21.57275391 19.39526367 C22.17899816 38.93736154 22 58.43339334 22 78 C-36.74 78 -95.48 78 -156 78 C-156 76.68 -156 75.36 -156 74 C-98.58 74 -41.16 74 18 74 C18 50.57 18 27.14 18 3 C12.06 3 6.12 3 0 3 C0 2.01 0 1.02 0 0 Z " fill="#C4FC4C" transform="translate(308,531)"/>
<path d="M0 0 C5.61 0 11.22 0 17 0 C17 23.1 17 46.2 17 70 C6.77 70 -3.46 70 -14 70 C-14 80.23 -14 90.46 -14 101 C-13.01 101.33 -12.02 101.66 -11 102 C-11.99 102 -12.98 102 -14 102 C-14 113.55 -14 125.1 -14 137 C-24.23 137 -34.46 137 -45 137 C-45 147.23 -45 157.46 -45 168 C-46.32 168 -47.64 168 -49 168 C-49 156.45 -49 144.9 -49 133 C-38.77 133 -28.54 133 -18 133 C-18.185625 128.441875 -18.37125 123.88375 -18.5625 119.1875 C-19.1976817 101.42763282 -18.69008122 83.75101237 -18 66 C-7.77 66 2.46 66 13 66 C13 45.54 13 25.08 13 4 C8.71 4 4.42 4 0 4 C0 2.68 0 1.36 0 0 Z " fill="#1A221B" transform="translate(1213,269)"/>
<path d="M0 0 C0.33 0 0.66 0 1 0 C1 8.58 1 17.16 1 26 C8.26 26 15.52 26 23 26 C23 39.2 23 52.4 23 66 C15.41 66 7.82 66 0 66 C0 44.22 0 22.44 0 0 Z " fill="#809C3C" transform="translate(775,238)"/>
<path d="M0 0 C1.32 0 2.64 0 4 0 C4 12.87 4 25.74 4 39 C-47.48 39 -98.96 39 -152 39 C-152 47.91 -152 56.82 -152 66 C-153.65 66 -155.3 66 -157 66 C-157 55.77 -157 45.54 -157 35 C-105.19 35 -53.38 35 0 35 C0 23.45 0 11.9 0 0 Z " fill="#9DC647" transform="translate(326,304)"/>
<path d="M0 0 C0.99 0 1.98 0 3 0 C3 10.23 3 20.46 3 31 C-48.15 31 -99.3 31 -152 31 C-152 42.55 -152 54.1 -152 66 C-153.65 66 -155.3 66 -157 66 C-157 53.13 -157 40.26 -157 27 C-105.19 27 -53.38 27 0 27 C0 18.09 0 9.18 0 0 Z " fill="#9CC447" transform="translate(318,304)"/>
<path d="M0 0 C0.33 0 0.66 0 1 0 C1 8.58 1 17.16 1 26 C8.26 26 15.52 26 23 26 C23 39.2 23 52.4 23 66 C21.68 66 20.36 66 19 66 C19 77.55 19 89.1 19 101 C18.67 101 18.34 101 18 101 C18 77.9 18 54.8 18 31 C12.39 31 6.78 31 1 31 C1 32.32 1 33.64 1 35 C5.62 35 10.24 35 15 35 C15 55.46 15 75.92 15 97 C14.67 97 14.34 97 14 97 C14 86.77 14 76.54 14 66 C13.01 66 12.02 66 11 66 C11 74.91 11 83.82 11 93 C-40.81 93 -92.62 93 -146 93 C-146 92.67 -146 92.34 -146 92 C-94.52 92 -43.04 92 10 92 C10 74.51 10 57.02 10 39 C7.03 39 4.06 39 1 39 C1 47.91 1 56.82 1 66 C0.67 66 0.34 66 0 66 C0 44.22 0 22.44 0 0 Z " fill="#738E38" transform="translate(307,238)"/>
<path d="M0 0 C5.61 0 11.22 0 17 0 C17 23.1 17 46.2 17 70 C-4.78 70 -26.56 70 -49 70 C-49 58.45 -49 46.9 -49 35 C-47.68 35 -46.36 35 -45 35 C-45 45.23 -45 55.46 -45 66 C-25.86 66 -6.72 66 13 66 C13 45.54 13 25.08 13 4 C8.71 4 4.42 4 0 4 C0 2.68 0 1.36 0 0 Z " fill="#242F1E" transform="translate(1213,535)"/>
<path d="M0 0 C5.61 0 11.22 0 17 0 C17 23.1 17 46.2 17 70 C-5.11 70 -27.22 70 -50 70 C-50 58.45 -50 46.9 -50 35 C-48.68 35 -47.36 35 -46 35 C-46 45.23 -46 55.46 -46 66 C-26.53 66 -7.06 66 13 66 C13 45.21 13 24.42 13 3 C8.71 3 4.42 3 0 3 C0 2.01 0 1.02 0 0 Z " fill="#232E1D" transform="translate(1463,535)"/>
<path d="M0 0 C1.32 0 2.64 0 4 0 C4 10.23 4 20.46 4 31 C-26.69 31 -57.38 31 -89 31 C-89 42.55 -89 54.1 -89 66 C-90.65 66 -92.3 66 -94 66 C-94 53.13 -94 40.26 -94 27 C-62.98 27 -31.96 27 0 27 C0 18.09 0 9.18 0 0 Z " fill="#98BF45" transform="translate(1846,304)"/>
<path d="M0 0 C1.65 0 3.3 0 5 0 C5 32.01 5 64.02 5 97 C-14.14 97 -33.28 97 -53 97 C-53 86.77 -53 76.54 -53 66 C-52.67 66 -52.34 66 -52 66 C-52 75.9 -52 85.8 -52 96 C-37.81 96 -23.62 96 -9 96 C-9 95.01 -9 94.02 -9 93 C-22.2 93 -35.4 93 -49 93 C-49 84.09 -49 75.18 -49 66 C-48.67 66 -48.34 66 -48 66 C-48 74.58 -48 83.16 -48 92 C-32.16 92 -16.32 92 0 92 C0 61.64 0 31.28 0 0 Z " fill="#99C640" transform="translate(753,504)"/>
<path d="M0 0 C1.65 0 3.3 0 5 0 C5 43.56 5 87.12 5 132 C3.35 132 1.7 132 0 132 C0 88.44 0 44.88 0 0 Z " fill="#9AC644" transform="translate(1760,371)"/>
<path d="M0 0 C1.65 0 3.3 0 5 0 C5 43.56 5 87.12 5 132 C3.35 132 1.7 132 0 132 C0 88.44 0 44.88 0 0 Z " fill="#9BC744" transform="translate(1752,371)"/>
<path d="M0 0 C1.65 0 3.3 0 5 0 C5 43.56 5 87.12 5 132 C3.35 132 1.7 132 0 132 C0 88.44 0 44.88 0 0 Z " fill="#9ECB45" transform="translate(1573,371)"/>
<path d="M0 0 C1.65 0 3.3 0 5 0 C5 43.56 5 87.12 5 132 C3.35 132 1.7 132 0 132 C0 88.44 0 44.88 0 0 Z " fill="#97C343" transform="translate(1565,371)"/>
<path d="M0 0 C1.65 0 3.3 0 5 0 C5 43.56 5 87.12 5 132 C3.35 132 1.7 132 0 132 C0 88.44 0 44.88 0 0 Z " fill="#9AC644" transform="translate(980,371)"/>
<path d="M0 0 C1.65 0 3.3 0 5 0 C5 43.56 5 87.12 5 132 C3.35 132 1.7 132 0 132 C0 88.44 0 44.88 0 0 Z " fill="#9BC744" transform="translate(972,371)"/>
<path d="M0 0 C1.65 0 3.3 0 5 0 C5 43.56 5 87.12 5 132 C3.35 132 1.7 132 0 132 C0 88.44 0 44.88 0 0 Z " fill="#9AC644" transform="translate(668,371)"/>
<path d="M0 0 C1.65 0 3.3 0 5 0 C5 43.56 5 87.12 5 132 C3.35 132 1.7 132 0 132 C0 88.44 0 44.88 0 0 Z " fill="#9BC744" transform="translate(660,371)"/>
<path d="M0 0 C1.65 0 3.3 0 5 0 C5 43.56 5 87.12 5 132 C3.35 132 1.7 132 0 132 C0 88.44 0 44.88 0 0 Z " fill="#9AC644" transform="translate(419,371)"/>
<path d="M0 0 C1.65 0 3.3 0 5 0 C5 43.56 5 87.12 5 132 C3.35 132 1.7 132 0 132 C0 88.44 0 44.88 0 0 Z " fill="#97C343" transform="translate(410,371)"/>
<path d="M0 0 C1.65 0 3.3 0 5 0 C5 43.56 5 87.12 5 132 C3.35 132 1.7 132 0 132 C0 88.44 0 44.88 0 0 Z " fill="#9ECB45" transform="translate(169,371)"/>
<path d="M0 0 C1.65 0 3.3 0 5 0 C5 43.56 5 87.12 5 132 C3.35 132 1.7 132 0 132 C0 88.44 0 44.88 0 0 Z " fill="#97C343" transform="translate(161,371)"/>
<path d="M0 0 C1.65 0 3.3 0 5 0 C5 32.01 5 64.02 5 97 C-14.47 97 -33.94 97 -54 97 C-54 86.77 -54 76.54 -54 66 C-53.67 66 -53.34 66 -53 66 C-53 75.9 -53 85.8 -53 96 C-38.48 96 -23.96 96 -9 96 C-9 95.01 -9 94.02 -9 93 C-22.2 93 -35.4 93 -49 93 C-49 92.67 -49 92.34 -49 92 C-32.83 92 -16.66 92 0 92 C0 61.64 0 31.28 0 0 Z " fill="#9AC740" transform="translate(1315,504)"/>
<path d="M0 0 C0.99 0 1.98 0 3 0 C3 12.87 3 25.74 3 39 C-27.69 39 -58.38 39 -90 39 C-90 47.91 -90 56.82 -90 66 C-91.65 66 -93.3 66 -95 66 C-95 55.77 -95 45.54 -95 35 C-63.65 35 -32.3 35 0 35 C0 23.45 0 11.9 0 0 Z " fill="#9EC747" transform="translate(1855,304)"/>
<path d="M0 0 C1.32 0 2.64 0 4 0 C4 34.65 4 69.3 4 105 C-13.49 105 -30.98 105 -49 105 C-49 103.68 -49 102.36 -49 101 C-32.83 101 -16.66 101 0 101 C0 67.67 0 34.34 0 0 Z " fill="#C1FA4C" transform="translate(1761,504)"/>
<path d="M0 0 C1.32 0 2.64 0 4 0 C4 34.65 4 69.3 4 105 C-13.49 105 -30.98 105 -49 105 C-49 103.68 -49 102.36 -49 101 C-32.83 101 -16.66 101 0 101 C0 67.67 0 34.34 0 0 Z " fill="#C1FA4C" transform="translate(669,504)"/>
<path d="M0 0 C0.33 0 0.66 0 1 0 C1 8.58 1 17.16 1 26 C8.26 26 15.52 26 23 26 C23 39.2 23 52.4 23 66 C22.67 66 22.34 66 22 66 C22 53.13 22 40.26 22 27 C15.07 27 8.14 27 1 27 C1 27.99 1 28.98 1 30 C6.94 30 12.88 30 19 30 C19 53.43 19 76.86 19 101 C18.67 101 18.34 101 18 101 C18 77.9 18 54.8 18 31 C12.72 31 7.44 31 2 31 C2 31.99 2 32.98 2 34 C6.29 34 10.58 34 15 34 C15 54.79 15 75.58 15 97 C8.07 96.505 8.07 96.505 1 96 C1 95.01 1 94.02 1 93 C3.97 93 6.94 93 10 93 C10 75.18 10 57.36 10 39 C7.03 39 4.06 39 1 39 C1 47.91 1 56.82 1 66 C0.67 66 0.34 66 0 66 C0 44.22 0 22.44 0 0 Z " fill="#AADC45" transform="translate(307,504)"/>
<path d="M0 0 C1.65 0 3.3 0 5 0 C5 34.65 5 69.3 5 105 C-2.26 105 -9.52 105 -17 105 C-17 103.68 -17 102.36 -17 101 C-11.39 101 -5.78 101 0 101 C0 67.67 0 34.34 0 0 Z " fill="#B4EA48" transform="translate(1324,504)"/>
<path d="M0 0 C1.65 0 3.3 0 5 0 C5 34.65 5 69.3 5 105 C-2.26 105 -9.52 105 -17 105 C-17 103.68 -17 102.36 -17 101 C-11.39 101 -5.78 101 0 101 C0 67.67 0 34.34 0 0 Z " fill="#B6ED49" transform="translate(762,504)"/>
<path d="M0 0 C0.33 0 0.66 0 1 0 C1 8.58 1 17.16 1 26 C8.26 26 15.52 26 23 26 C23 39.2 23 52.4 23 66 C21.35 66 19.7 66 18 66 C18 54.45 18 42.9 18 31 C12.39 31 6.78 31 1 31 C1 32.32 1 33.64 1 35 C5.29 35 9.58 35 14 35 C14 45.23 14 55.46 14 66 C12.35 66 10.7 66 9 66 C9 57.09 9 48.18 9 39 C6.36 39 3.72 39 1 39 C1 47.91 1 56.82 1 66 C0.67 66 0.34 66 0 66 C0 44.22 0 22.44 0 0 Z " fill="#A1D144" transform="translate(1181,437)"/>
<path d="M0 0 C0.33 0 0.66 0 1 0 C1 8.58 1 17.16 1 26 C8.26 26 15.52 26 23 26 C23 39.2 23 52.4 23 66 C21.35 66 19.7 66 18 66 C18 54.45 18 42.9 18 31 C12.39 31 6.78 31 1 31 C1 32.32 1 33.64 1 35 C5.29 35 9.58 35 14 35 C14 45.23 14 55.46 14 66 C12.35 66 10.7 66 9 66 C9 57.09 9 48.18 9 39 C6.36 39 3.72 39 1 39 C1 47.91 1 56.82 1 66 C0.67 66 0.34 66 0 66 C0 44.22 0 22.44 0 0 Z " fill="#A1D144" transform="translate(869,437)"/>
<path d="M0 0 C1.65 0 3.3 0 5 0 C5 11.55 5 23.1 5 35 C10.61 35 16.22 35 22 35 C22 33.68 22 32.36 22 31 C17.38 31 12.76 31 8 31 C8 20.77 8 10.54 8 0 C9.65 0 11.3 0 13 0 C13 8.58 13 17.16 13 26 C15.97 26 18.94 26 22 26 C22 17.42 22 8.84 22 0 C22.33 0 22.66 0 23 0 C23 21.78 23 43.56 23 66 C22.67 66 22.34 66 22 66 C22 57.09 22 48.18 22 39 C14.74 39 7.48 39 0 39 C0 26.13 0 13.26 0 0 Z " fill="#ADE247" transform="translate(816,504)"/>
<path d="M0 0 C4.29 0 8.58 0 13 0 C13 1.32 13 2.64 13 4 C10.36 4 7.72 4 5 4 C5 34.69 5 65.38 5 97 C3.35 97 1.7 97 0 97 C0 64.99 0 32.98 0 0 Z " fill="#9FCC45" transform="translate(762,406)"/>
<path d="M0 0 C0.33 0 0.66 0 1 0 C1 8.58 1 17.16 1 26 C8.26 26 15.52 26 23 26 C23 39.2 23 52.4 23 66 C20.03 66 17.06 66 14 66 C14 55.77 14 45.54 14 35 C9.38 35 4.76 35 0 35 C0 23.45 0 11.9 0 0 Z " fill="#97C243" transform="translate(838,371)"/>
<path d="M0 0 C1.32 0 2.64 0 4 0 C4 31.68 4 63.36 4 96 C-10.52 96 -25.04 96 -40 96 C-40 95.01 -40 94.02 -40 93 C-26.8 93 -13.6 93 0 93 C0 62.31 0 31.62 0 0 Z " fill="#BDF54B" transform="translate(972,504)"/>
<path d="M0 0 C1.32 0 2.64 0 4 0 C4 8.58 4 17.16 4 26 C27.76 26 51.52 26 76 26 C76 28.97 76 31.94 76 35 C75.505 33.02 75.505 33.02 75 31 C50.25 31 25.5 31 0 31 C0 20.77 0 10.54 0 0 Z " fill="#7D9E3C" transform="translate(1605,304)"/>
<path d="M0 0 C1.65 0 3.3 0 5 0 C5 10.23 5 20.46 5 31 C-5.23 31 -15.46 31 -26 31 C-26 42.55 -26 54.1 -26 66 C-27.65 66 -29.3 66 -31 66 C-31 52.8 -31 39.6 -31 26 C-20.77 26 -10.54 26 0 26 C0 17.42 0 8.84 0 0 Z " fill="#96C043" transform="translate(1190,371)"/>
<path d="M0 0 C1.65 0 3.3 0 5 0 C5 10.23 5 20.46 5 31 C-5.23 31 -15.46 31 -26 31 C-26 42.55 -26 54.1 -26 66 C-27.65 66 -29.3 66 -31 66 C-31 52.8 -31 39.6 -31 26 C-20.77 26 -10.54 26 0 26 C0 17.42 0 8.84 0 0 Z " fill="#9DC945" transform="translate(1440,371)"/>
<path d="M0 0 C6.93 0 13.86 0 21 0 C21 34.65 21 69.3 21 105 C19.68 105 18.36 105 17 105 C17 71.34 17 37.68 17 3 C11.39 3 5.78 3 0 3 C0 2.01 0 1.02 0 0 Z " fill="#8CAC40" transform="translate(1057,265)"/>
<path d="M0 0 C5.94 0 11.88 0 18 0 C18 33.33 18 66.66 18 101 C19.485 101.495 19.485 101.495 21 102 C18.36 102 15.72 102 13 102 C13.33 69.66 13.66 37.32 14 4 C9.38 4 4.76 4 0 4 C0 2.68 0 1.36 0 0 Z " fill="#1A211B" transform="translate(1306,269)"/>
<path d="M0 0 C1.65 0 3.3 0 5 0 C5 12.87 5 25.74 5 39 C-5.23 39 -15.46 39 -26 39 C-26 47.91 -26 56.82 -26 66 C-27.65 66 -29.3 66 -31 66 C-31 55.77 -31 45.54 -31 35 C-20.77 35 -10.54 35 0 35 C0 23.45 0 11.9 0 0 Z " fill="#A3D147" transform="translate(1448,371)"/>
<path d="M0 0 C1.65 0 3.3 0 5 0 C5 12.87 5 25.74 5 39 C-5.23 39 -15.46 39 -26 39 C-26 47.91 -26 56.82 -26 66 C-27.65 66 -29.3 66 -31 66 C-31 55.77 -31 45.54 -31 35 C-20.77 35 -10.54 35 0 35 C0 23.45 0 11.9 0 0 Z " fill="#A3D147" transform="translate(1199,371)"/>
<path d="M0 0 C4.29 0 8.58 0 13 0 C13 32.01 13 64.02 13 97 C11.68 97 10.36 97 9 97 C9 66.31 9 35.62 9 4 C6.03 4 3.06 4 0 4 C0 2.68 0 1.36 0 0 Z " fill="#9BC447" transform="translate(1057,273)"/>
<path d="M0 0 C1.32 0 2.64 0 4 0 C4 12.87 4 25.74 4 39 C-6.23 39 -16.46 39 -27 39 C-27 47.91 -27 56.82 -27 66 C-28.65 66 -30.3 66 -32 66 C-32 55.77 -32 45.54 -32 35 C-21.44 35 -10.88 35 0 35 C0 23.45 0 11.9 0 0 Z " fill="#9DC647" transform="translate(1480,304)"/>
<path d="M0 0 C0.99 0 1.98 0 3 0 C3 31.68 3 63.36 3 96 C-11.52 96 -26.04 96 -41 96 C-41 95.01 -41 94.02 -41 93 C-27.47 93 -13.94 93 0 93 C0 62.31 0 31.62 0 0 Z " fill="#C3FC4C" transform="translate(1753,504)"/>
<path d="M0 0 C0.99 0 1.98 0 3 0 C3 31.68 3 63.36 3 96 C-11.52 96 -26.04 96 -41 96 C-41 95.01 -41 94.02 -41 93 C-27.47 93 -13.94 93 0 93 C0 62.31 0 31.62 0 0 Z " fill="#C3FC4C" transform="translate(661,504)"/>
<path d="M0 0 C0.99 0 1.98 0 3 0 C3 10.23 3 20.46 3 31 C28.08 31 53.16 31 79 31 C79 32.32 79 33.64 79 35 C52.93 35 26.86 35 0 35 C0 23.45 0 11.9 0 0 Z " fill="#141A19" transform="translate(1601,304)"/>
<path d="M0 0 C0.99 0 1.98 0 3 0 C3 31.68 3 63.36 3 96 C-11.19 96 -25.38 96 -40 96 C-40 95.01 -40 94.02 -40 93 C-26.8 93 -13.6 93 0 93 C0 62.31 0 31.62 0 0 Z " fill="#C2FB4C" transform="translate(1066,504)"/>
<path d="M0 0 C0.99 0 1.98 0 3 0 C3 10.23 3 20.46 3 31 C-6.9 31 -16.8 31 -27 31 C-27 42.55 -27 54.1 -27 66 C-28.65 66 -30.3 66 -32 66 C-32 53.13 -32 40.26 -32 27 C-21.44 27 -10.88 27 0 27 C0 18.09 0 9.18 0 0 Z " fill="#97BE45" transform="translate(1472,304)"/>
<path d="M0 0 C1.32 0 2.64 0 4 0 C4 10.23 4 20.46 4 31 C-6.23 31 -16.46 31 -27 31 C-27 42.55 -27 54.1 -27 66 C-28.32 66 -29.64 66 -31 66 C-31 53.13 -31 40.26 -31 27 C-20.77 27 -10.54 27 0 27 C0 18.09 0 9.18 0 0 Z " fill="#9CC447" transform="translate(1222,304)"/>
<path d="M0 0 C30.69 0 61.38 0 93 0 C93 0.99 93 1.98 93 3 C97.29 3 101.58 3 106 3 C106 3.33 106 3.66 106 4 C71.02 4 36.04 4 0 4 C0 2.68 0 1.36 0 0 Z " fill="#C2FA4B" transform="translate(215,597)"/>
<path d="M0 0 C0.99 0 1.98 0 3 0 C3 12.87 3 25.74 3 39 C-6.9 39 -16.8 39 -27 39 C-27 47.91 -27 56.82 -27 66 C-28.65 66 -30.3 66 -32 66 C-32 55.77 -32 45.54 -32 35 C-21.44 35 -10.88 35 0 35 C0 23.45 0 11.9 0 0 Z " fill="#9EC747" transform="translate(1231,304)"/>
<path d="M0 0 C17.49 0 34.98 0 53 0 C53 0.33 53 0.66 53 1 C43.1 1 33.2 1 23 1 C23 1.99 23 2.98 23 4 C32.57 4 42.14 4 52 4 C52 4.33 52 4.66 52 5 C36.49 5 20.98 5 5 5 C5 16.55 5 28.1 5 40 C3.35 40 1.7 40 0 40 C0 26.8 0 13.6 0 0 Z " fill="#A4D545" transform="translate(1315,463)"/>
<path d="M0 0 C3.96 0 7.92 0 12 0 C12 20.13 12 40.26 12 61 C-2.19 61 -16.38 61 -31 61 C-31 60.01 -31 59.02 -31 58 C-17.8 58 -4.6 58 9 58 C9 40.18 9 22.36 9 4 C6.03 4 3.06 4 0 4 C0 2.68 0 1.36 0 0 Z " fill="#C3FD4C" transform="translate(558,539)"/>
<path d="M0 0 C0.99 0 1.98 0 3 0 C3 31.68 3 63.36 3 96 C-1.29 96 -5.58 96 -10 96 C-10 95.01 -10 94.02 -10 93 C-6.7 93 -3.4 93 0 93 C0 62.31 0 31.62 0 0 Z " fill="#C2FB4C" transform="translate(1566,504)"/>
<path d="M0 0 C0.99 0 1.98 0 3 0 C3 31.68 3 63.36 3 96 C-0.96 96 -4.92 96 -9 96 C-9 95.01 -9 94.02 -9 93 C-6.03 93 -3.06 93 0 93 C0 62.31 0 31.62 0 0 Z " fill="#C2FB4D" transform="translate(1316,504)"/>
<path d="M0 0 C0.99 0 1.98 0 3 0 C3 31.68 3 63.36 3 96 C-0.96 96 -4.92 96 -9 96 C-9 95.01 -9 94.02 -9 93 C-6.03 93 -3.06 93 0 93 C0 62.31 0 31.62 0 0 Z " fill="#C1FA4C" transform="translate(754,504)"/>
<path d="M0 0 C4.29 0 8.58 0 13 0 C13 10.23 13 20.46 13 31 C11.68 31 10.36 31 9 31 C9 39.91 9 48.82 9 58 C-22.02 58 -53.04 58 -85 58 C-85 57.67 -85 57.34 -85 57 C-54.31 57 -23.62 57 8 57 C8 39.51 8 22.02 8 4 C5.36 4 2.72 4 0 4 C0 2.68 0 1.36 0 0 Z " fill="#728D38" transform="translate(1837,273)"/>
<path d="M0 0 C6.93 0 13.86 0 21 0 C21 12.87 21 25.74 21 39 C20.01 39 19.02 39 18 39 C18 60.78 18 82.56 18 105 C17.67 105 17.34 105 17 105 C17 71.67 17 38.34 17 4 C12.05 4 7.1 4 2 4 C1.34 3.67 0.68 3.34 0 3 C0 2.01 0 1.02 0 0 Z " fill="#829F3D" transform="translate(1556,265)"/>
<path d="M0 0 C7.26 0 14.52 0 22 0 C22 25.74 22 51.48 22 78 C21.67 78 21.34 78 21 78 C21 65.13 21 52.26 21 39 C19.68 39 18.36 39 17 39 C17 27.12 17 15.24 17 3 C11.39 3 5.78 3 0 3 C0 2.01 0 1.02 0 0 Z " fill="#7D993B" transform="translate(1463,265)"/>
<path d="M0 0 C4.29 0 8.58 0 13 0 C13 10.23 13 20.46 13 31 C11.68 31 10.36 31 9 31 C9 39.91 9 48.82 9 58 C-1.23 58 -11.46 58 -22 58 C-22 70.87 -22 83.74 -22 97 C-22.33 97 -22.66 97 -23 97 C-23 83.8 -23 70.6 -23 57 C-12.77 57 -2.54 57 8 57 C8 39.51 8 22.02 8 4 C5.36 4 2.72 4 0 4 C0 2.68 0 1.36 0 0 Z " fill="#718A37" transform="translate(1213,273)"/>
<path d="M0 0 C4.29 0 8.58 0 13 0 C13 20.46 13 40.92 13 62 C12.67 62 12.34 62 12 62 C12 51.77 12 41.54 12 31 C11.01 31 10.02 31 9 31 C9 39.91 9 48.82 9 58 C-1.56 58 -12.12 58 -23 58 C-23 57.67 -23 57.34 -23 57 C-12.77 57 -2.54 57 8 57 C8 39.51 8 22.02 8 4 C5.36 4 2.72 4 0 4 C0 2.68 0 1.36 0 0 Z " fill="#7C983B" transform="translate(1463,273)"/>
<path d="M0 0 C7.59 0 15.18 0 23 0 C22.67 1.32 22.34 2.64 22 4 C16.39 4 10.78 4 5 4 C5 15.55 5 27.1 5 39 C3.35 39 1.7 39 0 39 C0 26.13 0 13.26 0 0 Z " fill="#93B943" transform="translate(161,331)"/>
<path d="M0 0 C1.32 0 2.64 0 4 0 C4 21.78 4 43.56 4 66 C2.68 66 1.36 66 0 66 C0 44.22 0 22.44 0 0 Z " fill="#B5EB4B" transform="translate(754,437)"/>
<path d="M0 0 C1.32 0 2.64 0 4 0 C4 21.78 4 43.56 4 66 C2.68 66 1.36 66 0 66 C0 44.22 0 22.44 0 0 Z " fill="#9AC246" transform="translate(1574,304)"/>
<path d="M0 0 C1.32 0 2.64 0 4 0 C4 21.78 4 43.56 4 66 C2.68 66 1.36 66 0 66 C0 44.22 0 22.44 0 0 Z " fill="#9CC547" transform="translate(1324,304)"/>
<path d="M0 0 C1.32 0 2.64 0 4 0 C4 21.78 4 43.56 4 66 C2.68 66 1.36 66 0 66 C0 44.22 0 22.44 0 0 Z " fill="#9CC547" transform="translate(981,304)"/>
<path d="M0 0 C1.32 0 2.64 0 4 0 C4 21.78 4 43.56 4 66 C2.68 66 1.36 66 0 66 C0 44.22 0 22.44 0 0 Z " fill="#9CC547" transform="translate(669,304)"/>
<path d="M0 0 C1.32 0 2.64 0 4 0 C4 21.78 4 43.56 4 66 C2.68 66 1.36 66 0 66 C0 44.22 0 22.44 0 0 Z " fill="#9CC547" transform="translate(419,304)"/>
<path d="M0 0 C1.65 0 3.3 0 5 0 C5 11.55 5 23.1 5 35 C10.61 35 16.22 35 22 35 C22 36.32 22 37.64 22 39 C14.74 39 7.48 39 0 39 C0 26.13 0 13.26 0 0 Z " fill="#B5EC49" transform="translate(816,504)"/>
<path d="M0 0 C6.93 0 13.86 0 21 0 C21 12.87 21 25.74 21 39 C20.01 39 19.02 39 18 39 C18 50.55 18 62.1 18 74 C17.67 74 17.34 74 17 74 C17 50.9 17 27.8 17 4 C12.05 4 7.1 4 2 4 C1.34 3.67 0.68 3.34 0 3 C0 2.01 0 1.02 0 0 Z " fill="#84A13D" transform="translate(308,265)"/>
<path d="M0 0 C0.33 0 0.66 0 1 0 C1 8.58 1 17.16 1 26 C7.93 26 14.86 26 22 26 C22 39.2 22 52.4 22 66 C20.68 66 19.36 66 18 66 C18 54.12 18 42.24 18 30 C12.39 30 6.78 30 1 30 C-0.09911549 26.70265354 -0.1139456 24.27041255 -0.09765625 20.80078125 C-0.09443359 19.59228516 -0.09121094 18.38378906 -0.08789062 17.13867188 C-0.07951172 15.87603516 -0.07113281 14.61339844 -0.0625 13.3125 C-0.05573242 11.40114258 -0.05573242 11.40114258 -0.04882812 9.45117188 C-0.03702873 6.30073436 -0.02056597 3.15039051 0 0 Z " fill="#8FB542" transform="translate(807,304)"/>
<path d="M0 0 C2.97 0 5.94 0 9 0 C9 8.91 9 17.82 9 27 C6.03 27 3.06 27 0 27 C0 18.09 0 9.18 0 0 Z " fill="#101417" transform="translate(776,277)"/>
<path d="M0 0 C2.97 0 5.94 0 9 0 C9 8.58 9 17.16 9 26 C6.03 26 3.06 26 0 26 C0 17.42 0 8.84 0 0 Z " fill="#19201A" transform="translate(798,437)"/>
<path d="M0 0 C2.64 0 5.28 0 8 0 C8 8.91 8 17.82 8 27 C5.36 27 2.72 27 0 27 C0 18.09 0 9.18 0 0 Z " fill="#0D1117" transform="translate(839,410)"/>
<path d="M0 0 C6.93 0 13.86 0 21 0 C21 12.87 21 25.74 21 39 C19.68 39 18.36 39 17 39 C17 27.12 17 15.24 17 3 C11.39 3 5.78 3 0 3 C0 2.01 0 1.02 0 0 Z " fill="#B5EA4A" transform="translate(1182,464)"/>
<path d="M0 0 C6.93 0 13.86 0 21 0 C21 12.87 21 25.74 21 39 C19.68 39 18.36 39 17 39 C17 27.12 17 15.24 17 3 C11.39 3 5.78 3 0 3 C0 2.01 0 1.02 0 0 Z " fill="#B5EA4A" transform="translate(870,464)"/>
<path d="M0 0 C2.05078125 0.03255208 4.1015625 0.06510417 6.15234375 0.09765625 C6.15234375 0.42765625 6.15234375 0.75765625 6.15234375 1.09765625 C4.50234375 1.09765625 2.85234375 1.09765625 1.15234375 1.09765625 C1.15234375 11.32765625 1.15234375 21.55765625 1.15234375 32.09765625 C5.44234375 32.09765625 9.73234375 32.09765625 14.15234375 32.09765625 C14.15234375 33.41765625 14.15234375 34.73765625 14.15234375 36.09765625 C8.54234375 36.09765625 2.93234375 36.09765625 -2.84765625 36.09765625 C-2.87056581 31.13137191 -2.89049268 26.16526962 -2.90258789 21.19897461 C-2.90762815 19.50821309 -2.9144603 17.81745596 -2.9230957 16.12670898 C-2.93517482 13.70164918 -2.94088748 11.27664681 -2.9453125 8.8515625 C-2.95047379 8.09114151 -2.95563507 7.33072052 -2.96095276 6.54725647 C-2.96114863 4.73033055 -2.90962902 2.91352498 -2.84765625 1.09765625 C-1.84765625 0.09765625 -1.84765625 0.09765625 0 0 Z " fill="#242F1E" transform="translate(105.84765625,502.90234375)"/>
<path d="M0 0 C5.61 0 11.22 0 17 0 C17 11.55 17 23.1 17 35 C18.485 35.495 18.485 35.495 20 36 C17.36 36 14.72 36 12 36 C12.33 25.44 12.66 14.88 13 4 C8.71 4 4.42 4 0 4 C0 2.68 0 1.36 0 0 Z " fill="#222C1D" transform="translate(1182,468)"/>
<path d="M0 0 C5.61 0 11.22 0 17 0 C17 11.55 17 23.1 17 35 C18.485 35.495 18.485 35.495 20 36 C17.36 36 14.72 36 12 36 C12.33 25.44 12.66 14.88 13 4 C8.71 4 4.42 4 0 4 C0 2.68 0 1.36 0 0 Z " fill="#222C1D" transform="translate(870,468)"/>
<path d="M0 0 C0.99 0 1.98 0 3 0 C3 21.78 3 43.56 3 66 C2.01 66 1.02 66 0 66 C0 44.22 0 22.44 0 0 Z " fill="#B9EF4C" transform="translate(1761,437)"/>
<path d="M0 0 C0.99 0 1.98 0 3 0 C3 21.78 3 43.56 3 66 C2.01 66 1.02 66 0 66 C0 44.22 0 22.44 0 0 Z " fill="#B9EF4C" transform="translate(1753,437)"/>
<path d="M0 0 C0.99 0 1.98 0 3 0 C3 21.78 3 43.56 3 66 C2.01 66 1.02 66 0 66 C0 44.22 0 22.44 0 0 Z " fill="#B9EF4C" transform="translate(1574,437)"/>
<path d="M0 0 C0.99 0 1.98 0 3 0 C3 21.78 3 43.56 3 66 C2.01 66 1.02 66 0 66 C0 44.22 0 22.44 0 0 Z " fill="#B9EF4C" transform="translate(1566,437)"/>
<path d="M0 0 C0.99 0 1.98 0 3 0 C3 21.78 3 43.56 3 66 C2.01 66 1.02 66 0 66 C0 44.22 0 22.44 0 0 Z " fill="#B9EF4C" transform="translate(981,437)"/>
<path d="M0 0 C0.99 0 1.98 0 3 0 C3 21.78 3 43.56 3 66 C2.01 66 1.02 66 0 66 C0 44.22 0 22.44 0 0 Z " fill="#B9EF4C" transform="translate(973,437)"/>
<path d="M0 0 C0.99 0 1.98 0 3 0 C3 21.78 3 43.56 3 66 C2.01 66 1.02 66 0 66 C0 44.22 0 22.44 0 0 Z " fill="#B9EF4C" transform="translate(763,437)"/>
<path d="M0 0 C0.99 0 1.98 0 3 0 C3 21.78 3 43.56 3 66 C2.01 66 1.02 66 0 66 C0 44.22 0 22.44 0 0 Z " fill="#B9EF4C" transform="translate(669,437)"/>
<path d="M0 0 C0.99 0 1.98 0 3 0 C3 21.78 3 43.56 3 66 C2.01 66 1.02 66 0 66 C0 44.22 0 22.44 0 0 Z " fill="#B9EF4C" transform="translate(661,437)"/>
<path d="M0 0 C0.99 0 1.98 0 3 0 C3 21.78 3 43.56 3 66 C2.01 66 1.02 66 0 66 C0 44.22 0 22.44 0 0 Z " fill="#B9EF4C" transform="translate(420,437)"/>
<path d="M0 0 C0.99 0 1.98 0 3 0 C3 21.78 3 43.56 3 66 C2.01 66 1.02 66 0 66 C0 44.22 0 22.44 0 0 Z " fill="#B9EF4C" transform="translate(411,437)"/>
<path d="M0 0 C0.99 0 1.98 0 3 0 C3 21.78 3 43.56 3 66 C2.01 66 1.02 66 0 66 C0 44.22 0 22.44 0 0 Z " fill="#B9EF4C" transform="translate(170,437)"/>
<path d="M0 0 C0.99 0 1.98 0 3 0 C3 21.78 3 43.56 3 66 C2.01 66 1.02 66 0 66 C0 44.22 0 22.44 0 0 Z " fill="#B9EF4C" transform="translate(162,437)"/>
<path d="M0 0 C0.99 0 1.98 0 3 0 C3 21.78 3 43.56 3 66 C2.01 66 1.02 66 0 66 C0 44.22 0 22.44 0 0 Z " fill="#9FC848" transform="translate(1566,304)"/>
<path d="M0 0 C0.99 0 1.98 0 3 0 C3 21.78 3 43.56 3 66 C2.01 66 1.02 66 0 66 C0 44.22 0 22.44 0 0 Z " fill="#9FC848" transform="translate(1316,304)"/>
<path d="M0 0 C0.99 0 1.98 0 3 0 C3 21.78 3 43.56 3 66 C2.01 66 1.02 66 0 66 C0 44.22 0 22.44 0 0 Z " fill="#9FC848" transform="translate(1075,304)"/>
<path d="M0 0 C0.99 0 1.98 0 3 0 C3 21.78 3 43.56 3 66 C2.01 66 1.02 66 0 66 C0 44.22 0 22.44 0 0 Z " fill="#9FC848" transform="translate(973,304)"/>
<path d="M0 0 C0.99 0 1.98 0 3 0 C3 21.78 3 43.56 3 66 C2.01 66 1.02 66 0 66 C0 44.22 0 22.44 0 0 Z " fill="#9FC848" transform="translate(661,304)"/>
<path d="M0 0 C0.99 0 1.98 0 3 0 C3 21.78 3 43.56 3 66 C2.01 66 1.02 66 0 66 C0 44.22 0 22.44 0 0 Z " fill="#9FC848" transform="translate(411,304)"/>
<path d="M0 0 C2.97 0 5.94 0 9 0 C9 8.91 9 17.82 9 27 C8.67 27 8.34 27 8 27 C8 18.42 8 9.84 8 1 C6.35 1 4.7 1 3 1 C3 11.23 3 21.46 3 32 C7.62 32 12.24 32 17 32 C17 33.32 17 34.64 17 36 C11.39 36 5.78 36 0 36 C0 24.12 0 12.24 0 0 Z " fill="#1B231B" transform="translate(821,503)"/>
<path d="M0 0 C4.95 0 9.9 0 15 0 C15 1.32 15 2.64 15 4 C11.7 4 8.4 4 5 4 C5 12.91 5 21.82 5 31 C3.35 31 1.7 31 0 31 C0 20.77 0 10.54 0 0 Z " fill="#93B944" transform="translate(1760,339)"/>
<path d="M0 0 C4.95 0 9.9 0 15 0 C15 1.32 15 2.64 15 4 C11.7 4 8.4 4 5 4 C5 12.91 5 21.82 5 31 C3.35 31 1.7 31 0 31 C0 20.77 0 10.54 0 0 Z " fill="#95BB44" transform="translate(169,339)"/>
<path d="M0 0 C5.61 0 11.22 0 17 0 C17 11.55 17 23.1 17 35 C15.68 35 14.36 35 13 35 C13 24.77 13 14.54 13 4 C8.71 4 4.42 4 0 4 C0 2.68 0 1.36 0 0 Z " fill="#1C241B" transform="translate(839,402)"/>
<path d="M0 0 C5.61 0 11.22 0 17 0 C17 11.55 17 23.1 17 35 C15.68 35 14.36 35 13 35 C13 24.77 13 14.54 13 4 C8.71 4 4.42 4 0 4 C0 2.68 0 1.36 0 0 Z " fill="#191F1A" transform="translate(776,269)"/>
<path d="M0 0 C4.62 0 9.24 0 14 0 C14 1.32 14 2.64 14 4 C11.03 4 8.06 4 5 4 C5 12.91 5 21.82 5 31 C3.35 31 1.7 31 0 31 C0 20.77 0 10.54 0 0 Z " fill="#93B944" transform="translate(1448,339)"/>
<path d="M0 0 C4.29 0 8.58 0 13 0 C13 1.32 13 2.64 13 4 C10.36 4 7.72 4 5 4 C5 12.91 5 21.82 5 31 C3.35 31 1.7 31 0 31 C0 20.77 0 10.54 0 0 Z " fill="#ADE048" transform="translate(1324,472)"/>
<path d="M0 0 C4.29 0 8.58 0 13 0 C13 1.32 13 2.64 13 4 C10.36 4 7.72 4 5 4 C5 12.91 5 21.82 5 31 C3.35 31 1.7 31 0 31 C0 20.77 0 10.54 0 0 Z " fill="#AFE248" transform="translate(1074,472)"/>
<path d="M0 0 C4.29 0 8.58 0 13 0 C13 10.23 13 20.46 13 31 C11.35 31 9.7 31 8 31 C8 22.09 8 13.18 8 4 C5.36 4 2.72 4 0 4 C0 2.68 0 1.36 0 0 Z " fill="#A0CD46" transform="translate(839,406)"/>
<path d="M0 0 C4.29 0 8.58 0 13 0 C13 1.32 13 2.64 13 4 C10.36 4 7.72 4 5 4 C5 12.91 5 21.82 5 31 C3.35 31 1.7 31 0 31 C0 20.77 0 10.54 0 0 Z " fill="#95BC44" transform="translate(1199,339)"/>
<path d="M0 0 C4.29 0 8.58 0 13 0 C13 10.23 13 20.46 13 31 C11.35 31 9.7 31 8 31 C8 22.09 8 13.18 8 4 C5.36 4 2.72 4 0 4 C0 2.68 0 1.36 0 0 Z " fill="#93B944" transform="translate(808,339)"/>
<path d="M0 0 C20.46 0 40.92 0 62 0 C62 0.99 62 1.98 62 3 C41.54 3 21.08 3 0 3 C0 2.01 0 1.02 0 0 Z " fill="#C5FE4C" transform="translate(464,597)"/>
<path d="M0 0 C20.46 0 40.92 0 62 0 C62 0.99 62 1.98 62 3 C41.54 3 21.08 3 0 3 C0 2.01 0 1.02 0 0 Z " fill="#C5FE4C" transform="translate(152,597)"/>
<path d="M0 0 C20.13 0 40.26 0 61 0 C61 0.99 61 1.98 61 3 C40.87 3 20.74 3 0 3 C0 2.01 0 1.02 0 0 Z " fill="#C5FE4C" transform="translate(870,597)"/>
<path d="M0 0 C20.13 0 40.26 0 61 0 C61 0.99 61 1.98 61 3 C40.87 3 20.74 3 0 3 C0 2.01 0 1.02 0 0 Z " fill="#C5FE4C" transform="translate(371,597)"/>
<path d="M0 0 C4.29 0 8.58 0 13 0 C13 10.23 13 20.46 13 31 C11.68 31 10.36 31 9 31 C9 22.09 9 13.18 9 4 C6.03 4 3.06 4 0 4 C0 2.68 0 1.36 0 0 Z " fill="#8CAA40" transform="translate(1057,273)"/>
<path d="M0 0 C4.29 0 8.58 0 13 0 C13 10.23 13 20.46 13 31 C11.68 31 10.36 31 9 31 C9 22.09 9 13.18 9 4 C6.03 4 3.06 4 0 4 C0 2.68 0 1.36 0 0 Z " fill="#8BA93F" transform="translate(776,273)"/>
<path d="M0 0 C1.32 0 2.64 0 4 0 C4 8.91 4 17.82 4 27 C6.97 27 9.94 27 13 27 C13 27.99 13 28.98 13 30 C8.71 30 4.42 30 0 30 C0 20.1 0 10.2 0 0 Z " fill="#9DC647" transform="translate(1605,304)"/>
<path d="M0 0 C0.99 0 1.98 0 3 0 C3 10.23 3 20.46 3 31 C7.29 31 11.58 31 16 31 C16 31.99 16 32.98 16 34 C10.72 34 5.44 34 0 34 C0 22.78 0 11.56 0 0 Z " fill="#0D1117" transform="translate(790,437)"/>
<path d="M0 0 C0.99 0 1.98 0 3 0 C3 9.9 3 19.8 3 30 C-0.96 30 -4.92 30 -9 30 C-9 29.01 -9 28.02 -9 27 C-6.03 27 -3.06 27 0 27 C0 18.09 0 9.18 0 0 Z " fill="#ADDD4A" transform="translate(1191,371)"/>
<path d="M0 0 C9.9 0 19.8 0 30 0 C30 0.99 30 1.98 30 3 C20.1 3 10.2 3 0 3 C0 2.01 0 1.02 0 0 Z " fill="#C6FF4D" transform="translate(433,597)"/>
<path d="M0 0 C9.9 0 19.8 0 30 0 C30 0.99 30 1.98 30 3 C20.1 3 10.2 3 0 3 C0 2.01 0 1.02 0 0 Z " fill="#C6FF4D" transform="translate(277,597)"/>
<path d="M0 0 C9.9 0 19.8 0 30 0 C30 0.99 30 1.98 30 3 C20.1 3 10.2 3 0 3 C0 2.01 0 1.02 0 0 Z " fill="#9FC848" transform="translate(1775,331)"/>
<path d="M0 0 C9.9 0 19.8 0 30 0 C30 0.99 30 1.98 30 3 C20.1 3 10.2 3 0 3 C0 2.01 0 1.02 0 0 Z " fill="#9FC848" transform="translate(1650,331)"/>
<path d="M0 0 C9.9 0 19.8 0 30 0 C30 0.99 30 1.98 30 3 C20.1 3 10.2 3 0 3 C0 2.01 0 1.02 0 0 Z " fill="#9FC848" transform="translate(1619,331)"/>
<path d="M0 0 C9.9 0 19.8 0 30 0 C30 0.99 30 1.98 30 3 C20.1 3 10.2 3 0 3 C0 2.01 0 1.02 0 0 Z " fill="#9FC848" transform="translate(184,331)"/>
</svg>
