<?xml version="1.0" encoding="UTF-8"?>
<svg version="1.1" xmlns="http://www.w3.org/2000/svg" width="1920" height="799">
<path d="M0 0 C633.6 0 1267.2 0 1920 0 C1920 263.67 1920 527.34 1920 799 C1286.4 799 652.8 799 0 799 C0 535.33 0 271.66 0 0 Z " fill="#FEFEFE" transform="translate(0,0)"/>
<path d="M0 0 C20.79 0 41.58 0 63 0 C63.33 8.58 63.66 17.16 64 26 C70.93 26.33 77.86 26.66 85 27 C84.98259766 31.20556641 84.98259766 31.20556641 84.96484375 35.49609375 C84.95705367 38.19995002 84.95097663 40.90380506 84.94506836 43.60766602 C84.94002756 45.4924373 84.93319502 47.37720465 84.92456055 49.26196289 C84.91248383 51.96501636 84.90676932 54.66801831 84.90234375 57.37109375 C84.89718246 58.21900986 84.89202118 59.06692596 84.88670349 59.9405365 C84.88650805 61.96071068 84.93793789 63.98077934 85 66 C85.33 66.33 85.66 66.66 86 67 C86.09991022 69.31766439 86.13442201 71.60557146 86.12698364 73.92381287 C86.12854505 74.65830562 86.13010646 75.39279837 86.13171518 76.14954847 C86.13573645 78.63544481 86.13253461 81.12128084 86.12939453 83.60717773 C86.13072833 85.38791247 86.13248592 87.16864694 86.13463593 88.94938087 C86.1391778 93.83320122 86.13731543 98.717001 86.13422441 103.60082173 C86.13233355 107.72933387 86.13392194 111.85784156 86.13556135 115.98635358 C86.13992483 127.0247401 86.13700717 138.06311373 86.13056505 149.10149878 C86.12592675 157.1070745 86.12352415 165.11264818 86.12231445 173.1182251 C86.11039968 239.08749664 85.81188355 305.03446155 85 371 C39.46 371 -6.08 371 -53 371 C-53 358.13 -53 345.26 -53 332 C-55.97 332 -58.94 332 -62 332 C-62 323.09 -62 314.18 -62 305 C-69.26 305 -76.52 305 -84 305 C-84 292.13 -84 279.26 -84 266 C-86.97 266 -89.94 266 -93 266 C-93 256.76 -93 247.52 -93 238 C-100.26 238 -107.52 238 -115 238 C-115 225.13 -115 212.26 -115 199 C-117.97 199 -120.94 199 -124 199 C-124 190.09 -124 181.18 -124 172 C-126.97 172 -129.94 172 -133 172 C-133 202.69 -133 233.38 -133 265 C-134.65 265 -136.3 265 -138 265 C-138 232.99 -138 200.98 -138 168 C-133.71 168 -129.42 168 -125 168 C-125 166.68 -125 165.36 -125 164 C-130.61 164 -136.22 164 -142 164 C-142 229.67 -142 295.34 -142 363 C-161.14 363 -180.28 363 -200 363 C-200 352.77 -200 342.54 -200 332 C-201.32 332 -202.64 332 -204 332 C-204 343.55 -204 355.1 -204 367 C-182.22 367 -160.44 367 -138 367 C-138 333.67 -138 300.34 -138 266 C-136.35 266 -134.7 266 -133 266 C-133 300.65 -133 335.3 -133 371 C-158.08 371 -183.16 371 -209 371 C-209 358.13 -209 345.26 -209 332 C-211.97 332 -214.94 332 -218 332 C-218 310.22 -218 288.44 -218 266 C-197.21 266 -176.42 266 -155 266 C-155 288.11 -155 310.22 -155 333 C-168.2 333 -181.4 333 -195 333 C-195 341.25 -195 349.5 -195 358 C-179.16 358 -163.32 358 -147 358 C-147 292.33 -147 226.66 -147 159 C-139.74 159 -132.48 159 -125 159 C-125 150.42 -125 141.84 -125 133 C-134.9 133 -144.8 133 -155 133 C-155 176.56 -155 220.12 -155 265 C-175.79 265 -196.58 265 -218 265 C-218 199.66 -218 134.32 -218 67 C-176.42 67 -134.84 67 -92 67 C-92 75.58 -92 84.16 -92 93 C-85.07 93 -78.14 93 -71 93 C-71 106.2 -71 119.4 -71 133 C-67.7 133 -64.4 133 -61 133 C-61 141.58 -61 150.16 -61 159 C-53.74 159 -46.48 159 -39 159 C-39 172.2 -39 185.4 -39 199 C-36.03 199 -33.06 199 -30 199 C-30 207.58 -30 216.16 -30 225 C-22.74 225 -15.48 225 -8 225 C-8 238.2 -8 251.4 -8 265 C-9.65 265 -11.3 265 -13 265 C-13 253.45 -13 241.9 -13 230 C-18.61 230 -24.22 230 -30 230 C-30 231.32 -30 232.64 -30 234 C-25.71 234 -21.42 234 -17 234 C-17 244.23 -17 254.46 -17 265 C-18.32 265 -19.64 265 -21 265 C-21 256.09 -21 247.18 -21 238 C-23.97 238 -26.94 238 -30 238 C-30 247.24 -30 256.48 -30 266 C-20.1 265.67 -10.2 265.34 0 265 C0 177.55 0 90.1 0 0 Z " fill="#FDFEFB" transform="translate(899,187)"/>
<path d="M0 0 C21.12 0 42.24 0 64 0 C64 21.78 64 43.56 64 66 C66.64 66 69.28 66 72 66 C72 44.22 72 22.44 72 0 C73.65 0 75.3 0 77 0 C77 21.78 77 43.56 77 66 C78.32 66 79.64 66 81 66 C81 44.55 81 23.1 81 1 C82.32 1 83.64 1 85 1 C85 22.45 85 43.9 85 66 C98.2 66 111.4 66 125 66 C125 44.22 125 22.44 125 0 C135.374375 -0.020625 145.74875 -0.04125 156.4375 -0.0625 C161.35740845 -0.07615601 161.35740845 -0.07615601 166.37670898 -0.09008789 C168.95817016 -0.09300676 171.53963178 -0.09555538 174.12109375 -0.09765625 C174.79608414 -0.10026962 175.47107452 -0.102883 176.16651917 -0.10557556 C178.14542498 -0.11285661 180.12435228 -0.1133384 182.10327148 -0.11352539 C183.22023911 -0.115746 184.33720673 -0.11796661 185.48802185 -0.12025452 C188 0 188 0 189 1 C189.09409479 3.02494231 189.11743122 5.0531987 189.11352539 7.08032227 C189.11344986 8.38159561 189.11337433 9.68286896 189.11329651 11.02357483 C189.10818909 12.45451902 189.10297308 13.88546282 189.09765625 15.31640625 C189.09579203 16.7722926 189.09436815 18.22817957 189.09336853 19.68406677 C189.08954365 23.52279379 189.07971364 27.36148319 189.06866455 31.20019531 C189.05665498 35.80235771 189.05204804 40.40453266 189.04621124 45.00670624 C189.03650185 52.00449702 189.01734513 59.0022052 189 66 C178.44 66 167.88 66 157 66 C157 87.78 157 109.56 157 132 C159.97 132 162.94 132 166 132 C166 118.8 166 105.6 166 92 C176.23 92 186.46 92 197 92 C197 70.22 197 48.44 197 26 C207.23 26 217.46 26 228 26 C228 17.42 228 8.84 228 0 C229.65 0 231.3 0 233 0 C233 10.23 233 20.46 233 31 C222.77 31 212.54 31 202 31 C202 52.78 202 74.56 202 97 C191.77 97 181.54 97 171 97 C171 108.55 171 120.1 171 132 C171.99 132 172.98 132 174 132 C174 121.77 174 111.54 174 101 C184.23 101 194.46 101 205 101 C205 79.22 205 57.44 205 35 C215.56 35 226.12 35 237 35 C237 23.78 237 12.56 237 1 C238.32 1 239.64 1 241 1 C241 13.54 241 26.08 241 39 C230.77 39 220.54 39 210 39 C210 60.78 210 82.56 210 105 C199.77 105 189.54 105 179 105 C179 113.91 179 122.82 179 132 C182.3 132 185.6 132 189 132 C189 140.58 189 149.16 189 158 C195.93 158 202.86 158 210 158 C210 171.2 210 184.4 210 198 C208.35 198 206.7 198 205 198 C205 186.45 205 174.9 205 163 C199.72 163 194.44 163 189 163 C189 164.32 189 165.64 189 167 C193.29 167 197.58 167 202 167 C202 177.23 202 187.46 202 198 C200.35 198 198.7 198 197 198 C197 189.09 197 180.18 197 171 C194.03 171 191.06 171 188 171 C188 180.24 188 189.48 188 199 C198.56 199 209.12 199 220 199 C220 207.58 220 216.16 220 225 C227.26 225 234.52 225 242 225 C242 251.4 242 277.8 242 305 C223.2209375 305.0309375 223.2209375 305.0309375 204.0625 305.0625 C198.12455444 305.07615601 198.12455444 305.07615601 192.06665039 305.09008789 C187.24694824 305.09460449 187.24694824 305.09460449 184.99339294 305.09544373 C183.41343403 305.09698318 181.83347632 305.10050814 180.25352478 305.10557556 C177.86569159 305.1128538 175.47793044 305.11390739 173.09008789 305.11352539 C172.02749174 305.11892255 172.02749174 305.11892255 170.94342899 305.12442875 C166.11402634 305.11402634 166.11402634 305.11402634 165 304 C164.91138008 301.1883662 164.88477645 298.40141745 164.90234375 295.58984375 C164.90446617 294.32679161 164.90446617 294.32679161 164.90663147 293.03822327 C164.91224737 290.33794665 164.92480252 287.63775172 164.9375 284.9375 C164.94251295 283.11132932 164.94707621 281.28515734 164.95117188 279.45898438 C164.96222196 274.97262458 164.97949721 270.48632616 165 266 C162.03 266 159.06 266 156 266 C156 243.89 156 221.78 156 199 C145.77 199 135.54 199 125 199 C125 189.76 125 180.52 125 171 C112.13 171 99.26 171 86 171 C86 215.22 86 259.44 86 305 C67.2209375 305.0309375 67.2209375 305.0309375 48.0625 305.0625 C44.10386963 305.071604 40.14523926 305.08070801 36.06665039 305.09008789 C31.24694824 305.09460449 31.24694824 305.09460449 28.99339294 305.09544373 C27.41343403 305.09698318 25.83347632 305.10050814 24.25352478 305.10557556 C21.86569159 305.1128538 19.47793044 305.11390739 17.09008789 305.11352539 C16.02749174 305.11892255 16.02749174 305.11892255 14.94342899 305.12442875 C10.11402634 305.11402634 10.11402634 305.11402634 9 304 C8.91138008 301.1883662 8.88477645 298.40141745 8.90234375 295.58984375 C8.9037587 294.74780899 8.90517365 293.90577423 8.90663147 293.03822327 C8.91224737 290.33794665 8.92480252 287.63775172 8.9375 284.9375 C8.94251295 283.11132932 8.94707621 281.28515734 8.95117188 279.45898438 C8.96222196 274.97262458 8.97949721 270.48632616 9 266 C6.03 266 3.06 266 0 266 C0 178.22 0 90.44 0 0 Z " fill="#D2FB71" transform="translate(1242,254)"/>
<path d="M0 0 C41.58 0 83.16 0 126 0 C126 8.58 126 17.16 126 26 C132.93 26 139.86 26 147 26 C147 39.2 147 52.4 147 66 C150.3 66 153.6 66 157 66 C157 74.58 157 83.16 157 92 C164.26 92 171.52 92 179 92 C179 105.2 179 118.4 179 132 C181.97 132 184.94 132 188 132 C188 140.58 188 149.16 188 158 C195.26 158 202.52 158 210 158 C210 171.2 210 184.4 210 198 C208.35 198 206.7 198 205 198 C205 186.45 205 174.9 205 163 C199.39 163 193.78 163 188 163 C188 164.32 188 165.64 188 167 C192.29 167 196.58 167 201 167 C201 177.23 201 187.46 201 198 C199.68 198 198.36 198 197 198 C197 189.09 197 180.18 197 171 C194.03 171 191.06 171 188 171 C188 179.91 188 188.82 188 198 C167.21 198 146.42 198 125 198 C125 189.09 125 180.18 125 171 C117.74 171 110.48 171 103 171 C103 158.13 103 145.26 103 132 C100.03 132 97.06 132 94 132 C94 123.09 94 114.18 94 105 C91.03 105 88.06 105 85 105 C85 135.69 85 166.38 85 198 C83.35 198 81.7 198 80 198 C80 165.99 80 133.98 80 101 C84.29 101 88.58 101 93 101 C93 99.68 93 98.36 93 97 C87.39 97 81.78 97 76 97 C76 162.67 76 228.34 76 296 C56.86 296 37.72 296 18 296 C18 285.77 18 275.54 18 265 C16.68 265 15.36 265 14 265 C14 276.55 14 288.1 14 300 C35.78 300 57.56 300 80 300 C80 266.67 80 233.34 80 199 C81.65 199 83.3 199 85 199 C85 233.65 85 268.3 85 304 C59.92 304 34.84 304 9 304 C9 291.13 9 278.26 9 265 C6.03 265 3.06 265 0 265 C0 243.22 0 221.44 0 199 C20.79 199 41.58 199 63 199 C63 221.11 63 243.22 63 266 C49.8 266 36.6 266 23 266 C23 274.25 23 282.5 23 291 C38.84 291 54.68 291 71 291 C71 225.33 71 159.66 71 92 C78.26 92 85.52 92 93 92 C93 83.42 93 74.84 93 66 C83.1 66 73.2 66 63 66 C63 109.56 63 153.12 63 198 C42.21 198 21.42 198 0 198 C0 132.66 0 67.32 0 0 Z " fill="#E1F6A1" transform="translate(681,254)"/>
<path d="M0 0 C20.79 0 41.58 0 63 0 C63 21.78 63 43.56 63 66 C65.97 66 68.94 66 72 66 C72 44.55 72 23.1 72 1 C73.32 1 74.64 1 76 1 C76 22.45 76 43.9 76 66 C77.32 66 78.64 66 80 66 C80 44.22 80 22.44 80 0 C81.65 0 83.3 0 85 0 C85 21.78 85 43.56 85 66 C98.2 66 111.4 66 125 66 C125 44.22 125 22.44 125 0 C145.79 0 166.58 0 188 0 C188 21.78 188 43.56 188 66 C177.77 66 167.54 66 157 66 C157 87.78 157 109.56 157 132 C159.64 132 162.28 132 165 132 C165 118.8 165 105.6 165 92 C175.23 92 185.46 92 196 92 C196 70.55 196 49.1 196 27 C206.56 27 217.12 27 228 27 C228 18.42 228 9.84 228 1 C229.32 1 230.64 1 232 1 C232 10.9 232 20.8 232 31 C221.77 31 211.54 31 201 31 C201 52.78 201 74.56 201 97 C190.77 97 180.54 97 170 97 C170 108.55 170 120.1 170 132 C171.32 132 172.64 132 174 132 C174 121.77 174 111.54 174 101 C184.23 101 194.46 101 205 101 C205 79.22 205 57.44 205 35 C215.23 35 225.46 35 236 35 C236 23.45 236 11.9 236 0 C237.65 0 239.3 0 241 0 C241 12.87 241 25.74 241 39 C230.77 39 220.54 39 210 39 C210 61.11 210 83.22 210 106 C199.77 106 189.54 106 179 106 C179 114.58 179 123.16 179 132 C181.97 132 184.94 132 188 132 C188 140.58 188 149.16 188 158 C195.26 158 202.52 158 210 158 C210 171.2 210 184.4 210 198 C208.35 198 206.7 198 205 198 C205 186.45 205 174.9 205 163 C199.39 163 193.78 163 188 163 C188 164.32 188 165.64 188 167 C192.29 167 196.58 167 201 167 C201 177.23 201 187.46 201 198 C199.68 198 198.36 198 197 198 C197 189.09 197 180.18 197 171 C194.03 171 191.06 171 188 171 C188 179.91 188 188.82 188 198 C167.21 198 146.42 198 125 198 C125 189.09 125 180.18 125 171 C111.8 171 98.6 171 85 171 C85 179.91 85 188.82 85 198 C83.35 198 81.7 198 80 198 C80 187.77 80 177.54 80 167 C94.85 167 109.7 167 125 167 C125 165.68 125 164.36 125 163 C108.83 163 92.66 163 76 163 C76 174.55 76 186.1 76 198 C74.35 198 72.7 198 71 198 C71 185.13 71 172.26 71 159 C88.82 159 106.64 159 125 159 C125 150.09 125 141.18 125 132 C104.54 132 84.08 132 63 132 C63 153.78 63 175.56 63 198 C42.21 198 21.42 198 0 198 C0 132.66 0 67.32 0 0 Z " fill="#E0F69F" transform="translate(993,254)"/>
<path d="M0 0 C82.5 0 165 0 250 0 C250 8.91 250 17.82 250 27 C257.26 27 264.52 27 272 27 C272 53.4 272 79.8 272 107 C241.31 107 210.62 107 179 107 C179.01160156 117.16425781 179.02320313 127.32851563 179.03515625 137.80078125 C179.04100236 144.45686877 179.04663568 151.11295446 179.05078125 157.76904297 C179.05131248 158.61908394 179.05184372 159.4691249 179.05239105 160.34492469 C179.05624586 166.66744957 179.05951463 172.98997465 179.0625 179.3125 C179.0629343 180.20589868 179.06336861 181.09929735 179.06381607 182.01976871 C179.08689161 230.80736318 179.01023926 279.58969144 178.5 328.375 C178.48804218 329.51923557 178.47608437 330.66347115 178.46376419 331.84238052 C178.32270009 345.22844416 178.16402758 358.61417757 178 372 C152.92 372 127.84 372 102 372 C102 359.13 102 346.26 102 333 C99.03 333 96.06 333 93 333 C93 310.89 93 288.78 93 266 C114.12 266 135.24 266 157 266 C157 287.78 157 309.56 157 332 C143.47 332 129.94 332 116 332 C116 340.58 116 349.16 116 358 C132.17 358 148.34 358 165 358 C165 270.55 165 183.1 165 93 C195.69 93 226.38 93 258 93 C258 75.18 258 57.36 258 39 C255.36 39 252.72 39 250 39 C250 47.91 250 56.82 250 66 C167.5 66 85 66 0 66 C0 44.22 0 22.44 0 0 Z " fill="#F2F0E9" transform="translate(1586,187)"/>
<path d="M0 0 C72.6 0 145.2 0 220 0 C220 8.91 220 17.82 220 27 C226.93 27 233.86 27 241 27 C241 52.74 241 78.48 241 105 C164.77 105 88.54 105 10 105 C10 92.13 10 79.26 10 66 C6.7 66 3.4 66 0 66 C0 44.22 0 22.44 0 0 Z " fill="#CCFD5D" transform="translate(337,453)"/>
<path d="M0 0 C21.12 0 42.24 0 64 0 C64 21.78 64 43.56 64 66 C66.64 66 69.28 66 72 66 C72 44.22 72 22.44 72 0 C73.65 0 75.3 0 77 0 C77 21.78 77 43.56 77 66 C78.32 66 79.64 66 81 66 C81 44.55 81 23.1 81 1 C82.32 1 83.64 1 85 1 C85 22.45 85 43.9 85 66 C98.2 66 111.4 66 125 66 C125 44.22 125 22.44 125 0 C135.374375 -0.020625 145.74875 -0.04125 156.4375 -0.0625 C161.35740845 -0.07615601 161.35740845 -0.07615601 166.37670898 -0.09008789 C168.95817016 -0.09300676 171.53963178 -0.09555538 174.12109375 -0.09765625 C174.79608414 -0.10026962 175.47107452 -0.102883 176.16651917 -0.10557556 C178.14542498 -0.11285661 180.12435228 -0.1133384 182.10327148 -0.11352539 C183.22023911 -0.115746 184.33720673 -0.11796661 185.48802185 -0.12025452 C188 0 188 0 189 1 C189.09409479 3.02494231 189.11743122 5.0531987 189.11352539 7.08032227 C189.11344986 8.38159561 189.11337433 9.68286896 189.11329651 11.02357483 C189.10818909 12.45451902 189.10297308 13.88546282 189.09765625 15.31640625 C189.09579203 16.7722926 189.09436815 18.22817957 189.09336853 19.68406677 C189.08954365 23.52279379 189.07971364 27.36148319 189.06866455 31.20019531 C189.05665498 35.80235771 189.05204804 40.40453266 189.04621124 45.00670624 C189.03650185 52.00449702 189.01734513 59.0022052 189 66 C178.44 66 167.88 66 157 66 C157 87.78 157 109.56 157 132 C156.67 132 156.34 132 156 132 C156 110.55 156 89.1 156 67 C125.64 67 95.28 67 64 67 C64 88.45 64 109.9 64 132 C84.13 132 104.26 132 125 132 C125 140.91 125 149.82 125 159 C107.84 159 90.68 159 73 159 C73 171.87 73 184.74 73 198 C74.32 198 75.64 198 77 198 C77 186.45 77 174.9 77 163 C92.84 163 108.68 163 125 163 C125 164.32 125 165.64 125 167 C110.48 167 95.96 167 81 167 C81 210.89 81 254.78 81 300 C59.22 300 37.44 300 15 300 C15 288.45 15 276.9 15 265 C15.99 265 16.98 265 18 265 C18 275.23 18 285.46 18 296 C37.47 296 56.94 296 77 296 C77 263.99 77 231.98 77 199 C75.68 199 74.36 199 73 199 C73 229.69 73 260.38 73 292 C56.5 292 40 292 23 292 C23 283.09 23 274.18 23 265 C36.2 265 49.4 265 63 265 C63 243.55 63 222.1 63 200 C42.54 200 22.08 200 1 200 C1 221.45 1 242.9 1 265 C3.97 265 6.94 265 10 265 C10 277.87 10 290.74 10 304 C9.67 304 9.34 304 9 304 C9 291.46 9 278.92 9 266 C6.03 266 3.06 266 0 266 C0 178.22 0 90.44 0 0 Z " fill="#E5F4B4" transform="translate(1242,254)"/>
<path d="M0 0 C41.58 0 83.16 0 126 0 C126 8.58 126 17.16 126 26 C132.93 26 139.86 26 147 26 C147 39.2 147 52.4 147 66 C129.51 66 112.02 66 94 66 C94 74.91 94 83.82 94 93 C86.74 93 79.48 93 72 93 C72 105.87 72 118.74 72 132 C71.67 132 71.34 132 71 132 C71 118.8 71 105.6 71 92 C78.26 92 85.52 92 93 92 C93 83.42 93 74.84 93 66 C83.1 66 73.2 66 63 66 C63 109.56 63 153.12 63 198 C42.21 198 21.42 198 0 198 C0 132.66 0 67.32 0 0 Z " fill="#EAF2C9" transform="translate(681,254)"/>
<path d="M0 0 C20.79 0 41.58 0 63 0 C63.33 8.58 63.66 17.16 64 26 C70.93 26.33 77.86 26.66 85 27 C84.98839844 29.80371094 84.97679687 32.60742188 84.96484375 35.49609375 C84.95705367 38.19995002 84.95097663 40.90380506 84.94506836 43.60766602 C84.94002756 45.4924373 84.93319502 47.37720465 84.92456055 49.26196289 C84.91248383 51.96501636 84.90676932 54.66801831 84.90234375 57.37109375 C84.89718246 58.21900986 84.89202118 59.06692596 84.88670349 59.9405365 C84.88650805 61.96071068 84.93793789 63.98077934 85 66 C85.33 66.33 85.66 66.66 86 67 C86.09990954 69.31543088 86.13442215 71.60107546 86.12698364 73.91708374 C86.12932575 75.01776239 86.12932575 75.01776239 86.13171518 76.14067698 C86.1357365 78.62424079 86.13253457 81.10774423 86.12939453 83.59130859 C86.13072834 85.3704437 86.13248594 87.14957854 86.13463593 88.92871284 C86.13917798 93.80847904 86.13731529 98.68822467 86.13422441 103.56799126 C86.13233344 107.6936226 86.13392202 111.8192495 86.13556135 115.94488072 C86.1399253 126.9775762 86.13700651 138.01025877 86.13056505 149.04295278 C86.12592663 157.04558289 86.12352409 165.04821097 86.12231445 173.05084229 C86.11033258 239.37287459 85.882124 305.6831782 85 372 C59.92 372 34.84 372 9 372 C9 359.13 9 346.26 9 333 C6.03 333 3.06 333 0 333 C0 310.89 0 288.78 0 266 C21.12 266 42.24 266 64 266 C64 287.78 64 309.56 64 332 C50.47 332 36.94 332 23 332 C23 340.58 23 349.16 23 358 C39.17 358 55.34 358 72 358 C72 252.73 72 147.46 72 39 C69.36 39 66.72 39 64 39 C64 47.91 64 56.82 64 66 C42.88 66 21.76 66 0 66 C0 44.22 0 22.44 0 0 Z " fill="#F2F0E9" transform="translate(587,187)"/>
<path d="M0 0 C20.79 0 41.58 0 63 0 C63 8.91 63 17.82 63 27 C70.26 27 77.52 27 85 27 C85 140.85 85 254.7 85 372 C59.92 372 34.84 372 9 372 C9 359.13 9 346.26 9 333 C6.03 333 3.06 333 0 333 C0 310.89 0 288.78 0 266 C20.79 266 41.58 266 63 266 C63 287.78 63 309.56 63 332 C49.8 332 36.6 332 23 332 C23 340.91 23 349.82 23 359 C39.17 359 55.34 359 72 359 C71.89389404 350.64554565 71.89389404 350.64554565 71.78564453 342.12231445 C71.0847052 284.78032369 70.83980359 227.44634841 70.87143159 170.10038102 C70.87586503 161.09278216 70.87260027 152.0851968 70.8678025 143.07759875 C70.86328336 134.23159814 70.86261015 125.38560348 70.86524117 116.5396021 C70.86679052 111.32686078 70.86703158 106.11412887 70.86370468 100.90138817 C70.86083858 96.08792088 70.86277771 91.2744801 70.86859894 86.4610157 C70.86992651 84.69883137 70.86953246 82.93664483 70.86733627 81.17446136 C70.86462878 78.78446419 70.86799887 76.39455391 70.87301636 74.00456238 C70.86967027 72.94949888 70.86967027 72.94949888 70.86625659 71.87312096 C70.88583921 67.11416079 70.88583921 67.11416079 72 66 C72.08758003 64.00035018 72.10696576 61.9976389 72.09765625 59.99609375 C72.09443359 58.78115234 72.09121094 57.56621094 72.08789062 56.31445312 C72.07951172 55.03505859 72.07113281 53.75566406 72.0625 52.4375 C72.05798828 51.15423828 72.05347656 49.87097656 72.04882812 48.54882812 C72.03699545 45.36583978 72.02051068 42.18294238 72 39 C69.03 39 66.06 39 63 39 C63 47.91 63 56.82 63 66 C42.21 66 21.42 66 0 66 C0 44.22 0 22.44 0 0 Z " fill="#F2F0E9" transform="translate(1492,187)"/>
<path d="M0 0 C1.65 0 3.3 0 5 0 C5 11.55 5 23.1 5 35 C31.07 35 57.14 35 84 35 C84 33.68 84 32.36 84 31 C59.25 31 34.5 31 9 31 C9 21.1 9 11.2 9 1 C10.32 1 11.64 1 13 1 C13 9.58 13 18.16 13 27 C36.43 27 59.86 27 84 27 C84 18.09 84 9.18 84 0 C92.1969097 -0.02255425 100.39379545 -0.04091696 108.59072781 -0.05181217 C112.39651577 -0.0570402 116.20228148 -0.06413638 120.00805664 -0.07543945 C123.67792544 -0.0862712 127.34777278 -0.09227744 131.01765633 -0.09487724 C132.42074992 -0.09673097 133.82384229 -0.1003506 135.2269268 -0.10573006 C137.1856968 -0.11294419 139.1444882 -0.11340809 141.10327148 -0.11352539 C142.22023911 -0.115746 143.33720673 -0.11796661 144.48802185 -0.12025452 C147 0 147 0 148 1 C148.09775474 3.54196189 148.12995277 6.05672961 148.12025452 8.59913635 C148.12153615 9.80710771 148.12153615 9.80710771 148.12284368 11.03948253 C148.12450095 13.75884703 148.11897311 16.47815088 148.11352539 19.19750977 C148.11324355 21.13851927 148.1134012 23.07952889 148.1139679 25.02053833 C148.11425598 30.30750984 148.10835756 35.59445888 148.10139394 40.88142514 C148.09516214 46.40011053 148.09455674 51.91879638 148.09336853 57.43748474 C148.0902547 67.89579158 148.08204061 78.35408802 148.07201904 88.81239027 C148.06085951 100.71545041 148.05534786 112.61851103 148.05032361 124.52157509 C148.03985804 149.0143905 148.02151192 173.50719164 148 198 C126.88 198 105.76 198 84 198 C84 145.53 84 93.06 84 39 C56.28 39 28.56 39 0 39 C0 26.13 0 13.26 0 0 Z " fill="#EAF2C9" transform="translate(1595,254)"/>
<path d="M0 0 C62.04 0 124.08 0 188 0 C188 8.91 188 17.82 188 27 C195.26 27 202.52 27 210 27 C210 39.87 210 52.74 210 66 C208.35 66 206.7 66 205 66 C205 54.45 205 42.9 205 31 C199.39 31 193.78 31 188 31 C188 32.32 188 33.64 188 35 C192.62 35 197.24 35 202 35 C202 45.23 202 55.46 202 66 C200.35 66 198.7 66 197 66 C197 57.09 197 48.18 197 39 C194.03 39 191.06 39 188 39 C188 47.91 188 56.82 188 66 C125.96 66 63.92 66 0 66 C0 44.22 0 22.44 0 0 Z " fill="#F2F0E9" transform="translate(119,187)"/>
<path d="M0 0 C21.12 0 42.24 0 64 0 C64 65.34 64 130.68 64 198 C42.88 198 21.76 198 0 198 C0 132.66 0 67.32 0 0 Z " fill="#E0F69F" transform="translate(587,254)"/>
<path d="M0 0 C20.79 0 41.58 0 63 0 C63 65.34 63 130.68 63 198 C42.21 198 21.42 198 0 198 C0 132.66 0 67.32 0 0 Z " fill="#E0F69F" transform="translate(1492,254)"/>
<path d="M0 0 C20.79 0 41.58 0 63 0 C63 65.34 63 130.68 63 198 C42.21 198 21.42 198 0 198 C0 132.66 0 67.32 0 0 Z " fill="#E0F69F" transform="translate(88,254)"/>
<path d="M0 0 C51.48 0 102.96 0 156 0 C156.33 11.22 156.66 22.44 157 34 C161.29 34 165.58 34 170 34 C170 54.46 170 74.92 170 96 C109.94 96 49.88 96 -12 96 C-12 85.77 -12 75.54 -12 65 C-11.01 65 -10.02 65 -9 65 C-9 73.91 -9 82.82 -9 92 C48.75 92 106.5 92 166 92 C166 74.18 166 56.36 166 38 C163.03 38 160.06 38 157 38 C157 46.91 157 55.82 157 65 C105.19 65 53.38 65 0 65 C0 43.55 0 22.1 0 0 Z " fill="#CCFD5D" transform="translate(150,454)"/>
<path d="M0 0 C1.65 0 3.3 0 5 0 C5 11.55 5 23.1 5 35 C10.61 35 16.22 35 22 35 C22 33.68 22 32.36 22 31 C17.71 31 13.42 31 9 31 C9 20.77 9 10.54 9 0 C10.32 0 11.64 0 13 0 C13 8.91 13 17.82 13 27 C15.97 27 18.94 27 22 27 C22 18.42 22 9.84 22 1 C63.25 1 104.5 1 147 1 C147 22.45 147 43.9 147 66 C113.01 66 79.02 66 44 66 C44 74.91 44 83.82 44 93 C80.96 93 117.92 93 156 93 C156 62.31 156 31.62 156 0 C157.65 0 159.3 0 161 0 C161 32.01 161 64.02 161 97 C121.07 97 81.14 97 40 97 C40 86.77 40 76.54 40 66 C38.68 66 37.36 66 36 66 C36 77.55 36 89.1 36 101 C78.57 101 121.14 101 165 101 C165 67.67 165 34.34 165 0 C166.32 0 167.64 0 169 0 C169 34.65 169 69.3 169 105 C123.46 105 77.92 105 31 105 C31 92.13 31 79.26 31 66 C28.03 66 25.06 66 22 66 C22 57.09 22 48.18 22 39 C14.74 39 7.48 39 0 39 C0 26.13 0 13.26 0 0 Z " fill="#CBFD5D" transform="translate(815,453)"/>
<path d="M0 0 C1.32 0 2.64 0 4 0 C4 11.55 4 23.1 4 35 C9.61 35 15.22 35 21 35 C21 33.68 21 32.36 21 31 C16.71 31 12.42 31 8 31 C8 20.77 8 10.54 8 0 C9.32 0 10.64 0 12 0 C12 8.91 12 17.82 12 27 C14.97 27 17.94 27 21 27 C21 18.09 21 9.18 21 0 C83.37 0 145.74 0 210 0 C210 8.58 210 17.16 210 26 C216.93 26 223.86 26 231 26 C231 52.07 231 78.14 231 105 C165 105 99 105 31 105 C31 92.13 31 79.26 31 66 C27.7 66 24.4 66 21 66 C21 57.09 21 48.18 21 39 C14.07 39 7.14 39 0 39 C0 26.13 0 13.26 0 0 Z M52 1 C52 22.45 52 43.9 52 66 C103.81 66 155.62 66 209 66 C209 57.09 209 48.18 209 39 C211.97 39 214.94 39 218 39 C218 56.82 218 74.64 218 93 C160.25 93 102.5 93 43 93 C43 84.09 43 75.18 43 66 C42.01 66 41.02 66 40 66 C40 76.23 40 86.46 40 97 C100.06 97 160.12 97 222 97 C222 76.54 222 56.08 222 35 C217.71 35 213.42 35 209 35 C208.67 23.78 208.34 12.56 208 1 C156.52 1 105.04 1 52 1 Z " fill="#CCFD5E" transform="translate(98,453)"/>
<path d="M0 0 C20.79 0 41.58 0 63 0 C63.33 8.58 63.66 17.16 64 26 C70.93 26.33 77.86 26.66 85 27 C84.98259766 31.20556641 84.98259766 31.20556641 84.96484375 35.49609375 C84.95705367 38.19995002 84.95097663 40.90380506 84.94506836 43.60766602 C84.94002756 45.4924373 84.93319502 47.37720465 84.92456055 49.26196289 C84.91248383 51.96501636 84.90676932 54.66801831 84.90234375 57.37109375 C84.89718246 58.21900986 84.89202118 59.06692596 84.88670349 59.9405365 C84.88650805 61.96071068 84.93793789 63.98077934 85 66 C85.33 66.33 85.66 66.66 86 67 C86.0977625 69.5545717 86.12995146 72.08208461 86.12025452 74.63710022 C86.12153615 75.85119691 86.12153615 75.85119691 86.12284368 77.0898208 C86.12450096 79.82300472 86.11897309 82.55612831 86.11352539 85.28930664 C86.11324355 87.24016824 86.1134012 89.19102994 86.1139679 91.14189148 C86.11425598 96.45572159 86.10835754 101.76952934 86.10139394 107.08335423 C86.09516216 112.63006685 86.09455674 118.17677991 86.09336853 123.72349548 C86.09025469 134.23492625 86.0820406 144.74634666 86.07201904 155.25777286 C86.06085953 167.22129135 86.05534786 179.18481032 86.05032361 191.14833272 C86.03985803 215.76556089 86.02225758 240.38277987 86 265 C84.35 265.33 82.7 265.66 81 266 C81 299.33 81 332.66 81 367 C38.43 367 -4.14 367 -48 367 C-48 355.45 -48 343.9 -48 332 C-46.68 332 -45.36 332 -44 332 C-44 342.23 -44 352.46 -44 363 C-4.07 363 35.86 363 77 363 C77 330.99 77 298.98 77 266 C75.35 266 73.7 266 72 266 C72 191.09 72 116.18 72 39 C69.36 39 66.72 39 64 39 C64 47.91 64 56.82 64 66 C42.88 66 21.76 66 0 66 C0 44.22 0 22.44 0 0 Z " fill="#F2F0E9" transform="translate(899,187)"/>
<path d="M0 0 C2.97 0 5.94 0 9 0 C9 8.91 9 17.82 9 27 C10.65 27.33 12.3 27.66 14 28 C14 38.56 14 49.12 14 60 C-37.48 60 -88.96 60 -142 60 C-142 115.11 -142 170.22 -142 227 C-157.18 227 -172.36 227 -188 227 C-188 235.91 -188 244.82 -188 254 C-190.97 254 -193.94 254 -197 254 C-197 245.09 -197 236.18 -197 227 C-198.32 227 -199.64 227 -201 227 C-201 237.23 -201 247.46 -201 258 C-196.71 258 -192.42 258 -188 258 C-188 259.32 -188 260.64 -188 262 C-193.61 262 -199.22 262 -205 262 C-205 250.45 -205 238.9 -205 227 C-206.32 227 -207.64 227 -209 227 C-209 239.87 -209 252.74 -209 266 C-202.07 266 -195.14 266 -188 266 C-188 266.33 -188 266.66 -188 267 C-195.26 267 -202.52 267 -210 267 C-210 253.8 -210 240.6 -210 227 C-212.97 227 -215.94 227 -219 227 C-219 226.67 -219 226.34 -219 226 C-197.88 226 -176.76 226 -155 226 C-155 160.33 -155 94.66 -155 27 C-103.85 27 -52.7 27 0 27 C0 18.09 0 9.18 0 0 Z " fill="#FEFEFC" transform="translate(307,226)"/>
<path d="M0 0 C21.12 0 42.24 0 64 0 C64 21.78 64 43.56 64 66 C43.21 66 22.42 66 1 66 C1 87.78 1 109.56 1 132 C21.46 132 41.92 132 63 132 C63 153.78 63 175.56 63 198 C42.21 198 21.42 198 0 198 C0 132.66 0 67.32 0 0 Z " fill="#EAF2C9" transform="translate(1242,254)"/>
<path d="M0 0 C20.79 0 41.58 0 63 0 C63 43.56 63 87.12 63 132 C42.21 132 21.42 132 0 132 C0 88.44 0 44.88 0 0 Z " fill="#D5FA78" transform="translate(681,320)"/>
<path d="M0 0 C20.79 0 41.58 0 63 0 C63 43.56 63 87.12 63 132 C42.21 132 21.42 132 0 132 C0 88.44 0 44.88 0 0 Z " fill="#D5FA78" transform="translate(338,320)"/>
<path d="M0 0 C20.79 0 41.58 0 63 0 C63 43.56 63 87.12 63 132 C42.21 132 21.42 132 0 132 C0 88.44 0 44.88 0 0 Z " fill="#E0F69F" transform="translate(899,320)"/>
<path d="M0 0 C20.79 0 41.58 0 63 0 C63 8.58 63 17.16 63 26 C70.26 26 77.52 26 85 26 C85 51.74 85 77.48 85 104 C59.92 104 34.84 104 9 104 C9 91.13 9 78.26 9 65 C6.03 65 3.06 65 0 65 C0 43.55 0 22.1 0 0 Z " fill="#CCFD5F" transform="translate(1149,454)"/>
<path d="M0 0 C1.65 0 3.3 0 5 0 C5 78.87 5 157.74 5 239 C-20.08 239 -45.16 239 -71 239 C-71 226.13 -71 213.26 -71 200 C-73.97 200 -76.94 200 -80 200 C-80 177.89 -80 155.78 -80 133 C-58.88 133 -37.76 133 -16 133 C-16 154.78 -16 176.56 -16 199 C-29.53 199 -43.06 199 -57 199 C-57 207.58 -57 216.16 -57 225 C-40.83 225 -24.66 225 -8 225 C-8 194.64 -8 164.28 -8 133 C-6.35 133 -4.7 133 -3 133 C-3 165.01 -3 197.02 -3 230 C-22.8 230 -42.6 230 -63 230 C-63 220.1 -63 210.2 -63 200 C-63.66 200 -64.32 200 -65 200 C-65 210.89 -65 221.78 -65 233 C-43.55 233 -22.1 233 0 233 C0 156.11 0 79.22 0 0 Z " fill="#CFFD68" transform="translate(667,320)"/>
<path d="M0 0 C1.65 0 3.3 0 5 0 C5 76.23 5 152.46 5 231 C-14.47 231 -33.94 231 -54 231 C-54 220.44 -54 209.88 -54 199 C-55.32 199 -56.64 199 -58 199 C-58 210.55 -58 222.1 -58 234 C-36.22 234 -14.44 234 8 234 C8 200.67 8 167.34 8 133 C9.65 133 11.3 133 13 133 C13 167.98 13 202.96 13 239 C-12.08 239 -37.16 239 -63 239 C-63 226.13 -63 213.26 -63 200 C-65.97 200 -68.94 200 -72 200 C-72 177.89 -72 155.78 -72 133 C-51.21 133 -30.42 133 -9 133 C-9 154.78 -9 176.56 -9 199 C-22.2 199 -35.4 199 -49 199 C-49 207.91 -49 216.82 -49 226 C-32.83 226 -16.66 226 0 226 C0 151.42 0 76.84 0 0 Z " fill="#CBFD5C" transform="translate(1564,320)"/>
<path d="M0 0 C31.02 0 62.04 0 94 0 C94 8.91 94 17.82 94 27 C101.26 27 108.52 27 116 27 C116 39.87 116 52.74 116 66 C114.35 66 112.7 66 111 66 C111 54.45 111 42.9 111 31 C105.39 31 99.78 31 94 31 C94 32.32 94 33.64 94 35 C98.62 35 103.24 35 108 35 C108 45.23 108 55.46 108 66 C106.35 66 104.7 66 103 66 C103 57.09 103 48.18 103 39 C100.03 39 97.06 39 94 39 C94 47.91 94 56.82 94 66 C62.98 66 31.96 66 0 66 C0 44.22 0 22.44 0 0 Z " fill="#F2F0E9" transform="translate(681,187)"/>
<path d="M0 0 C20.79 0 41.58 0 63 0 C63 21.78 63 43.56 63 66 C52.77 66 42.54 66 32 66 C32 87.78 32 109.56 32 132 C34.64 132 37.28 132 40 132 C40 118.8 40 105.6 40 92 C50.23 92 60.46 92 71 92 C71 70.55 71 49.1 71 27 C81.56 27 92.12 27 103 27 C103 18.42 103 9.84 103 1 C104.32 1 105.64 1 107 1 C107 10.9 107 20.8 107 31 C96.77 31 86.54 31 76 31 C76 52.78 76 74.56 76 97 C65.77 97 55.54 97 45 97 C45 108.55 45 120.1 45 132 C46.32 132 47.64 132 49 132 C49 121.77 49 111.54 49 101 C59.23 101 69.46 101 80 101 C80 79.22 80 57.44 80 35 C90.23 35 100.46 35 111 35 C111 23.45 111 11.9 111 0 C112.65 0 114.3 0 116 0 C116 12.87 116 25.74 116 39 C105.77 39 95.54 39 85 39 C85 61.11 85 83.22 85 106 C74.77 106 64.54 106 54 106 C54 114.58 54 123.16 54 132 C56.97 132 59.94 132 63 132 C63 140.58 63 149.16 63 158 C70.26 158 77.52 158 85 158 C85 171.2 85 184.4 85 198 C84.67 198 84.34 198 84 198 C84 185.13 84 172.26 84 159 C76.74 159 69.48 159 62 159 C62 150.42 62 141.84 62 133 C51.77 133 41.54 133 31 133 C31 110.89 31 88.78 31 66 C20.77 66 10.54 66 0 66 C0 44.22 0 22.44 0 0 Z " fill="#EAF2C9" transform="translate(1118,254)"/>
<path d="M0 0 C21.12 0 42.24 0 64 0 C64 21.78 64 43.56 64 66 C50.47 66 36.94 66 23 66 C23 74.58 23 83.16 23 92 C39.17 92 55.34 92 72 92 C72 61.64 72 31.28 72 0 C73.65 0 75.3 0 77 0 C77 32.01 77 64.02 77 97 C57.53 97 38.06 97 18 97 C18 86.77 18 76.54 18 66 C16.68 66 15.36 66 14 66 C14 77.55 14 89.1 14 101 C36.11 101 58.22 101 81 101 C81 67.67 81 34.34 81 0 C82.32 0 83.64 0 85 0 C85 34.98 85 69.96 85 106 C59.92 106 34.84 106 9 106 C9 93.13 9 80.26 9 67 C6.03 67 3.06 67 0 67 C0 44.89 0 22.78 0 0 Z " fill="#CEFD63" transform="translate(1679,453)"/>
<path d="M0 0 C30.36 0 60.72 0 92 0 C92 21.45 92 42.9 92 65 C82.1 65 72.2 65 62 65 C62 73.91 62 82.82 62 92 C61.67 92 61.34 92 61 92 C61 83.09 61 74.18 61 65 C40.87 65 20.74 65 0 65 C0 43.55 0 22.1 0 0 Z " fill="#E0F69F" transform="translate(1306,321)"/>
<path d="M0 0 C20.79 0 41.58 0 63 0 C63 21.78 63 43.56 63 66 C49.47 66 35.94 66 22 66 C22 74.91 22 83.82 22 93 C38.5 93 55 93 72 93 C72 62.31 72 31.62 72 0 C73.32 0 74.64 0 76 0 C76 32.01 76 64.02 76 97 C56.86 97 37.72 97 18 97 C18 86.77 18 76.54 18 66 C16.68 66 15.36 66 14 66 C14 77.55 14 89.1 14 101 C35.78 101 57.56 101 80 101 C80 67.67 80 34.34 80 0 C81.65 0 83.3 0 85 0 C85 34.65 85 69.3 85 105 C59.92 105 34.84 105 9 105 C9 92.13 9 79.26 9 66 C6.03 66 3.06 66 0 66 C0 44.22 0 22.44 0 0 Z " fill="#CBFD5C" transform="translate(681,453)"/>
<path d="M0 0 C20.79 0 41.58 0 63 0 C63 21.78 63 43.56 63 66 C49.47 66 35.94 66 22 66 C22 74.91 22 83.82 22 93 C38.5 93 55 93 72 93 C72 62.64 72 32.28 72 1 C73.32 1 74.64 1 76 1 C76 32.68 76 64.36 76 97 C56.86 97 37.72 97 18 97 C18 86.77 18 76.54 18 66 C16.68 66 15.36 66 14 66 C14 77.55 14 89.1 14 101 C35.78 101 57.56 101 80 101 C80 67.67 80 34.34 80 0 C81.65 0 83.3 0 85 0 C85 34.65 85 69.3 85 105 C59.92 105 34.84 105 9 105 C9 92.13 9 79.26 9 66 C6.03 66 3.06 66 0 66 C0 44.22 0 22.44 0 0 Z " fill="#CBFD5C" transform="translate(993,453)"/>
<path d="M0 0 C2.97 0 5.94 0 9 0 C9 17.82 9 35.64 9 54 C-58.98 54 -126.96 54 -197 54 C-197 45.09 -197 36.18 -197 27 C-131.99 27 -66.98 27 0 27 C0 18.09 0 9.18 0 0 Z " fill="#FDFEF9" transform="translate(557,492)"/>
<path d="M0 0 C1.32 0 2.64 0 4 0 C4 32.01 4 64.02 4 97 C-15.47 97 -34.94 97 -55 97 C-55 86.77 -55 76.54 -55 66 C-55.99 66 -56.98 66 -58 66 C-58 77.55 -58 89.1 -58 101 C-36.22 101 -14.44 101 8 101 C8 67.67 8 34.34 8 0 C9.32 0 10.64 0 12 0 C12 34.65 12 69.3 12 105 C-12.75 105 -37.5 105 -63 105 C-63 92.13 -63 79.26 -63 66 C-65.97 66 -68.94 66 -72 66 C-72 44.55 -72 23.1 -72 1 C-51.54 1 -31.08 1 -10 1 C-10 22.45 -10 43.9 -10 66 C-23.2 66 -36.4 66 -50 66 C-50 74.91 -50 83.82 -50 93 C-33.5 93 -17 93 0 93 C0 62.31 0 31.62 0 0 Z " fill="#CBFD5B" transform="translate(1315,453)"/>
<path d="M0 0 C20.6949066 -0.12783401 41.31996904 0.2051601 62 1 C62 9.58 62 18.16 62 27 C69.26 27 76.52 27 84 27 C84 39.87 84 52.74 84 66 C82.68 66 81.36 66 80 66 C80 54.45 80 42.9 80 31 C74.39 31 68.78 31 63 31 C63 32.32 63 33.64 63 35 C67.29 35 71.58 35 76 35 C76 45.23 76 55.46 76 66 C74.68 66 73.36 66 72 66 C72 57.09 72 48.18 72 39 C69.03 39 66.06 39 63 39 C63 47.91 63 56.82 63 66 C42.21 66 21.42 66 0 66 C0 57.09 0 48.18 0 39 C-13.2 39 -26.4 39 -40 39 C-40 47.91 -40 56.82 -40 66 C-41.65 66 -43.3 66 -45 66 C-45 55.77 -45 45.54 -45 35 C-30.15 35 -15.3 35 0 35 C0 33.68 0 32.36 0 31 C-16.17 31 -32.34 31 -49 31 C-49 42.55 -49 54.1 -49 66 C-50.65 66 -52.3 66 -54 66 C-54 53.13 -54 40.26 -54 27 C-36.18 27 -18.36 27 0 27 C0 18.09 0 9.18 0 0 Z " fill="#D5FA7A" transform="translate(1118,386)"/>
<path d="M0 0 C5.61 0 11.22 0 17 0 C17.33 11.55 17.66 23.1 18 35 C19.32 35.33 20.64 35.66 22 36 C22 49.2 22 62.4 22 76 C-8.69 76 -39.38 76 -71 76 C-71 128.14 -71 180.28 -71 234 C-72.65 234.33 -74.3 234.66 -76 235 C-76 268.33 -76 301.66 -76 336 C-98.11 336 -120.22 336 -143 336 C-143 324.45 -143 312.9 -143 301 C-141.68 301 -140.36 301 -139 301 C-139 311.23 -139 321.46 -139 332 C-119.53 332 -100.06 332 -80 332 C-80 299.99 -80 267.98 -80 235 C-81.65 235 -83.3 235 -85 235 C-85 177.91 -85 120.82 -85 62 C-54.31 62 -23.62 62 8 62 C8 53.42 8 44.84 8 36 C10.475 35.505 10.475 35.505 13 35 C13 24.77 13 14.54 13 4 C8.71 4 4.42 4 0 4 C0 2.68 0 1.36 0 0 Z " fill="#FCFDF9" transform="translate(1836,218)"/>
<path d="M0 0 C2.97 0 5.94 0 9 0 C9 17.82 9 35.64 9 54 C-48.42 54 -105.84 54 -165 54 C-165 45.09 -165 36.18 -165 27 C-110.55 27 -56.1 27 0 27 C0 18.09 0 9.18 0 0 Z " fill="#FDFEF9" transform="translate(307,492)"/>
<path d="M0 0 C1.32 0 2.64 0 4 0 C4 11.88 4 23.76 4 36 C9.94 36 15.88 36 22 36 C22 34.35 22 32.7 22 31 C17.71 31 13.42 31 9 31 C9 20.77 9 10.54 9 0 C10.32 0 11.64 0 13 0 C13 8.91 13 17.82 13 27 C15.97 27 18.94 27 22 27 C22 18.09 22 9.18 22 0 C42.6949066 -0.12783401 63.31996904 0.2051601 84 1 C84 9.58 84 18.16 84 27 C91.26 27 98.52 27 106 27 C106 39.87 106 52.74 106 66 C104.68 66 103.36 66 102 66 C102 54.45 102 42.9 102 31 C96.39 31 90.78 31 85 31 C85 32.32 85 33.64 85 35 C89.29 35 93.58 35 98 35 C98 45.23 98 55.46 98 66 C96.68 66 95.36 66 94 66 C94 57.09 94 48.18 94 39 C91.03 39 88.06 39 85 39 C85 47.91 85 56.82 85 66 C64.21 66 43.42 66 22 66 C22 57.09 22 48.18 22 39 C14.74 39 7.48 39 0 39 C0 26.13 0 13.26 0 0 Z " fill="#D5FA79" transform="translate(784,386)"/>
<path d="M0 0 C20.79 0 41.58 0 63 0 C63 8.91 63 17.82 63 27 C70.26 27 77.52 27 85 27 C85 39.87 85 52.74 85 66 C83.35 66 81.7 66 80 66 C80 54.45 80 42.9 80 31 C74.39 31 68.78 31 63 31 C63 32.32 63 33.64 63 35 C67.29 35 71.58 35 76 35 C76 45.23 76 55.46 76 66 C74.35 66 72.7 66 71 66 C71 57.09 71 48.18 71 39 C68.36 39 65.72 39 63 39 C63 47.91 63 56.82 63 66 C42.21 66 21.42 66 0 66 C0 44.22 0 22.44 0 0 Z " fill="#F2F0E9" transform="translate(1149,187)"/>
<path d="M0 0 C20.79 0 41.58 0 63 0 C63 8.91 63 17.82 63 27 C70.26 27 77.52 27 85 27 C85 39.87 85 52.74 85 66 C83.35 66 81.7 66 80 66 C80 54.45 80 42.9 80 31 C74.39 31 68.78 31 63 31 C63 32.32 63 33.64 63 35 C67.29 35 71.58 35 76 35 C76 45.23 76 55.46 76 66 C74.35 66 72.7 66 71 66 C71 57.09 71 48.18 71 39 C68.36 39 65.72 39 63 39 C63 47.91 63 56.82 63 66 C42.21 66 21.42 66 0 66 C0 44.22 0 22.44 0 0 Z " fill="#F2F0E9" transform="translate(993,187)"/>
<path d="M0 0 C20.79 0 41.58 0 63 0 C63 8.91 63 17.82 63 27 C69.93 27 76.86 27 84 27 C85.61301773 30.22603545 85.12053599 33.74710038 85.09765625 37.2890625 C85.0962413 38.10748627 85.09482635 38.92591003 85.09336853 39.76913452 C85.0877629 42.38779325 85.07520948 45.00636704 85.0625 47.625 C85.05748572 49.39843627 85.05292269 51.17187387 85.04882812 52.9453125 C85.03779164 57.29690782 85.02052325 61.6484395 85 66 C83.35 66 81.7 66 80 66 C80 54.45 80 42.9 80 31 C74.39 31 68.78 31 63 31 C63 32.32 63 33.64 63 35 C67.29 35 71.58 35 76 35 C76 45.23 76 55.46 76 66 C74.35 66 72.7 66 71 66 C71 57.09 71 48.18 71 39 C68.36 39 65.72 39 63 39 C63 47.91 63 56.82 63 66 C42.21 66 21.42 66 0 66 C0 44.22 0 22.44 0 0 Z " fill="#F2F0E9" transform="translate(1399,187)"/>
<path d="M0 0 C20.79 0 41.58 0 63 0 C63 8.91 63 17.82 63 27 C69.93 27 76.86 27 84 27 C85.61301773 30.22603545 85.12053599 33.74710038 85.09765625 37.2890625 C85.0962413 38.10748627 85.09482635 38.92591003 85.09336853 39.76913452 C85.0877629 42.38779325 85.07520948 45.00636704 85.0625 47.625 C85.05748572 49.39843627 85.05292269 51.17187387 85.04882812 52.9453125 C85.03779164 57.29690782 85.02052325 61.6484395 85 66 C83.35 66 81.7 66 80 66 C80 54.45 80 42.9 80 31 C74.39 31 68.78 31 63 31 C63 32.32 63 33.64 63 35 C67.29 35 71.58 35 76 35 C76 45.23 76 55.46 76 66 C74.35 66 72.7 66 71 66 C71 57.09 71 48.18 71 39 C68.36 39 65.72 39 63 39 C63 47.91 63 56.82 63 66 C42.21 66 21.42 66 0 66 C0 44.22 0 22.44 0 0 Z " fill="#F2F0E9" transform="translate(1243,187)"/>
<path d="M0 0 C20.79 0 41.58 0 63 0 C63 8.91 63 17.82 63 27 C69.93 27 76.86 27 84 27 C85.61301773 30.22603545 85.12053599 33.74710038 85.09765625 37.2890625 C85.0962413 38.10748627 85.09482635 38.92591003 85.09336853 39.76913452 C85.0877629 42.38779325 85.07520948 45.00636704 85.0625 47.625 C85.05748572 49.39843627 85.05292269 51.17187387 85.04882812 52.9453125 C85.03779164 57.29690782 85.02052325 61.6484395 85 66 C83.35 66 81.7 66 80 66 C80 54.45 80 42.9 80 31 C74.39 31 68.78 31 63 31 C63 32.32 63 33.64 63 35 C67.29 35 71.58 35 76 35 C76 45.23 76 55.46 76 66 C74.35 66 72.7 66 71 66 C71 57.09 71 48.18 71 39 C68.36 39 65.72 39 63 39 C63 47.91 63 56.82 63 66 C42.21 66 21.42 66 0 66 C0 44.22 0 22.44 0 0 Z " fill="#F2F0E9" transform="translate(338,187)"/>
<path d="M0 0 C10.56 0 21.12 0 32 0 C32 21.45 32 42.9 32 65 C28.7 65 25.4 65 22 65 C22 73.91 22 82.82 22 92 C89.98 92 157.96 92 228 92 C228 83.09 228 74.18 228 65 C229.32 65 230.64 65 232 65 C232 75.23 232 85.46 232 96 C161.05 96 90.1 96 17 96 C17 85.77 17 75.54 17 65 C16.01 65 15.02 65 14 65 C14 76.55 14 88.1 14 100 C87.59 100 161.18 100 237 100 C237 88.45 237 76.9 237 65 C237.99 65 238.98 65 240 65 C240 77.87 240 90.74 240 104 C163.77 104 87.54 104 9 104 C9 91.13 9 78.26 9 65 C6.03 65 3.06 65 0 65 C0 43.55 0 22.1 0 0 Z " fill="#CBFD5B" transform="translate(338,454)"/>
<path d="M0 0 C21.12 0 42.24 0 64 0 C64 65.34 64 130.68 64 198 C63.67 198 63.34 198 63 198 C63 154.44 63 110.88 63 66 C42.21 66 21.42 66 0 66 C0 44.22 0 22.44 0 0 Z " fill="#EAF2C9" transform="translate(899,254)"/>
<path d="M0 0 C21.12 0 42.24 0 64 0 C64 65.34 64 130.68 64 198 C63.67 198 63.34 198 63 198 C63 154.44 63 110.88 63 66 C42.21 66 21.42 66 0 66 C0 44.22 0 22.44 0 0 Z " fill="#EAF2C9" transform="translate(587,254)"/>
<path d="M0 0 C21.12 0 42.24 0 64 0 C64 21.78 64 43.56 64 66 C43.21 66 22.42 66 1 66 C1 109.56 1 153.12 1 198 C0.67 198 0.34 198 0 198 C0 132.66 0 67.32 0 0 Z " fill="#EAF2CA" transform="translate(337,254)"/>
<path d="M0 0 C20.79 0 41.58 0 63 0 C63 21.78 63 43.56 63 66 C42.21 66 21.42 66 0 66 C0 44.22 0 22.44 0 0 Z " fill="#D5FA78" transform="translate(1679,386)"/>
<path d="M0 0 C20.79 0 41.58 0 63 0 C63 21.78 63 43.56 63 66 C42.21 66 21.42 66 0 66 C0 44.22 0 22.44 0 0 Z " fill="#D5FA78" transform="translate(993,386)"/>
<path d="M0 0 C20.79 0 41.58 0 63 0 C63 21.78 63 43.56 63 66 C42.21 66 21.42 66 0 66 C0 44.22 0 22.44 0 0 Z " fill="#D5FA78" transform="translate(88,386)"/>
<path d="M0 0 C20.79 0 41.58 0 63 0 C63 21.78 63 43.56 63 66 C42.21 66 21.42 66 0 66 C0 44.22 0 22.44 0 0 Z " fill="#E0F69F" transform="translate(681,320)"/>
<path d="M0 0 C20.79 0 41.58 0 63 0 C63 21.78 63 43.56 63 66 C42.21 66 21.42 66 0 66 C0 44.22 0 22.44 0 0 Z " fill="#E0F69F" transform="translate(338,320)"/>
<path d="M0 0 C20.79 0 41.58 0 63 0 C63 21.78 63 43.56 63 66 C42.21 66 21.42 66 0 66 C0 44.22 0 22.44 0 0 Z " fill="#EAF2C9" transform="translate(1492,254)"/>
<path d="M0 0 C20.79 0 41.58 0 63 0 C63 21.78 63 43.56 63 66 C42.21 66 21.42 66 0 66 C0 44.22 0 22.44 0 0 Z " fill="#EAF2C9" transform="translate(993,254)"/>
<path d="M0 0 C20.79 0 41.58 0 63 0 C63 21.78 63 43.56 63 66 C42.21 66 21.42 66 0 66 C0 44.22 0 22.44 0 0 Z " fill="#EAF2C9" transform="translate(88,254)"/>
<path d="M0 0 C1.09920273 0.00222061 2.19840546 0.00444122 3.33091736 0.00672913 C4.58956604 0.00684998 5.84821472 0.00697083 7.14500427 0.00709534 C8.49205067 0.0121318 9.83909658 0.01729844 11.18614197 0.02259827 C12.40394348 0.02360535 13.621745 0.02461243 14.87644958 0.02565002 C19.44713781 0.03090157 24.01781266 0.04486267 28.58848572 0.05775452 C38.79786072 0.07837952 49.00723572 0.09900452 59.52598572 0.12025452 C59.52598572 21.57025452 59.52598572 43.02025452 59.52598572 65.12025452 C38.73598572 65.12025452 17.94598572 65.12025452 -3.47401428 65.12025452 C-3.51412309 49.18814414 -3.51412309 49.18814414 -3.52284241 42.41908264 C-3.52883007 37.79252482 -3.53592833 33.1659867 -3.54945374 28.53944397 C-3.56028528 24.81122051 -3.56629168 21.08301817 -3.56889153 17.3547802 C-3.57074529 15.92935796 -3.57436499 14.50393693 -3.57974434 13.07852364 C-3.58695821 11.08862044 -3.58742237 9.09869618 -3.58753967 7.10877991 C-3.58976028 5.97404739 -3.5919809 4.83931488 -3.5942688 3.67019653 C-3.43453879 0.28319473 -3.38051665 0.16431692 0 0 Z " fill="#CCFD5D" transform="translate(465.47401428222656,453.87974548339844)"/>
<path d="M0 0 C20.46 0 40.92 0 62 0 C62 21.78 62 43.56 62 66 C41.54 66 21.08 66 0 66 C0 44.22 0 22.44 0 0 Z " fill="#D5FA78" transform="translate(1493,386)"/>
<path d="M0 0 C20.46 0 40.92 0 62 0 C62 21.78 62 43.56 62 66 C41.54 66 21.08 66 0 66 C0 44.22 0 22.44 0 0 Z " fill="#D5F978" transform="translate(1243,386)"/>
<path d="M0 0 C20.46 0 40.92 0 62 0 C62 21.78 62 43.56 62 66 C41.54 66 21.08 66 0 66 C0 44.22 0 22.44 0 0 Z " fill="#D5F978" transform="translate(900,386)"/>
<path d="M0 0 C20.46 0 40.92 0 62 0 C62 21.78 62 43.56 62 66 C41.54 66 21.08 66 0 66 C0 44.22 0 22.44 0 0 Z " fill="#D5F978" transform="translate(588,386)"/>
<path d="M0 0 C20.46 0 40.92 0 62 0 C62 21.78 62 43.56 62 66 C41.54 66 21.08 66 0 66 C0 44.22 0 22.44 0 0 Z " fill="#E0F59F" transform="translate(1680,320)"/>
<path d="M0 0 C72.6 0 145.2 0 220 0 C220 8.91 220 17.82 220 27 C226.93 27 233.86 27 241 27 C241 39.87 241 52.74 241 66 C240.01 66 239.02 66 238 66 C238 77.55 238 89.1 238 101 C164.41 101 90.82 101 15 101 C15 89.45 15 77.9 15 66 C15.99 66 16.98 66 18 66 C18 76.23 18 86.46 18 97 C88.95 97 159.9 97 233 97 C233 86.77 233 76.54 233 66 C231.68 66 230.36 66 229 66 C229 57.09 229 48.18 229 39 C226.03 39 223.06 39 220 39 C220 47.91 220 56.82 220 66 C209.44 66 198.88 66 188 66 C188 44.55 188 23.1 188 1 C126.29 1 64.58 1 1 1 C1 22.45 1 43.9 1 66 C0.67 66 0.34 66 0 66 C0 44.22 0 22.44 0 0 Z " fill="#CEFD64" transform="translate(337,453)"/>
<path d="M0 0 C5.28 0 10.56 0 16 0 C16.33 11.55 16.66 23.1 17 35 C18.65 35.33 20.3 35.66 22 36 C22 101.34 22 166.68 22 234 C20.35 234.33 18.7 234.66 17 235 C17 268.33 17 301.66 17 336 C-25.57 336 -68.14 336 -112 336 C-112 324.45 -112 312.9 -112 301 C-110.68 301 -109.36 301 -108 301 C-108 311.23 -108 321.46 -108 332 C-68.07 332 -28.14 332 13 332 C13 299.99 13 267.98 13 235 C11.35 235 9.7 235 8 235 C8 169.33 8 103.66 8 36 C9.65 35.67 11.3 35.34 13 35 C13 24.77 13 14.54 13 4 C8.71 4 4.42 4 0 4 C0 2.68 0 1.36 0 0 Z " fill="#FDFEFA" transform="translate(963,218)"/>
<path d="M0 0 C20.13 0 40.26 0 61 0 C61 8.58 61 17.16 61 26 C43.51 26 26.02 26 8 26 C8 69.89 8 113.78 8 159 C-7.84 159 -23.68 159 -40 159 C-40 150.75 -40 142.5 -40 134 C-26.8 134 -13.6 134 0 134 C0 89.78 0 45.56 0 0 Z " fill="#FEFEFE" transform="translate(1306,386)"/>
<path d="M0 0 C10.56 0 21.12 0 32 0 C32 21.45 32 42.9 32 65 C28.7 65 25.4 65 22 65 C22 73.91 22 82.82 22 92 C38.5 92 55 92 72 92 C72 83.09 72 74.18 72 65 C73.32 65 74.64 65 76 65 C76 75.23 76 85.46 76 96 C56.86 96 37.72 96 18 96 C18 85.77 18 75.54 18 65 C16.68 65 15.36 65 14 65 C14 76.55 14 88.1 14 100 C36.11 100 58.22 100 81 100 C81 88.45 81 76.9 81 65 C81.99 65 82.98 65 84 65 C84 77.87 84 90.74 84 104 C59.25 104 34.5 104 9 104 C9 91.13 9 78.26 9 65 C6.03 65 3.06 65 0 65 C0 43.55 0 22.1 0 0 Z " fill="#CBFD5C" transform="translate(1149,454)"/>
<path d="M0 0 C5.61 0 11.22 0 17 0 C17.33 11.55 17.66 23.1 18 35 C19.98 35.495 19.98 35.495 22 36 C22 101.34 22 166.68 22 234 C20.35 234 18.7 234 17 234 C17 267.66 17 301.32 17 336 C-4.78 336 -26.56 336 -49 336 C-49 324.45 -49 312.9 -49 301 C-47.68 301 -46.36 301 -45 301 C-45 311.56 -45 322.12 -45 333 C-25.53 333 -6.06 333 14 333 C14 256.77 14 180.54 14 102 C12.35 102 10.7 102 9 102 C9 145.56 9 189.12 9 234 C8.67 234 8.34 234 8 234 C8 168.66 8 103.32 8 36 C10.97 35.505 10.97 35.505 14 35 C14 24.77 14 14.54 14 4 C9.38 4 4.76 4 0 4 C0 2.68 0 1.36 0 0 Z " fill="#FDFEF9" transform="translate(1555,218)"/>
<path d="M0 0 C5.28 0 10.56 0 16 0 C16.33 11.55 16.66 23.1 17 35 C18.65 35.33 20.3 35.66 22 36 C22 101.34 22 166.68 22 234 C21.67 234 21.34 234 21 234 C21 190.44 21 146.88 21 102 C19.35 102 17.7 102 16 102 C16 178.89 16 255.78 16 335 C-5.45 335 -26.9 335 -49 335 C-49 324.11 -49 313.22 -49 302 C-48.34 302 -47.68 302 -47 302 C-47 311.9 -47 321.8 -47 332 C-27.2 332 -7.4 332 13 332 C13 299.99 13 267.98 13 235 C11.35 235 9.7 235 8 235 C8 169.33 8 103.66 8 36 C10.475 35.505 10.475 35.505 13 35 C13 24.77 13 14.54 13 4 C8.71 4 4.42 4 0 4 C0 2.68 0 1.36 0 0 Z " fill="#FEFEFC" transform="translate(651,218)"/>
<path d="M0 0 C10.56 0 21.12 0 32 0 C32 21.45 32 42.9 32 65 C21.44 65 10.88 65 0 65 C0 43.55 0 22.1 0 0 Z " fill="#CCFD5D" transform="translate(618,454)"/>
<path d="M0 0 C1.65 0 3.3 0 5 0 C5 12.87 5 25.74 5 39 C-5.23 39 -15.46 39 -26 39 C-26 61.11 -26 83.22 -26 106 C-36.23 106 -46.46 106 -57 106 C-57 114.58 -57 123.16 -57 132 C-54.03 132 -51.06 132 -48 132 C-48 140.58 -48 149.16 -48 158 C-40.74 158 -33.48 158 -26 158 C-26 171.2 -26 184.4 -26 198 C-26.33 198 -26.66 198 -27 198 C-27 185.13 -27 172.26 -27 159 C-34.26 159 -41.52 159 -49 159 C-49 150.42 -49 141.84 -49 133 C-59.23 133 -69.46 133 -80 133 C-80 132.67 -80 132.34 -80 132 C-77.03 132 -74.06 132 -71 132 C-71 118.8 -71 105.6 -71 92 C-60.77 92 -50.54 92 -40 92 C-40 70.55 -40 49.1 -40 27 C-29.44 27 -18.88 27 -8 27 C-8 18.42 -8 9.84 -8 1 C-6.68 1 -5.36 1 -4 1 C-4 10.9 -4 20.8 -4 31 C-14.23 31 -24.46 31 -35 31 C-35 52.78 -35 74.56 -35 97 C-45.23 97 -55.46 97 -66 97 C-66 108.55 -66 120.1 -66 132 C-64.68 132 -63.36 132 -62 132 C-62 121.77 -62 111.54 -62 101 C-51.77 101 -41.54 101 -31 101 C-31 79.22 -31 57.44 -31 35 C-20.77 35 -10.54 35 0 35 C0 23.45 0 11.9 0 0 Z " fill="#E1F6A1" transform="translate(1229,254)"/>
<path d="M0 0 C1.65 0 3.3 0 5 0 C5 10.23 5 20.46 5 31 C-5.23 31 -15.46 31 -26 31 C-26 52.78 -26 74.56 -26 97 C-36.23 97 -46.46 97 -57 97 C-57 108.55 -57 120.1 -57 132 C-56.01 132 -55.02 132 -54 132 C-54 121.77 -54 111.54 -54 101 C-43.77 101 -33.54 101 -23 101 C-23 79.22 -23 57.44 -23 35 C-12.44 35 -1.88 35 9 35 C9 23.78 9 12.56 9 1 C10.32 1 11.64 1 13 1 C13 13.54 13 26.08 13 39 C2.77 39 -7.46 39 -18 39 C-18 60.78 -18 82.56 -18 105 C-28.23 105 -38.46 105 -49 105 C-49 113.91 -49 122.82 -49 132 C-45.7 132 -42.4 132 -39 132 C-39 140.58 -39 149.16 -39 158 C-32.07 158 -25.14 158 -18 158 C-18 158.33 -18 158.66 -18 159 C-25.26 159 -32.52 159 -40 159 C-40 150.42 -40 141.84 -40 133 C-50.23 133 -60.46 133 -71 133 C-71 132.67 -71 132.34 -71 132 C-68.03 132 -65.06 132 -62 132 C-62 118.8 -62 105.6 -62 92 C-51.77 92 -41.54 92 -31 92 C-31 70.22 -31 48.44 -31 26 C-20.77 26 -10.54 26 0 26 C0 17.42 0 8.84 0 0 Z " fill="#E2F6A5" transform="translate(1470,254)"/>
<path d="M0 0 C1.65 0 3.3 0 5 0 C5 13.2 5 26.4 5 40 C-25.69 40 -56.38 40 -88 40 C-88 92.14 -88 144.28 -88 198 C-89.65 198.33 -91.3 198.66 -93 199 C-93 232.33 -93 265.66 -93 300 C-115.11 300 -137.22 300 -160 300 C-160 288.45 -160 276.9 -160 265 C-158.68 265 -157.36 265 -156 265 C-156 275.23 -156 285.46 -156 296 C-156.33 296 -156.66 296 -157 296 C-157 286.1 -157 276.2 -157 266 C-157.66 266 -158.32 266 -159 266 C-159 276.89 -159 287.78 -159 299 C-137.55 299 -116.1 299 -94 299 C-94 211.88 -94 124.76 -94 35 C-62.98 35 -31.96 35 0 35 C0 23.45 0 11.9 0 0 Z " fill="#ECF7CA" transform="translate(1853,254)"/>
<path d="M0 0 C3.3 0 6.6 0 10 0 C10 17.82 10 35.64 10 54 C-6.5 54 -23 54 -40 54 C-40 45.09 -40 36.18 -40 27 C-26.8 27 -13.6 27 0 27 C0 18.09 0 9.18 0 0 Z " fill="#FBFEF5" transform="translate(1461,492)"/>
<path d="M0 0 C1.65 0 3.3 0 5 0 C5 12.87 5 25.74 5 39 C-46.48 39 -97.96 39 -151 39 C-151 91.47 -151 143.94 -151 198 C-152.65 198 -154.3 198 -156 198 C-156 144.21 -156 90.42 -156 35 C-104.52 35 -53.04 35 0 35 C0 23.45 0 11.9 0 0 Z " fill="#EBF2CC" transform="translate(324,254)"/>
<path d="M0 0 C2.97 0 5.94 0 9 0 C9 17.82 9 35.64 9 54 C-7.5 54 -24 54 -41 54 C-41 45.09 -41 36.18 -41 27 C-27.47 27 -13.94 27 0 27 C0 18.09 0 9.18 0 0 Z " fill="#FBFEF5" transform="translate(1212,492)"/>
<path d="M0 0 C1.32 0 2.64 0 4 0 C4 9.9 4 19.8 4 30 C-47.15 30 -98.3 30 -151 30 C-151 85.11 -151 140.22 -151 197 C-152.65 197 -154.3 197 -156 197 C-156 140.57 -156 84.14 -156 26 C-104.52 26 -53.04 26 0 26 C0 17.42 0 8.84 0 0 Z " fill="#EAF3C9" transform="translate(316,255)"/>
<path d="M0 0 C1.32 0 2.64 0 4 0 C4 9.9 4 19.8 4 30 C-26.69 30 -57.38 30 -89 30 C-89 85.11 -89 140.22 -89 197 C-90.65 197 -92.3 197 -94 197 C-94 140.57 -94 84.14 -94 26 C-62.98 26 -31.96 26 0 26 C0 17.42 0 8.84 0 0 Z " fill="#EBF2CB" transform="translate(1845,255)"/>
<path d="M0 0 C16.17 0 32.34 0 49 0 C49 1.32 49 2.64 49 4 C34.15 4 19.3 4 4 4 C4 47.89 4 91.78 4 137 C-17.78 137 -39.56 137 -62 137 C-62 125.45 -62 113.9 -62 102 C-60.68 102 -59.36 102 -58 102 C-58 112.23 -58 122.46 -58 133 C-38.86 133 -19.72 133 0 133 C0 101.32 0 69.64 0 37 C-1.32 37 -2.64 37 -4 37 C-4 67.36 -4 97.72 -4 129 C-20.5 129 -37 129 -54 129 C-54 120.09 -54 111.18 -54 102 C-40.47 102 -26.94 102 -13 102 C-13 102.33 -13 102.66 -13 103 C-26.2 103 -39.4 103 -53 103 C-53 111.25 -53 119.5 -53 128 C-37.16 128 -21.32 128 -5 128 C-5 97.64 -5 67.28 -5 36 C-3.35 36 -1.7 36 0 36 C0 24.12 0 12.24 0 0 Z " fill="#F4FEDD" transform="translate(1069,417)"/>
<path d="M0 0 C5.61 0 11.22 0 17 0 C17 23.1 17 46.2 17 70 C-56.26 70 -129.52 70 -205 70 C-205 58.45 -205 46.9 -205 35 C-204.01 35 -203.02 35 -202 35 C-202 45.23 -202 55.46 -202 66 C-131.05 66 -60.1 66 13 66 C13 45.54 13 25.08 13 4 C8.71 4 4.42 4 0 4 C0 2.68 0 1.36 0 0 Z " fill="#F7FEE7" transform="translate(557,484)"/>
<path d="M0 0 C5.61 0 11.22 0 17 0 C17 1.32 17 2.64 17 4 C12.71 4 8.42 4 4 4 C4 69.67 4 135.34 4 203 C-17.78 203 -39.56 203 -62 203 C-62 191.45 -62 179.9 -62 168 C-60.68 168 -59.36 168 -58 168 C-58 178.23 -58 188.46 -58 199 C-38.86 199 -19.72 199 0 199 C0 133.33 0 67.66 0 0 Z " fill="#F7FEE7" transform="translate(757,351)"/>
<path d="M0 0 C5.61 0 11.22 0 17 0 C17 23.1 17 46.2 17 70 C-46.03 70 -109.06 70 -174 70 C-174 58.45 -174 46.9 -174 35 C-172.68 35 -171.36 35 -170 35 C-170 45.23 -170 55.46 -170 66 C-109.61 66 -49.22 66 13 66 C13 45.54 13 25.08 13 4 C8.71 4 4.42 4 0 4 C0 2.68 0 1.36 0 0 Z " fill="#F6FEE5" transform="translate(307,484)"/>
<path d="M0 0 C1.98 0 3.96 0 6 0 C6 65.34 6 130.68 6 198 C4.02 198 2.04 198 0 198 C0 132.66 0 67.32 0 0 Z " fill="#EFFAD0" transform="translate(417,254)"/>
<path d="M0 0 C15.84 0 31.68 0 48 0 C48 1.32 48 2.64 48 4 C33.48 4 18.96 4 4 4 C4 47.89 4 91.78 4 137 C-17.78 137 -39.56 137 -62 137 C-62 125.45 -62 113.9 -62 102 C-61.01 102 -60.02 102 -59 102 C-59 112.23 -59 122.46 -59 133 C-39.53 133 -20.06 133 0 133 C0 89.11 0 45.22 0 0 Z " fill="#F8FEE9" transform="translate(1319,417)"/>
<path d="M0 0 C0.99 0 1.98 0 3 0 C3.33 11.22 3.66 22.44 4 34 C67.36 34.33 130.72 34.66 196 35 C196 23.45 196 11.9 196 0 C196.99 0 197.98 0 199 0 C199 12.87 199 25.74 199 39 C133.33 39 67.66 39 0 39 C0 26.13 0 13.26 0 0 Z " fill="#CAFE5A" transform="translate(129,519)"/>
<path d="M0 0 C1.65 0 3.3 0 5 0 C5 65.34 5 130.68 5 198 C3.35 198 1.7 198 0 198 C0 132.66 0 67.32 0 0 Z " fill="#E2F6A6" transform="translate(1572,254)"/>
<path d="M0 0 C1.65 0 3.3 0 5 0 C5 65.34 5 130.68 5 198 C3.35 198 1.7 198 0 198 C0 132.66 0 67.32 0 0 Z " fill="#E1F7A1" transform="translate(659,254)"/>
<path d="M0 0 C1.65 0 3.3 0 5 0 C5 65.34 5 130.68 5 198 C3.35 198 1.7 198 0 198 C0 132.66 0 67.32 0 0 Z " fill="#EBF5C8" transform="translate(409,254)"/>
<path d="M0 0 C1.65 0 3.3 0 5 0 C5 43.89 5 87.78 5 133 C3.68 133 2.36 133 1 133 C1 166.33 1 199.66 1 234 C-41.57 234 -84.14 234 -128 234 C-128 222.45 -128 210.9 -128 199 C-126.68 199 -125.36 199 -124 199 C-124 209.23 -124 219.46 -124 230 C-124.33 230 -124.66 230 -125 230 C-125 220.1 -125 210.2 -125 200 C-125.66 200 -126.32 200 -127 200 C-127 210.89 -127 221.78 -127 233 C-85.09 233 -43.18 233 0 233 C0 156.11 0 79.22 0 0 Z " fill="#E9FDBB" transform="translate(979,320)"/>
<path d="M0 0 C1.65 0 3.3 0 5 0 C5 43.89 5 87.78 5 133 C3.68 133 2.36 133 1 133 C1 166.33 1 199.66 1 234 C-21.11 234 -43.22 234 -66 234 C-66 222.45 -66 210.9 -66 199 C-64.68 199 -63.36 199 -62 199 C-62 209.23 -62 219.46 -62 230 C-62.33 230 -62.66 230 -63 230 C-63 220.1 -63 210.2 -63 200 C-63.66 200 -64.32 200 -65 200 C-65 210.89 -65 221.78 -65 233 C-43.55 233 -22.1 233 0 233 C0 156.11 0 79.22 0 0 Z " fill="#E8FDB7" transform="translate(667,320)"/>
<path d="M0 0 C0.99 0 1.98 0 3 0 C3 8.91 3 17.82 3 27 C61.08 27 119.16 27 179 27 C179 18.09 179 9.18 179 0 C179.99 0 180.98 0 182 0 C182 10.23 182 20.46 182 31 C121.94 31 61.88 31 0 31 C0 20.77 0 10.54 0 0 Z " fill="#C7FE52" transform="translate(138,519)"/>
<path d="M0 0 C1.65 0 3.3 0 5 0 C5 76.23 5 152.46 5 231 C-14.47 231 -33.94 231 -54 231 C-54 230.67 -54 230.34 -54 230 C-34.86 230 -15.72 230 4 230 C4 197.99 4 165.98 4 133 C2.68 133 1.36 133 0 133 C0 89.11 0 45.22 0 0 Z " fill="#E6FCB1" transform="translate(1564,320)"/>
<path d="M0 0 C5.61 0 11.22 0 17 0 C17 23.1 17 46.2 17 70 C-4.78 70 -26.56 70 -49 70 C-49 58.45 -49 46.9 -49 35 C-47.68 35 -46.36 35 -45 35 C-45 45.23 -45 55.46 -45 66 C-25.86 66 -6.72 66 13 66 C13 45.54 13 25.08 13 4 C8.71 4 4.42 4 0 4 C0 2.68 0 1.36 0 0 Z " fill="#F6FEE4" transform="translate(1212,484)"/>
<path d="M0 0 C8.54164552 -0.03267296 17.08329998 -0.05163345 25.625 -0.0625 C26.62670164 -0.06378403 26.62670164 -0.06378403 27.64863968 -0.06509399 C56.41371677 -0.09740831 85.17446686 0.17847969 113.9375 0.5 C115.00760567 0.51195782 116.07771133 0.52391563 117.18024445 0.53623581 C130.45356859 0.68508542 143.72678101 0.84175 157 1 C157 22.78 157 44.56 157 67 C156.67 67 156.34 67 156 67 C156 45.55 156 24.1 156 2 C114.75 2 73.5 2 31 2 C31 10.58 31 19.16 31 28 C28.03 28 25.06 28 22 28 C22 19.09 22 10.18 22 1 C20.68 1 19.36 1 18 1 C18 11.23 18 21.46 18 32 C22.29 32 26.58 32 31 32 C31 33.32 31 34.64 31 36 C25.39 36 19.78 36 14 36 C14 24.45 14 12.9 14 1 C9.38 1 4.76 1 0 1 C0 0.67 0 0.34 0 0 Z " fill="#E4FDAC" transform="translate(806,452)"/>
<path d="M0 0 C5.61 0 11.22 0 17 0 C17 23.1 17 46.2 17 70 C-4.78 70 -26.56 70 -49 70 C-49 58.45 -49 46.9 -49 35 C-48.01 35 -47.02 35 -46 35 C-46 45.23 -46 55.46 -46 66 C-26.53 66 -7.06 66 13 66 C13 45.54 13 25.08 13 4 C8.71 4 4.42 4 0 4 C0 2.68 0 1.36 0 0 Z " fill="#F7FEE9" transform="translate(1462,484)"/>
<path d="M0 0 C1.65 0 3.3 0 5 0 C5 43.56 5 87.12 5 132 C3.35 132 1.7 132 0 132 C0 88.44 0 44.88 0 0 Z " fill="#E1F7A1" transform="translate(1751,320)"/>
<path d="M0 0 C1.65 0 3.3 0 5 0 C5 43.56 5 87.12 5 132 C3.35 132 1.7 132 0 132 C0 88.44 0 44.88 0 0 Z " fill="#E1F7A1" transform="translate(971,320)"/>
<path d="M0 0 C20.79 0 41.58 0 63 0 C63 0.33 63 0.66 63 1 C42.54 1 22.08 1 1 1 C1 22.45 1 43.9 1 66 C3.97 66 6.94 66 10 66 C10 78.87 10 91.74 10 105 C34.42 105 58.84 105 84 105 C84 92.13 84 79.26 84 66 C83.01 66 82.02 66 81 66 C81 77.55 81 89.1 81 101 C80.67 101 80.34 101 80 101 C80 67.67 80 34.34 80 0 C81.65 0 83.3 0 85 0 C85 34.98 85 69.96 85 106 C59.92 106 34.84 106 9 106 C9 93.13 9 80.26 9 67 C6.03 67 3.06 67 0 67 C0 44.89 0 22.78 0 0 Z " fill="#D6FD80" transform="translate(1492,453)"/>
<path d="M0 0 C62.37 0 124.74 0 189 0 C189 8.58 189 17.16 189 26 C195.93 26 202.86 26 210 26 C210 52.07 210 78.14 210 105 C209.67 105 209.34 105 209 105 C209 92.13 209 79.26 209 66 C208.01 66 207.02 66 206 66 C206 77.55 206 89.1 206 101 C205.67 101 205.34 101 205 101 C205 77.9 205 54.8 205 31 C199.06 31 193.12 31 187 31 C187 21.1 187 11.2 187 1 C125.62 1 64.24 1 1 1 C1 9.25 1 17.5 1 26 C0.67 26 0.34 26 0 26 C0 17.42 0 8.84 0 0 Z " fill="#D6FD7D" transform="translate(119,453)"/>
<path d="M0 0 C5.61 0 11.22 0 17 0 C17 11.88 17 23.76 17 36 C21.95 36 26.9 36 32 36 C32 44.58 32 53.16 32 62 C38.93 62 45.86 62 53 62 C53 62.33 53 62.66 53 63 C45.74 63 38.48 63 31 63 C31 54.42 31 45.84 31 37 C26.81183594 37.01160156 22.62367187 37.02320313 18.30859375 37.03515625 C14.8671649 37.04163364 11.42573789 37.04703972 7.98430634 37.05175018 C4.40789977 37.05692696 0.83151875 37.06377868 -2.74487305 37.07543945 C-22.85224659 37.13927297 -42.9072059 36.78810592 -63 36 C-63 35.67 -63 35.34 -63 35 C-42.21 35 -21.42 35 0 35 C0 26.09 0 17.18 0 8 C2.97 8 5.94 8 9 8 C9 16.91 9 25.82 9 35 C10.32 35 11.64 35 13 35 C13 24.77 13 14.54 13 4 C8.71 4 4.42 4 0 4 C0 2.68 0 1.36 0 0 Z " fill="#F0FDD1" transform="translate(1181,417)"/>
<path d="M0 0 C0.99 0 1.98 0 3 0 C3 31.68 3 63.36 3 96 C-15.81 96 -34.62 96 -54 96 C-54 85.77 -54 75.54 -54 65 C-53.01 65 -52.02 65 -51 65 C-51 73.91 -51 82.82 -51 92 C-34.17 92 -17.34 92 0 92 C0 61.64 0 31.28 0 0 Z " fill="#C7FE50" transform="translate(1752,454)"/>
<path d="M0 0 C0.99 0 1.98 0 3 0 C3 31.68 3 63.36 3 96 C-15.81 96 -34.62 96 -54 96 C-54 85.77 -54 75.54 -54 65 C-53.01 65 -52.02 65 -51 65 C-51 73.91 -51 82.82 -51 92 C-34.17 92 -17.34 92 0 92 C0 61.64 0 31.28 0 0 Z " fill="#C7FE50" transform="translate(660,454)"/>
<path d="M0 0 C1.65 0 3.3 0 5 0 C5 10.23 5 20.46 5 31 C-5.23 31 -15.46 31 -26 31 C-26 52.78 -26 74.56 -26 97 C-26.33 97 -26.66 97 -27 97 C-27 87.1 -27 77.2 -27 67 C-27.99 67 -28.98 67 -30 67 C-30 75.58 -30 84.16 -30 93 C-40.56 93 -51.12 93 -62 93 C-62 92.67 -62 92.34 -62 92 C-51.77 92 -41.54 92 -31 92 C-31 70.22 -31 48.44 -31 26 C-20.77 26 -10.54 26 0 26 C0 17.42 0 8.84 0 0 Z " fill="#EBF4CC" transform="translate(1470,254)"/>
<path d="M0 0 C1.32 0 2.64 0 4 0 C4 34.65 4 69.3 4 105 C-13.82 105 -31.64 105 -50 105 C-49.67 104.01 -49.34 103.02 -49 102 C-32.83 102 -16.66 102 0 102 C0 68.34 0 34.68 0 0 Z " fill="#C6FE4E" transform="translate(1760,453)"/>
<path d="M0 0 C1.32 0 2.64 0 4 0 C4 34.65 4 69.3 4 105 C-13.82 105 -31.64 105 -50 105 C-49.67 104.01 -49.34 103.02 -49 102 C-32.83 102 -16.66 102 0 102 C0 68.34 0 34.68 0 0 Z " fill="#C6FE4E" transform="translate(668,453)"/>
<path d="M0 0 C20.79 0 41.58 0 63 0 C63 0.33 63 0.66 63 1 C52.44 1 41.88 1 31 1 C31 9.91 31 18.82 31 28 C28.03 28 25.06 28 22 28 C22 19.09 22 10.18 22 1 C20.68 1 19.36 1 18 1 C18 11.23 18 21.46 18 32 C22.29 32 26.58 32 31 32 C31 33.32 31 34.64 31 36 C25.39 36 19.78 36 14 36 C14 24.45 14 12.9 14 1 C12.68 1 11.36 1 10 1 C10 13.87 10 26.74 10 40 C16.93 40 23.86 40 31 40 C31 40.33 31 40.66 31 41 C23.74 41 16.48 41 9 41 C9 27.8 9 14.6 9 1 C6.03 1 3.06 1 0 1 C0 0.67 0 0.34 0 0 Z " fill="#EBFDC1" transform="translate(88,452)"/>
<path d="M0 0 C1.65 0 3.3 0 5 0 C5 12.87 5 25.74 5 39 C-5.23 39 -15.46 39 -26 39 C-26 61.11 -26 83.22 -26 106 C-36.23 106 -46.46 106 -57 106 C-57 114.58 -57 123.16 -57 132 C-57.33 132 -57.66 132 -58 132 C-58 123.09 -58 114.18 -58 105 C-47.77 105 -37.54 105 -27 105 C-27 92.13 -27 79.26 -27 66 C-28.32 66 -29.64 66 -31 66 C-31 55.77 -31 45.54 -31 35 C-20.77 35 -10.54 35 0 35 C0 23.45 0 11.9 0 0 Z " fill="#EBF4CC" transform="translate(1229,254)"/>
<path d="M0 0 C1.32 0 2.64 0 4 0 C4 43.56 4 87.12 4 132 C2.68 132 1.36 132 0 132 C0 88.44 0 44.88 0 0 Z " fill="#D5F979" transform="translate(1760,320)"/>
<path d="M0 0 C1.32 0 2.64 0 4 0 C4 43.56 4 87.12 4 132 C2.68 132 1.36 132 0 132 C0 88.44 0 44.88 0 0 Z " fill="#D5F979" transform="translate(418,320)"/>
<path d="M0 0 C1.32 0 2.64 0 4 0 C4 43.56 4 87.12 4 132 C2.68 132 1.36 132 0 132 C0 88.44 0 44.88 0 0 Z " fill="#D6FA7B" transform="translate(160,320)"/>
<path d="M0 0 C1.98 0 3.96 0 6 0 C6 21.78 6 43.56 6 66 C4.35 66 2.7 66 1 66 C1 109.56 1 153.12 1 198 C0.67 198 0.34 198 0 198 C0 132.66 0 67.32 0 0 Z " fill="#F5FBE4" transform="translate(1563,254)"/>
<path d="M0 0 C1.98 0 3.96 0 6 0 C6 65.34 6 130.68 6 198 C5.67 198 5.34 198 5 198 C5 154.44 5 110.88 5 66 C3.35 66 1.7 66 0 66 C0 44.22 0 22.44 0 0 Z " fill="#F3FADC" transform="translate(979,254)"/>
<path d="M0 0 C1.98 0 3.96 0 6 0 C6 65.34 6 130.68 6 198 C5.67 198 5.34 198 5 198 C5 154.44 5 110.88 5 66 C3.35 66 1.7 66 0 66 C0 44.22 0 22.44 0 0 Z " fill="#F3FADC" transform="translate(667,254)"/>
<path d="M0 0 C1.32 0 2.64 0 4 0 C4 9.9 4 19.8 4 30 C-6.23 30 -16.46 30 -27 30 C-27 41.55 -27 53.1 -27 65 C-28.32 65 -29.64 65 -31 65 C-31 73.91 -31 82.82 -31 92 C-41.23 92 -51.46 92 -62 92 C-62 104.87 -62 117.74 -62 131 C-62.33 131 -62.66 131 -63 131 C-63 117.8 -63 104.6 -63 91 C-52.77 91 -42.54 91 -32 91 C-32 69.55 -32 48.1 -32 26 C-21.44 26 -10.88 26 0 26 C0 17.42 0 8.84 0 0 Z " fill="#EBF4CC" transform="translate(1221,255)"/>
<path d="M0 0 C0.99 0 1.98 0 3 0 C3.33 11.22 3.66 22.44 4 34 C37.165 34.495 37.165 34.495 71 35 C71 23.45 71 11.9 71 0 C71.99 0 72.98 0 74 0 C74 12.87 74 25.74 74 39 C49.58 39 25.16 39 0 39 C0 26.13 0 13.26 0 0 Z " fill="#C7FE52" transform="translate(1502,519)"/>
<path d="M0 0 C51.15 0 102.3 0 155 0 C155 0.99 155 1.98 155 3 C103.85 3 52.7 3 0 3 C0 2.01 0 1.02 0 0 Z " fill="#C6FF4F" transform="translate(370,547)"/>
<path d="M0 0 C5.61 0 11.22 0 17 0 C17 11.88 17 23.76 17 36 C11.39 36 5.78 36 0 36 C0 26.76 0 17.52 0 8 C2.97 8 5.94 8 9 8 C9 16.91 9 25.82 9 35 C10.32 35 11.64 35 13 35 C13 24.77 13 14.54 13 4 C8.71 4 4.42 4 0 4 C0 2.68 0 1.36 0 0 Z " fill="#F6FDE4" transform="translate(869,417)"/>
<path d="M0 0 C0.99 0 1.98 0 3 0 C3 12.87 3 25.74 3 39 C-34.62 39 -72.24 39 -111 39 C-111 38.01 -111 37.02 -111 36 C-74.7 35.67 -38.4 35.34 -1 35 C-0.67 23.45 -0.34 11.9 0 0 Z " fill="#C6FE4D" transform="translate(325,519)"/>
<path d="M0 0 C1.32 0 2.64 0 4 0 C4 12.54 4 25.08 4 38 C-6.23 38 -16.46 38 -27 38 C-27 46.91 -27 55.82 -27 65 C-28.32 65 -29.64 65 -31 65 C-31 76.55 -31 88.1 -31 100 C-31.33 100 -31.66 100 -32 100 C-32 78.22 -32 56.44 -32 34 C-21.44 34 -10.88 34 0 34 C0 22.78 0 11.56 0 0 Z " fill="#EBF3CB" transform="translate(1479,255)"/>
<path d="M0 0 C0.99 0 1.98 0 3 0 C3 11.88 3 23.76 3 36 C25.11 35.67 47.22 35.34 70 35 C70.33 23.45 70.66 11.9 71 0 C71.99 0 72.98 0 74 0 C74 12.87 74 25.74 74 39 C49.58 39 25.16 39 0 39 C0 26.13 0 13.26 0 0 Z " fill="#C6FE4D" transform="translate(1409,519)"/>
<path d="M0 0 C0.99 0 1.98 0 3 0 C3 8.91 3 17.82 3 27 C19.83 27 36.66 27 54 27 C54 18.09 54 9.18 54 0 C55.32 0 56.64 0 58 0 C58 10.23 58 20.46 58 31 C38.86 31 19.72 31 0 31 C0 20.77 0 10.54 0 0 Z " fill="#C7FE51" transform="translate(1417,519)"/>
<path d="M0 0 C1.65 0 3.3 0 5 0 C5 34.65 5 69.3 5 105 C4.67 105 4.34 105 4 105 C4 92.13 4 79.26 4 66 C3.01 66 2.02 66 1 66 C1 77.55 1 89.1 1 101 C0.67 101 0.34 101 0 101 C0 67.67 0 34.34 0 0 Z " fill="#D0FD6A" transform="translate(1073,453)"/>
<path d="M0 0 C1.65 0 3.3 0 5 0 C5 34.65 5 69.3 5 105 C4.67 105 4.34 105 4 105 C4 92.13 4 79.26 4 66 C3.01 66 2.02 66 1 66 C1 77.55 1 89.1 1 101 C0.67 101 0.34 101 0 101 C0 67.67 0 34.34 0 0 Z " fill="#D0FD6A" transform="translate(761,453)"/>
<path d="M0 0 C1.65 0 3.3 0 5 0 C5 32.01 5 64.02 5 97 C4.67 97 4.34 97 4 97 C4 86.77 4 76.54 4 66 C3.01 66 2.02 66 1 66 C1 74.91 1 83.82 1 93 C0.67 93 0.34 93 0 93 C0 62.31 0 31.62 0 0 Z " fill="#D0FD6C" transform="translate(971,453)"/>
<path d="M0 0 C0.99 0 1.98 0 3 0 C3.33 11.55 3.66 23.1 4 35 C43.6 35.495 43.6 35.495 84 36 C83.67 36.99 83.34 37.98 83 39 C55.61 39 28.22 39 0 39 C0 26.13 0 13.26 0 0 Z " fill="#C6FE4D" transform="translate(847,519)"/>
<path d="M0 0 C1.65 0 3.3 0 5 0 C5 21.78 5 43.56 5 66 C3.35 66 1.7 66 0 66 C0 44.22 0 22.44 0 0 Z " fill="#D8FA81" transform="translate(1572,386)"/>
<path d="M0 0 C1.65 0 3.3 0 5 0 C5 21.78 5 43.56 5 66 C3.35 66 1.7 66 0 66 C0 44.22 0 22.44 0 0 Z " fill="#D8FA81" transform="translate(168,386)"/>
<path d="M0 0 C1.65 0 3.3 0 5 0 C5 21.78 5 43.56 5 66 C3.35 66 1.7 66 0 66 C0 44.22 0 22.44 0 0 Z " fill="#E2F6A6" transform="translate(168,320)"/>
<path d="M0 0 C1.65 0 3.3 0 5 0 C5 21.78 5 43.56 5 66 C3.35 66 1.7 66 0 66 C0 44.22 0 22.44 0 0 Z " fill="#EBF2CD" transform="translate(1572,254)"/>
<path d="M0 0 C1.65 0 3.3 0 5 0 C5 21.78 5 43.56 5 66 C3.35 66 1.7 66 0 66 C0 44.22 0 22.44 0 0 Z " fill="#ECF3CE" transform="translate(1314,254)"/>
<path d="M0 0 C1.65 0 3.3 0 5 0 C5 21.78 5 43.56 5 66 C3.35 66 1.7 66 0 66 C0 44.22 0 22.44 0 0 Z " fill="#EBF2CD" transform="translate(1073,254)"/>
<path d="M0 0 C1.65 0 3.3 0 5 0 C5 21.78 5 43.56 5 66 C3.35 66 1.7 66 0 66 C0 44.22 0 22.44 0 0 Z " fill="#EBF3CD" transform="translate(971,254)"/>
<path d="M0 0 C1.65 0 3.3 0 5 0 C5 21.78 5 43.56 5 66 C3.35 66 1.7 66 0 66 C0 44.22 0 22.44 0 0 Z " fill="#EBF3CD" transform="translate(659,254)"/>
<path d="M0 0 C1.32 0 2.64 0 4 0 C4 32.01 4 64.02 4 97 C3.67 97 3.34 97 3 97 C3 86.77 3 76.54 3 66 C2.01 66 1.02 66 0 66 C0 44.22 0 22.44 0 0 Z " fill="#CDFD61" transform="translate(1315,453)"/>
<path d="M0 0 C1.32 0 2.64 0 4 0 C4 21.78 4 43.56 4 66 C3.01 66 2.02 66 1 66 C1 74.91 1 83.82 1 93 C0.67 93 0.34 93 0 93 C0 62.31 0 31.62 0 0 Z " fill="#CDFD61" transform="translate(1564,453)"/>
<path d="M0 0 C0.99 0 1.98 0 3 0 C3 12.87 3 25.74 3 39 C-14.16 39 -31.32 39 -49 39 C-49 38.01 -49 37.02 -49 36 C-33.16 35.67 -17.32 35.34 -1 35 C-0.67 23.45 -0.34 11.9 0 0 Z " fill="#C6FE4D" transform="translate(1230,519)"/>
<path d="M0 0 C1.32 0 2.64 0 4 0 C4 21.78 4 43.56 4 66 C2.68 66 1.36 66 0 66 C0 44.22 0 22.44 0 0 Z " fill="#CDFD5F" transform="translate(1760,453)"/>
<path d="M0 0 C1.32 0 2.64 0 4 0 C4 21.78 4 43.56 4 66 C2.68 66 1.36 66 0 66 C0 44.22 0 22.44 0 0 Z " fill="#CDFD5F" transform="translate(1323,453)"/>
<path d="M0 0 C1.32 0 2.64 0 4 0 C4 21.78 4 43.56 4 66 C2.68 66 1.36 66 0 66 C0 44.22 0 22.44 0 0 Z " fill="#CDFD60" transform="translate(753,453)"/>
<path d="M0 0 C1.32 0 2.64 0 4 0 C4 21.78 4 43.56 4 66 C2.68 66 1.36 66 0 66 C0 44.22 0 22.44 0 0 Z " fill="#CDFD5F" transform="translate(668,453)"/>
<path d="M0 0 C1.32 0 2.64 0 4 0 C4 21.78 4 43.56 4 66 C2.68 66 1.36 66 0 66 C0 44.22 0 22.44 0 0 Z " fill="#D6FA7B" transform="translate(1564,386)"/>
<path d="M0 0 C1.32 0 2.64 0 4 0 C4 21.78 4 43.56 4 66 C2.68 66 1.36 66 0 66 C0 44.22 0 22.44 0 0 Z " fill="#D5F979" transform="translate(980,386)"/>
<path d="M0 0 C1.32 0 2.64 0 4 0 C4 21.78 4 43.56 4 66 C2.68 66 1.36 66 0 66 C0 44.22 0 22.44 0 0 Z " fill="#D6FA7B" transform="translate(761,386)"/>
<path d="M0 0 C1.32 0 2.64 0 4 0 C4 21.78 4 43.56 4 66 C2.68 66 1.36 66 0 66 C0 44.22 0 22.44 0 0 Z " fill="#D5F97A" transform="translate(753,386)"/>
<path d="M0 0 C1.32 0 2.64 0 4 0 C4 21.78 4 43.56 4 66 C2.68 66 1.36 66 0 66 C0 44.22 0 22.44 0 0 Z " fill="#D5F979" transform="translate(668,386)"/>
<path d="M0 0 C1.32 0 2.64 0 4 0 C4 21.78 4 43.56 4 66 C2.68 66 1.36 66 0 66 C0 44.22 0 22.44 0 0 Z " fill="#D6FA7B" transform="translate(410,386)"/>
<path d="M0 0 C1.32 0 2.64 0 4 0 C4 21.78 4 43.56 4 66 C2.68 66 1.36 66 0 66 C0 44.22 0 22.44 0 0 Z " fill="#E0F5A0" transform="translate(1760,320)"/>
<path d="M0 0 C1.32 0 2.64 0 4 0 C4 21.78 4 43.56 4 66 C2.68 66 1.36 66 0 66 C0 44.22 0 22.44 0 0 Z " fill="#E0F6A1" transform="translate(1564,320)"/>
<path d="M0 0 C1.32 0 2.64 0 4 0 C4 21.78 4 43.56 4 66 C2.68 66 1.36 66 0 66 C0 44.22 0 22.44 0 0 Z " fill="#E0F5A0" transform="translate(980,320)"/>
<path d="M0 0 C1.32 0 2.64 0 4 0 C4 21.78 4 43.56 4 66 C2.68 66 1.36 66 0 66 C0 44.22 0 22.44 0 0 Z " fill="#E0F5A0" transform="translate(668,320)"/>
<path d="M0 0 C1.32 0 2.64 0 4 0 C4 21.78 4 43.56 4 66 C2.68 66 1.36 66 0 66 C0 44.22 0 22.44 0 0 Z " fill="#E0F5A0" transform="translate(418,320)"/>
<path d="M0 0 C1.32 0 2.64 0 4 0 C4 21.78 4 43.56 4 66 C2.68 66 1.36 66 0 66 C0 44.22 0 22.44 0 0 Z " fill="#E0F6A1" transform="translate(410,320)"/>
<path d="M0 0 C1.32 0 2.64 0 4 0 C4 21.78 4 43.56 4 66 C2.68 66 1.36 66 0 66 C0 44.22 0 22.44 0 0 Z " fill="#E0F6A1" transform="translate(160,320)"/>
<path d="M0 0 C1.32 0 2.64 0 4 0 C4 21.45 4 42.9 4 65 C2.68 65 1.36 65 0 65 C0 43.55 0 22.1 0 0 Z " fill="#CDFD60" transform="translate(1065,454)"/>
<path d="M0 0 C1.32 0 2.64 0 4 0 C4 21.45 4 42.9 4 65 C2.68 65 1.36 65 0 65 C0 43.55 0 22.1 0 0 Z " fill="#EAF2CA" transform="translate(1564,255)"/>
<path d="M0 0 C1.32 0 2.64 0 4 0 C4 21.45 4 42.9 4 65 C2.68 65 1.36 65 0 65 C0 43.55 0 22.1 0 0 Z " fill="#EAF2C9" transform="translate(1323,255)"/>
<path d="M0 0 C1.32 0 2.64 0 4 0 C4 21.45 4 42.9 4 65 C2.68 65 1.36 65 0 65 C0 43.55 0 22.1 0 0 Z " fill="#EAF2CA" transform="translate(1065,255)"/>
<path d="M0 0 C1.32 0 2.64 0 4 0 C4 21.45 4 42.9 4 65 C2.68 65 1.36 65 0 65 C0 43.55 0 22.1 0 0 Z " fill="#EAF2C9" transform="translate(980,255)"/>
<path d="M0 0 C1.32 0 2.64 0 4 0 C4 21.45 4 42.9 4 65 C2.68 65 1.36 65 0 65 C0 43.55 0 22.1 0 0 Z " fill="#EAF2C9" transform="translate(668,255)"/>
<path d="M0 0 C1.32 0 2.64 0 4 0 C4 21.45 4 42.9 4 65 C2.68 65 1.36 65 0 65 C0 43.55 0 22.1 0 0 Z " fill="#EAF2C9" transform="translate(418,255)"/>
<path d="M0 0 C1.32 0 2.64 0 4 0 C4 10.23 4 20.46 4 31 C-10.52 31 -25.04 31 -40 31 C-40 30.01 -40 29.02 -40 28 C-26.8 28 -13.6 28 0 28 C0 18.76 0 9.52 0 0 Z " fill="#C7FE50" transform="translate(566,519)"/>
<path d="M0 0 C2.97 0 5.94 0 9 0 C9 8.91 9 17.82 9 27 C6.03 27 3.06 27 0 27 C0 18.09 0 9.18 0 0 Z " fill="#FBFEF2" transform="translate(797,386)"/>
<path d="M0 0 C2.64 0 5.28 0 8 0 C8 8.91 8 17.82 8 27 C5.36 27 2.72 27 0 27 C0 18.09 0 9.18 0 0 Z " fill="#FFFFFF" transform="translate(1181,426)"/>
<path d="M0 0 C2.64 0 5.28 0 8 0 C8 8.91 8 17.82 8 27 C5.36 27 2.72 27 0 27 C0 18.09 0 9.18 0 0 Z " fill="#FFFFFF" transform="translate(869,426)"/>
<path d="M0 0 C2.64 0 5.28 0 8 0 C8 8.58 8 17.16 8 26 C5.36 26 2.72 26 0 26 C0 17.42 0 8.84 0 0 Z " fill="#FFFFFF" transform="translate(829,453)"/>
<path d="M0 0 C2.64 0 5.28 0 8 0 C8 8.58 8 17.16 8 26 C5.36 26 2.72 26 0 26 C0 17.42 0 8.84 0 0 Z " fill="#FFFFFF" transform="translate(111,453)"/>
<path d="M0 0 C2.64 0 5.28 0 8 0 C8 8.58 8 17.16 8 26 C5.36 26 2.72 26 0 26 C0 17.42 0 8.84 0 0 Z " fill="#FFFFFF" transform="translate(838,360)"/>
<path d="M0 0 C2.64 0 5.28 0 8 0 C8 8.58 8 17.16 8 26 C5.36 26 2.72 26 0 26 C0 17.42 0 8.84 0 0 Z " fill="#FFFFFF" transform="translate(807,294)"/>
<path d="M0 0 C5.94 0 11.88 0 18 0 C18 11.55 18 23.1 18 35 C16.68 35 15.36 35 14 35 C14 24.77 14 14.54 14 4 C9.38 4 4.76 4 0 4 C0 2.68 0 1.36 0 0 Z " fill="#FBFCF6" transform="translate(806,285)"/>
<path d="M0 0 C0.99 0 1.98 0 3 0 C3 21.45 3 42.9 3 65 C2.01 65 1.02 65 0 65 C0 43.55 0 22.1 0 0 Z " fill="#CCFD5D" transform="translate(1752,454)"/>
<path d="M0 0 C0.99 0 1.98 0 3 0 C3 21.45 3 42.9 3 65 C2.01 65 1.02 65 0 65 C0 43.55 0 22.1 0 0 Z " fill="#CCFD5D" transform="translate(660,454)"/>
<path d="M0 0 C0.99 0 1.98 0 3 0 C3 21.45 3 42.9 3 65 C2.01 65 1.02 65 0 65 C0 43.55 0 22.1 0 0 Z " fill="#D5FA78" transform="translate(1752,387)"/>
<path d="M0 0 C0.99 0 1.98 0 3 0 C3 21.45 3 42.9 3 65 C2.01 65 1.02 65 0 65 C0 43.55 0 22.1 0 0 Z " fill="#D5FA78" transform="translate(972,387)"/>
<path d="M0 0 C0.99 0 1.98 0 3 0 C3 21.45 3 42.9 3 65 C2.01 65 1.02 65 0 65 C0 43.55 0 22.1 0 0 Z " fill="#D5FA78" transform="translate(660,387)"/>
<path d="M0 0 C5.61 0 11.22 0 17 0 C17 11.55 17 23.1 17 35 C15.68 35 14.36 35 13 35 C13 24.77 13 14.54 13 4 C8.71 4 4.42 4 0 4 C0 2.68 0 1.36 0 0 Z " fill="#FAFDF0" transform="translate(838,351)"/>
<path d="M0 0 C0.99 0 1.98 0 3 0 C3 10.23 3 20.46 3 31 C7.62 31 12.24 31 17 31 C17 32.32 17 33.64 17 35 C11.39 35 5.78 35 0 35 C0 23.45 0 11.9 0 0 Z " fill="#FCFEF6" transform="translate(789,386)"/>
<path d="M0 0 C0.99 0 1.98 0 3 0 C4.35700647 2.71401294 4.1123861 4.84846316 4.09765625 7.8828125 C4.09443359 9.04941406 4.09121094 10.21601562 4.08789062 11.41796875 C4.07951172 12.64128906 4.07113281 13.86460937 4.0625 15.125 C4.05798828 16.35605469 4.05347656 17.58710937 4.04882812 18.85546875 C4.0370133 21.90369392 4.02054028 24.95182314 4 28 C6.97 28 9.94 28 13 28 C13 28.99 13 29.98 13 31 C8.71 31 4.42 31 0 31 C0 20.77 0 10.54 0 0 Z " fill="#C6FE4F" transform="translate(356,519)"/>
<path d="M0 0 C0.99 0 1.98 0 3 0 C3 10.56 3 21.12 3 32 C7.62 32 12.24 32 17 32 C17 32.99 17 33.98 17 35 C11.39 35 5.78 35 0 35 C0 23.45 0 11.9 0 0 Z " fill="#FDFEFA" transform="translate(820,453)"/>
<path d="M0 0 C0.66 0 1.32 0 2 0 C2 10.23 2 20.46 2 31 C6.62 31 11.24 31 16 31 C16 31.99 16 32.98 16 34 C10.72 34 5.44 34 0 34 C0 22.78 0 11.56 0 0 Z " fill="#FDFEF8" transform="translate(103,453)"/>
</svg>
